%TF.GenerationSoftware,KiCad,Pcbnew,(5.99.0-10830-g25678ee00d)*%
%TF.CreationDate,2021-08-24T11:38:22+02:00*%
%TF.ProjectId,OpenTurn,4f70656e-5475-4726-9e2e-6b696361645f,rev?*%
%TF.SameCoordinates,Original*%
%TF.FileFunction,Paste,Top*%
%TF.FilePolarity,Positive*%
%FSLAX46Y46*%
G04 Gerber Fmt 4.6, Leading zero omitted, Abs format (unit mm)*
G04 Created by KiCad (PCBNEW (5.99.0-10830-g25678ee00d)) date 2021-08-24 11:38:22*
%MOMM*%
%LPD*%
G01*
G04 APERTURE LIST*
G04 Aperture macros list*
%AMRoundRect*
0 Rectangle with rounded corners*
0 $1 Rounding radius*
0 $2 $3 $4 $5 $6 $7 $8 $9 X,Y pos of 4 corners*
0 Add a 4 corners polygon primitive as box body*
4,1,4,$2,$3,$4,$5,$6,$7,$8,$9,$2,$3,0*
0 Add four circle primitives for the rounded corners*
1,1,$1+$1,$2,$3*
1,1,$1+$1,$4,$5*
1,1,$1+$1,$6,$7*
1,1,$1+$1,$8,$9*
0 Add four rect primitives between the rounded corners*
20,1,$1+$1,$2,$3,$4,$5,0*
20,1,$1+$1,$4,$5,$6,$7,0*
20,1,$1+$1,$6,$7,$8,$9,0*
20,1,$1+$1,$8,$9,$2,$3,0*%
G04 Aperture macros list end*
%TA.AperFunction,Profile*%
%ADD10C,0.050000*%
%TD*%
%ADD11RoundRect,0.175000X-0.175000X-0.250000X0.175000X-0.250000X0.175000X0.250000X-0.175000X0.250000X0*%
%ADD12RoundRect,0.200000X-0.225000X0.200000X-0.225000X-0.200000X0.225000X-0.200000X0.225000X0.200000X0*%
%ADD13RoundRect,0.200000X-0.200000X-0.225000X0.200000X-0.225000X0.200000X0.225000X-0.200000X0.225000X0*%
%ADD14R,1.750000X1.750000*%
%ADD15R,1.400000X0.200000*%
%ADD16R,0.200000X1.400000*%
%ADD17RoundRect,0.229592X-1.395408X0.332908X-1.395408X-0.332908X1.395408X-0.332908X1.395408X0.332908X0*%
%ADD18R,0.500000X0.750000*%
%ADD19R,1.500000X1.500000*%
%ADD20R,0.400000X0.750000*%
%ADD21RoundRect,0.200000X0.225000X-0.200000X0.225000X0.200000X-0.225000X0.200000X-0.225000X-0.200000X0*%
%ADD22RoundRect,0.175000X0.250000X-0.175000X0.250000X0.175000X-0.250000X0.175000X-0.250000X-0.175000X0*%
%ADD23RoundRect,0.175000X0.300520X0.053033X0.053033X0.300520X-0.300520X-0.053033X-0.053033X-0.300520X0*%
%ADD24RoundRect,0.115000X0.145000X-0.115000X0.145000X0.115000X-0.145000X0.115000X-0.145000X-0.115000X0*%
%ADD25RoundRect,0.228261X-0.296739X-1.071739X0.296739X-1.071739X0.296739X1.071739X-0.296739X1.071739X0*%
%ADD26RoundRect,0.193750X-0.193750X-0.231250X0.193750X-0.231250X0.193750X0.231250X-0.193750X0.231250X0*%
%ADD27RoundRect,0.225000X0.450000X-0.225000X0.450000X0.225000X-0.450000X0.225000X-0.450000X-0.225000X0*%
%ADD28R,1.400000X3.900000*%
%ADD29RoundRect,0.193750X0.231250X-0.193750X0.231250X0.193750X-0.231250X0.193750X-0.231250X-0.193750X0*%
%ADD30RoundRect,0.200000X0.200000X0.225000X-0.200000X0.225000X-0.200000X-0.225000X0.200000X-0.225000X0*%
%ADD31RoundRect,0.175000X-0.250000X0.175000X-0.250000X-0.175000X0.250000X-0.175000X0.250000X0.175000X0*%
%ADD32RoundRect,0.115000X0.115000X0.145000X-0.115000X0.145000X-0.115000X-0.145000X0.115000X-0.145000X0*%
%ADD33RoundRect,0.125000X-0.125000X0.800000X-0.125000X-0.800000X0.125000X-0.800000X0.125000X0.800000X0*%
%ADD34R,0.600000X0.500000*%
%ADD35R,1.050000X0.900000*%
%ADD36RoundRect,0.250000X-0.300000X0.300000X-0.300000X-0.300000X0.300000X-0.300000X0.300000X0.300000X0*%
%ADD37RoundRect,0.037500X-0.037500X0.350000X-0.037500X-0.350000X0.037500X-0.350000X0.037500X0.350000X0*%
%ADD38RoundRect,0.037500X-0.350000X0.037500X-0.350000X-0.037500X0.350000X-0.037500X0.350000X0.037500X0*%
%ADD39RoundRect,0.115000X-0.115000X-0.145000X0.115000X-0.145000X0.115000X0.145000X-0.115000X0.145000X0*%
%ADD40RoundRect,0.125000X-0.125000X0.562500X-0.125000X-0.562500X0.125000X-0.562500X0.125000X0.562500X0*%
%ADD41RoundRect,0.193750X0.193750X0.231250X-0.193750X0.231250X-0.193750X-0.231250X0.193750X-0.231250X0*%
G04 APERTURE END LIST*
D10*
X94000000Y-157000000D02*
X93999999Y-97000000D01*
X156999999Y-94000000D02*
X96999999Y-94000000D01*
X139200002Y-129125000D02*
X138874998Y-129125000D01*
X143950000Y-129150000D02*
X142925000Y-128125000D01*
X142199998Y-129125000D02*
X142525000Y-129125000D01*
X156999999Y-94000000D02*
X160000000Y-97000000D01*
X142925000Y-128125000D02*
X142200002Y-128125000D01*
X138874998Y-129125000D02*
X138449998Y-129550000D01*
X96999999Y-94000000D02*
X93999999Y-97000000D01*
X139199998Y-128125000D02*
G75*
G02*
X139200002Y-129125000I2J-500000D01*
G01*
X160000000Y-157000000D02*
X160000000Y-97000000D01*
X138474998Y-128125000D02*
X139199998Y-128125000D01*
X97000000Y-160000000D02*
X94000000Y-157000000D01*
X138450000Y-132275000D02*
G75*
G02*
X137450000Y-132275000I-500000J0D01*
G01*
X137450000Y-132275000D02*
X137449998Y-129150000D01*
X142950000Y-132250000D02*
X142950000Y-129550000D01*
X97000000Y-160000000D02*
X157000000Y-160000000D01*
X142525000Y-129125000D02*
X142950000Y-129550000D01*
X142200002Y-128125000D02*
G75*
G03*
X142199998Y-129125000I-2J-500000D01*
G01*
X142950000Y-132250000D02*
G75*
G03*
X143950000Y-132250000I500000J0D01*
G01*
X137449998Y-129150000D02*
X138474998Y-128125000D01*
X138450000Y-132275000D02*
X138449998Y-129550000D01*
X143950000Y-132250000D02*
X143950000Y-129150000D01*
X157000000Y-160000000D02*
X160000000Y-157000000D01*
D11*
X117317498Y-117525000D03*
X118967498Y-117525000D03*
X117317499Y-120734826D03*
X118967499Y-120734826D03*
X117317499Y-119125002D03*
X118967499Y-119125002D03*
D12*
X117730000Y-114305000D03*
X117730000Y-115855000D03*
X137044998Y-114300003D03*
X137044998Y-115850003D03*
X119824999Y-100874998D03*
X119824999Y-102424998D03*
X135574999Y-114299999D03*
X135574999Y-115849999D03*
D13*
X120342499Y-119125002D03*
X121892499Y-119125002D03*
D12*
X119199997Y-114305000D03*
X119199997Y-115855000D03*
D13*
X120342498Y-120734826D03*
X121892498Y-120734826D03*
D12*
X121300000Y-100875000D03*
X121300000Y-102425000D03*
X114750001Y-114305000D03*
X114750001Y-115855000D03*
D13*
X131399998Y-121000004D03*
X132949998Y-121000004D03*
D12*
X134799994Y-118020168D03*
X134799994Y-119570168D03*
D13*
X120342499Y-117525000D03*
X121892499Y-117525000D03*
X99525000Y-125025000D03*
X101075000Y-125025000D03*
D14*
X127749999Y-110950000D03*
X127749999Y-108750000D03*
X125549999Y-108750000D03*
X125549999Y-110950000D03*
D15*
X132349999Y-113600000D03*
X132349999Y-113100000D03*
X132349999Y-112600000D03*
X132349999Y-112100000D03*
X132349999Y-111600000D03*
X132349999Y-111100000D03*
X132349999Y-110600000D03*
X132349999Y-110100000D03*
X132349999Y-109600000D03*
X132349999Y-109100000D03*
X132349999Y-108600000D03*
X132349999Y-108100000D03*
X132349999Y-107600000D03*
X132349999Y-107100000D03*
X132349999Y-106600000D03*
X132349999Y-106100000D03*
D16*
X130399999Y-104150000D03*
X129899999Y-104150000D03*
X129399999Y-104150000D03*
X128899999Y-104150000D03*
X128399999Y-104150000D03*
X127899999Y-104150000D03*
X127399999Y-104150000D03*
X126899999Y-104150000D03*
X126399999Y-104150000D03*
X125899999Y-104150000D03*
X125399999Y-104150000D03*
X124899999Y-104150000D03*
X124399999Y-104150000D03*
X123899999Y-104150000D03*
X123399999Y-104150000D03*
X122899999Y-104150000D03*
D15*
X120949999Y-106100000D03*
X120949999Y-106600000D03*
X120949999Y-107100000D03*
X120949999Y-107600000D03*
X120949999Y-108100000D03*
X120949999Y-108600000D03*
X120949999Y-109100000D03*
X120949999Y-109600000D03*
X120949999Y-110100000D03*
X120949999Y-110600000D03*
X120949999Y-111100000D03*
X120949999Y-111600000D03*
X120949999Y-112100000D03*
X120949999Y-112600000D03*
X120949999Y-113100000D03*
X120949999Y-113600000D03*
D16*
X122899999Y-115550000D03*
X123399999Y-115550000D03*
X123899999Y-115550000D03*
X124399999Y-115550000D03*
X124899999Y-115550000D03*
X125399999Y-115550000D03*
X125899999Y-115550000D03*
X126399999Y-115550000D03*
X126899999Y-115550000D03*
X127399999Y-115550000D03*
X127899999Y-115550000D03*
X128399999Y-115550000D03*
X128899999Y-115550000D03*
X129399999Y-115550000D03*
X129899999Y-115550000D03*
X130399999Y-115550000D03*
D12*
X116230000Y-114305000D03*
X116230000Y-115855000D03*
X134099998Y-114300000D03*
X134099998Y-115850000D03*
D17*
X127869665Y-139133838D03*
X127869665Y-145058838D03*
X113600000Y-139123169D03*
X113600000Y-145048169D03*
D18*
X140640000Y-152810834D03*
D19*
X140425000Y-149705834D03*
X142125000Y-151405834D03*
X140425000Y-151405834D03*
D18*
X139370000Y-152810834D03*
X141910000Y-152810834D03*
X143180000Y-152810834D03*
D19*
X142125000Y-149705834D03*
D20*
X143180000Y-147005834D03*
X141910000Y-147005834D03*
X140640000Y-147005834D03*
X139370000Y-147005834D03*
D21*
X100450000Y-120400000D03*
X100450000Y-118850000D03*
D22*
X103650000Y-129687500D03*
X103650000Y-128037500D03*
D23*
X115908362Y-125120863D03*
X114741636Y-123954137D03*
D12*
X98250000Y-121975000D03*
X98250000Y-123525000D03*
D18*
X136380000Y-147000834D03*
X133840000Y-147000834D03*
D19*
X135325000Y-150105834D03*
D18*
X135110000Y-147000834D03*
D19*
X133625000Y-150105834D03*
X135325000Y-148405834D03*
X133625000Y-148405834D03*
D18*
X132570000Y-147000834D03*
D20*
X132570000Y-152805834D03*
X133840000Y-152805834D03*
X135110000Y-152805834D03*
X136380000Y-152805834D03*
D23*
X114635570Y-126393654D03*
X113468844Y-125226928D03*
D12*
X113280000Y-114305000D03*
X113280000Y-115855000D03*
D22*
X116550000Y-150910669D03*
X116550000Y-149260669D03*
D19*
X113625000Y-151400907D03*
X111925000Y-151400907D03*
D18*
X113410000Y-152805907D03*
X110870000Y-152805907D03*
X112140000Y-152805907D03*
D19*
X113625000Y-149700907D03*
D18*
X114680000Y-152805907D03*
D19*
X111925000Y-149700907D03*
D20*
X114680000Y-147000907D03*
X113410000Y-147000907D03*
X112140000Y-147000907D03*
X110870000Y-147000907D03*
D22*
X144975000Y-152825000D03*
X144975000Y-151175000D03*
D24*
X114400000Y-122542500D03*
X114400000Y-121582500D03*
D25*
X95875000Y-141025000D03*
X98825000Y-141025000D03*
D22*
X102500000Y-112925000D03*
X102500000Y-111275000D03*
D25*
X95875000Y-147425000D03*
X98825000Y-147425000D03*
D21*
X130725000Y-147910669D03*
X130725000Y-146360669D03*
D26*
X104412500Y-104875000D03*
X105987500Y-104875000D03*
D27*
X98716346Y-120500000D03*
X98716346Y-118600000D03*
D28*
X99400000Y-115050000D03*
X95800000Y-115050000D03*
D29*
X134690000Y-96567500D03*
X134690000Y-94992500D03*
D30*
X142475000Y-127000000D03*
X140925000Y-127000000D03*
D17*
X142000000Y-139073169D03*
X142000000Y-144998169D03*
D31*
X145800000Y-112900000D03*
X145800000Y-114550000D03*
D11*
X95325000Y-110098505D03*
X96975000Y-110098505D03*
D19*
X106825000Y-150100907D03*
D18*
X104070000Y-146995907D03*
X105340000Y-146995907D03*
D19*
X106825000Y-148400907D03*
D18*
X107880000Y-146995907D03*
D19*
X105125000Y-148400907D03*
D18*
X106610000Y-146995907D03*
D19*
X105125000Y-150100907D03*
D20*
X104070000Y-152800907D03*
X105340000Y-152800907D03*
X106610000Y-152800907D03*
X107880000Y-152800907D03*
D32*
X109609999Y-127362500D03*
X108649999Y-127362500D03*
D21*
X116550000Y-147885669D03*
X116550000Y-146335669D03*
D33*
X151180000Y-109600000D03*
X149910000Y-109600000D03*
X148640000Y-109600000D03*
X147370000Y-109600000D03*
X147370000Y-114550000D03*
X148640000Y-114550000D03*
X149910000Y-114550000D03*
X151180000Y-114550000D03*
D11*
X95350000Y-106798505D03*
X97000000Y-106798505D03*
D34*
X104050000Y-112795482D03*
X104050000Y-111395482D03*
D35*
X133149996Y-118025000D03*
X131399996Y-118025000D03*
X131399996Y-119425000D03*
X133149996Y-119425000D03*
D36*
X108200000Y-121162500D03*
X106830000Y-121162500D03*
X109570000Y-122532500D03*
X109570000Y-119792500D03*
X108200000Y-119792500D03*
X108200000Y-122532500D03*
X106830000Y-122532500D03*
X109570000Y-121162500D03*
X106830000Y-119792500D03*
D37*
X110950000Y-117725000D03*
X110450000Y-117725000D03*
X109950000Y-117725000D03*
X109450000Y-117725000D03*
X108950000Y-117725000D03*
X108450000Y-117725000D03*
X107950000Y-117725000D03*
X107450000Y-117725000D03*
X106950000Y-117725000D03*
X106450000Y-117725000D03*
X105950000Y-117725000D03*
X105450000Y-117725000D03*
D38*
X104762500Y-118412500D03*
X104762500Y-118912500D03*
X104762500Y-119412500D03*
X104762500Y-119912500D03*
X104762500Y-120412500D03*
X104762500Y-120912500D03*
X104762500Y-121412500D03*
X104762500Y-121912500D03*
X104762500Y-122412500D03*
X104762500Y-122912500D03*
X104762500Y-123412500D03*
X104762500Y-123912500D03*
D37*
X105450000Y-124600000D03*
X105950000Y-124600000D03*
X106450000Y-124600000D03*
X106950000Y-124600000D03*
X107450000Y-124600000D03*
X107950000Y-124600000D03*
X108450000Y-124600000D03*
X108950000Y-124600000D03*
X109450000Y-124600000D03*
X109950000Y-124600000D03*
X110450000Y-124600000D03*
X110950000Y-124600000D03*
D38*
X111637500Y-123912500D03*
X111637500Y-123412500D03*
X111637500Y-122912500D03*
X111637500Y-122412500D03*
X111637500Y-121912500D03*
X111637500Y-121412500D03*
X111637500Y-120912500D03*
X111637500Y-120412500D03*
X111637500Y-119912500D03*
X111637500Y-119412500D03*
X111637500Y-118912500D03*
X111637500Y-118412500D03*
D31*
X131620000Y-94975000D03*
X131620000Y-96625000D03*
D13*
X148500000Y-107550000D03*
X150050000Y-107550000D03*
D39*
X106794999Y-127362500D03*
X107754999Y-127362500D03*
D40*
X141550000Y-130112500D03*
X139650000Y-130112500D03*
X140600000Y-131987500D03*
D22*
X112724998Y-129687500D03*
X112724998Y-128037500D03*
D29*
X129970000Y-96579999D03*
X129970000Y-95004999D03*
D21*
X144975000Y-149800000D03*
X144975000Y-148250000D03*
D27*
X96741346Y-120500000D03*
X96741346Y-118600000D03*
D41*
X96962500Y-105148505D03*
X95387500Y-105148505D03*
D25*
X95875000Y-144225000D03*
X98825000Y-144225000D03*
D22*
X105450000Y-129687500D03*
X105450000Y-128037500D03*
D41*
X96962500Y-108423505D03*
X95387500Y-108423505D03*
D18*
X126409665Y-152816576D03*
X128949665Y-152816576D03*
D19*
X127894665Y-149711576D03*
D18*
X125139665Y-152816576D03*
D19*
X126194665Y-149711576D03*
D18*
X127679665Y-152816576D03*
D19*
X126194665Y-151411576D03*
X127894665Y-151411576D03*
D20*
X128949665Y-147011576D03*
X127679665Y-147011576D03*
X126409665Y-147011576D03*
X125139665Y-147011576D03*
D31*
X133100000Y-94975000D03*
X133100000Y-96625000D03*
D22*
X130725000Y-150935669D03*
X130725000Y-149285669D03*
D25*
X95875000Y-137825000D03*
X98825000Y-137825000D03*
X95875000Y-134625000D03*
X98825000Y-134625000D03*
D18*
X122149665Y-147006576D03*
X118339665Y-147006576D03*
X119609665Y-147006576D03*
D19*
X119394665Y-148411576D03*
X121094665Y-150111576D03*
X121094665Y-148411576D03*
X119394665Y-150111576D03*
D18*
X120879665Y-147006576D03*
D20*
X118339665Y-152811576D03*
X119609665Y-152811576D03*
X120879665Y-152811576D03*
X122149665Y-152811576D03*
D22*
X110925000Y-129687500D03*
X110925000Y-128037500D03*
D26*
X104412500Y-107875000D03*
X105987500Y-107875000D03*
M02*
