M48
; DRILL file {KiCad (5.99.0-10830-g25678ee00d)} date Tue Aug 24 11:38:34 2021
; FORMAT={-:-/ absolute / metric / decimal}
; #@! TF.CreationDate,2021-08-24T11:38:34+02:00
; #@! TF.GenerationSoftware,Kicad,Pcbnew,(5.99.0-10830-g25678ee00d)
; #@! TF.FileFunction,Plated,1,4,PTH
FMAT,2
METRIC
; #@! TA.AperFunction,Plated,PTH,ViaDrill
T1C0.200
; #@! TA.AperFunction,Plated,PTH,ComponentDrill
T2C0.200
; #@! TA.AperFunction,Plated,PTH,ViaDrill
T3C0.300
; #@! TA.AperFunction,Plated,PTH,ViaDrill
T4C0.400
; #@! TA.AperFunction,Plated,PTH,ComponentDrill
T5C0.650
; #@! TA.AperFunction,Plated,PTH,ComponentDrill
T6C0.700
; #@! TA.AperFunction,Plated,PTH,ComponentDrill
T7C0.750
; #@! TA.AperFunction,Plated,PTH,ComponentDrill
T8C0.800
; #@! TA.AperFunction,Plated,PTH,ComponentDrill
T9C1.000
; #@! TA.AperFunction,Plated,PTH,ComponentDrill
T10C2.700
; #@! TA.AperFunction,Plated,PTH,ComponentDrill
T11C2.800
; #@! TA.AperFunction,Plated,PTH,ComponentDrill
T12C3.200
%
G90
G05
T1
X94.65Y-133.75
X94.65Y-134.25
X94.65Y-134.75
X94.65Y-135.25
X94.65Y-135.75
X94.65Y-136.25
X94.65Y-136.75
X94.65Y-137.25
X94.65Y-137.75
X94.65Y-138.25
X94.65Y-138.75
X94.65Y-139.25
X94.65Y-139.75
X94.65Y-140.25
X94.65Y-140.75
X94.65Y-141.25
X94.65Y-141.75
X94.65Y-142.25
X94.65Y-142.75
X94.65Y-143.25
X94.65Y-143.75
X94.65Y-144.25
X94.65Y-144.75
X94.65Y-145.25
X94.65Y-145.75
X94.65Y-146.25
X94.65Y-146.75
X94.65Y-147.25
X94.65Y-147.75
X94.65Y-148.25
X97.875Y-105.149
X97.875Y-108.424
X97.9Y-106.799
X98.0Y-111.675
X100.075Y-133.525
X100.075Y-134.025
X100.075Y-134.525
X100.075Y-135.025
X100.075Y-135.525
X100.075Y-136.025
X100.075Y-136.525
X100.075Y-137.025
X100.075Y-137.525
X100.075Y-138.025
X100.075Y-138.525
X100.075Y-139.025
X100.075Y-139.525
X100.45Y-112.6
X100.575Y-133.525
X100.575Y-134.025
X100.575Y-134.525
X100.575Y-135.025
X100.575Y-135.525
X100.575Y-136.025
X100.575Y-136.525
X100.575Y-137.025
X100.575Y-137.525
X100.575Y-138.025
X100.575Y-138.525
X100.575Y-139.025
X100.575Y-139.525
X101.575Y-118.275
X101.575Y-118.775
X101.575Y-119.275
X101.575Y-119.775
X102.075Y-119.775
X102.075Y-120.275
X102.25Y-123.575
X102.25Y-124.375
X102.35Y-129.2
X102.5Y-110.37
X102.525Y-131.9
X102.6Y-126.75
X102.7Y-103.875
X102.7Y-104.375
X102.7Y-104.875
X102.7Y-105.375
X102.7Y-105.875
X102.7Y-106.375
X102.7Y-106.875
X102.7Y-107.375
X102.7Y-107.875
X102.7Y-108.375
X102.7Y-108.875
X103.2Y-103.375
X103.2Y-103.875
X103.2Y-104.375
X103.2Y-104.875
X103.2Y-105.375
X103.2Y-105.875
X103.2Y-106.375
X103.2Y-106.875
X103.2Y-107.375
X103.2Y-107.875
X103.2Y-108.375
X103.2Y-108.875
X103.2Y-109.375
X103.35Y-114.125
X103.35Y-114.775
X103.35Y-115.45
X103.4Y-116.1
X103.65Y-130.575
X103.7Y-103.35
X103.7Y-103.85
X103.7Y-108.875
X103.7Y-109.375
X103.883Y-106.125
X103.883Y-106.625
X103.975Y-114.125
X103.975Y-114.775
X103.975Y-115.45
X104.15Y-125.2
X104.2Y-103.35
X104.2Y-103.85
X104.2Y-108.875
X104.2Y-109.375
X104.383Y-106.125
X104.383Y-106.625
X104.55Y-130.575
X105.45Y-110.725
X105.45Y-130.575
X105.5Y-109.825
X106.03Y-111.616
X106.45Y-129.5
X106.5Y-131.95
X106.561Y-112.147
X106.725Y-140.5
X106.803Y-128.225
X106.95Y-104.2
X106.95Y-104.7
X106.95Y-105.2
X106.95Y-105.7
X106.95Y-107.125
X106.95Y-107.625
X106.95Y-108.125
X106.95Y-108.625
X107.091Y-112.677
X107.45Y-104.2
X107.45Y-104.7
X107.45Y-105.2
X107.45Y-105.7
X107.45Y-107.625
X107.45Y-108.125
X107.45Y-108.625
X107.45Y-107.125
X107.621Y-113.207
X107.725Y-140.5
X107.75Y-128.225
X107.95Y-104.7
X107.95Y-105.2
X107.95Y-105.7
X107.95Y-107.125
X107.95Y-107.625
X107.95Y-108.125
X108.152Y-113.738
X108.6Y-130.025
X108.6Y-130.975
X108.6Y-131.95
X108.65Y-128.225
X108.65Y-129.025
X108.682Y-114.268
X108.725Y-140.5
X109.225Y-113.05
X109.75Y-130.0
X109.75Y-130.975
X109.75Y-131.95
X110.0Y-140.5
X110.925Y-130.55
X110.95Y-131.95
X111.225Y-140.5
X111.825Y-131.45
X112.2Y-125.15
X112.725Y-132.25
X113.2Y-118.65
X113.28Y-116.55
X113.575Y-126.95
X113.675Y-110.325
X114.425Y-111.95
X114.75Y-116.55
X114.85Y-108.85
X115.0Y-111.075
X115.0Y-131.1
X115.1Y-121.575
X115.1Y-122.525
X115.125Y-128.35
X115.275Y-127.025
X115.425Y-120.15
X115.725Y-123.35
X115.85Y-126.35
X115.875Y-108.775
X116.2Y-119.775
X116.225Y-116.55
X116.225Y-113.0
X116.375Y-129.325
X116.5Y-125.7
X116.625Y-131.1
X116.75Y-104.599
X117.3Y-125.075
X117.425Y-123.35
X117.725Y-116.55
X118.225Y-104.6
X118.475Y-131.1
X118.7Y-124.75
X118.7Y-126.475
X119.2Y-116.55
X119.6Y-129.35
X120.05Y-132.2
X120.45Y-126.45
X120.725Y-140.5
X121.175Y-130.875
X121.275Y-123.7
X121.725Y-140.5
X122.375Y-111.6
X122.425Y-124.5
X122.475Y-132.175
X122.642Y-117.535
X122.642Y-119.11
X122.642Y-120.725
X122.725Y-140.5
X122.9Y-128.6
X123.5Y-98.525
X123.544Y-99.294
X123.925Y-95.175
X123.975Y-140.5
X124.275Y-119.725
X124.425Y-130.125
X124.8Y-99.175
X124.975Y-99.95
X125.228Y-140.5
X125.6Y-130.85
X126.525Y-117.925
X127.0Y-127.0
X127.0Y-128.825
X127.2Y-118.525
X127.975Y-130.875
X128.65Y-96.925
X129.4Y-105.4
X129.55Y-117.65
X129.55Y-119.525
X129.55Y-121.0
X130.275Y-122.2
X130.375Y-130.8
X130.875Y-112.375
X131.2Y-127.0
X131.625Y-97.575
X131.625Y-102.325
X131.825Y-128.325
X132.825Y-130.85
X132.95Y-121.85
X133.1Y-97.575
X133.1Y-103.0
X133.325Y-104.975
X133.75Y-121.0
X133.775Y-128.875
X133.975Y-126.425
X134.125Y-132.1
X134.75Y-120.425
X134.975Y-140.5
X135.25Y-122.325
X135.45Y-98.325
X135.5Y-127.8
X135.5Y-130.475
X135.65Y-119.575
X135.975Y-140.5
X136.575Y-108.65
X136.9Y-129.175
X136.925Y-131.775
X136.975Y-140.5
X137.0Y-117.025
X137.025Y-120.55
X138.025Y-118.8
X138.1Y-112.1
X138.225Y-140.5
X138.5Y-111.5
X138.85Y-117.625
X138.9Y-110.9
X139.299Y-110.301
X139.475Y-140.5
X139.6Y-115.125
X139.699Y-109.701
X140.1Y-109.1
X140.35Y-112.625
X140.9Y-107.9
X140.925Y-126.025
X141.3Y-107.3
X141.7Y-106.7
X142.1Y-106.1
X142.475Y-126.025
X142.5Y-105.5
X142.75Y-110.125
X143.34Y-107.3
X145.8Y-111.975
X145.9Y-103.225
X146.75Y-117.25
X146.975Y-111.759
X147.375Y-107.55
X148.275Y-118.7
X148.4Y-103.225
X148.5Y-106.5
X149.3Y-123.55
X150.05Y-106.5
X150.275Y-118.7
X151.175Y-107.55
X151.625Y-111.759
X151.825Y-117.25
X154.125Y-141.925
X154.125Y-143.425
X154.125Y-145.925
X154.125Y-141.425
X154.125Y-142.425
X154.125Y-142.925
X154.125Y-143.925
X154.125Y-144.425
X154.125Y-144.925
X154.125Y-145.425
X154.125Y-146.425
X154.625Y-141.425
X154.625Y-141.925
X154.625Y-142.425
X154.625Y-142.925
X154.625Y-143.425
X154.625Y-143.925
X154.625Y-144.425
X154.625Y-144.925
X154.625Y-145.425
X154.625Y-145.925
X154.625Y-146.425
X154.625Y-146.925
X154.625Y-147.425
X154.625Y-147.925
X156.6Y-122.775
X156.6Y-124.175
X159.55Y-133.7
X159.55Y-134.2
X159.55Y-134.7
X159.55Y-135.2
X159.55Y-135.7
X159.55Y-136.2
X159.55Y-136.7
X159.55Y-137.2
X159.55Y-137.7
X159.55Y-138.2
X159.55Y-138.7
X159.55Y-139.2
X159.55Y-139.7
X159.55Y-140.2
X159.55Y-140.7
X159.55Y-141.2
X159.55Y-141.7
X159.55Y-142.2
X159.55Y-142.7
X159.55Y-143.2
X159.55Y-143.7
X159.55Y-144.2
X159.55Y-144.7
X159.55Y-145.2
X159.55Y-145.7
X159.55Y-146.2
X159.55Y-146.7
X159.55Y-147.2
X159.55Y-147.7
T2
X106.4Y-119.362
X106.4Y-120.562
X106.4Y-121.762
X106.4Y-122.962
X107.6Y-119.362
X107.6Y-120.562
X107.6Y-121.762
X107.6Y-122.962
X108.8Y-119.362
X108.8Y-120.562
X108.8Y-121.762
X108.8Y-122.962
X110.0Y-119.362
X110.0Y-120.562
X110.0Y-121.762
X110.0Y-122.962
X125.15Y-108.35
X125.15Y-109.35
X125.15Y-110.35
X125.15Y-111.35
X126.15Y-108.35
X126.15Y-109.35
X126.15Y-110.35
X126.15Y-111.35
X127.15Y-108.35
X127.15Y-109.35
X127.15Y-110.35
X127.15Y-111.35
X128.15Y-108.35
X128.15Y-109.35
X128.15Y-110.35
X128.15Y-111.35
T3
X101.2Y-116.225
X101.75Y-115.675
X102.325Y-116.225
X129.97Y-97.46
X134.69Y-97.45
T4
X103.075Y-142.331
X103.075Y-143.131
X103.075Y-143.931
X103.725Y-154.0
X103.725Y-154.8
X103.725Y-155.6
X103.725Y-156.411
X103.725Y-157.211
X103.725Y-158.011
X103.725Y-158.811
X103.875Y-142.306
X103.875Y-143.106
X103.875Y-143.906
X103.875Y-144.706
X103.875Y-145.506
X104.375Y-147.156
X104.375Y-148.756
X104.375Y-150.356
X104.525Y-154.0
X104.525Y-154.8
X104.525Y-155.6
X104.525Y-156.401
X104.525Y-157.211
X104.525Y-158.011
X104.525Y-158.811
X104.675Y-142.306
X104.675Y-143.106
X104.675Y-143.906
X104.675Y-144.706
X104.675Y-145.506
X105.175Y-147.956
X105.175Y-149.556
X105.325Y-154.0
X105.325Y-154.8
X105.325Y-158.011
X105.325Y-158.811
X105.475Y-142.306
X105.475Y-143.106
X105.475Y-143.906
X105.475Y-144.706
X105.475Y-145.506
X105.975Y-147.156
X105.975Y-148.756
X105.975Y-150.356
X106.125Y-154.0
X106.125Y-158.811
X106.275Y-142.306
X106.275Y-143.106
X106.275Y-143.906
X106.275Y-144.706
X106.275Y-145.506
X106.775Y-147.956
X106.775Y-149.556
X107.075Y-143.106
X107.075Y-143.906
X107.075Y-144.706
X107.075Y-145.506
X107.575Y-147.156
X107.575Y-148.756
X107.575Y-150.356
X107.875Y-143.906
X107.875Y-144.706
X107.875Y-145.506
X111.175Y-149.309
X111.175Y-150.909
X111.175Y-152.509
X111.883Y-135.241
X111.883Y-136.841
X111.883Y-134.441
X111.883Y-136.041
X111.883Y-137.641
X111.975Y-150.109
X111.975Y-151.709
X112.525Y-154.0
X112.525Y-158.811
X112.683Y-135.241
X112.683Y-134.441
X112.683Y-136.041
X112.683Y-136.841
X112.683Y-137.641
X112.775Y-149.309
X112.775Y-150.909
X112.775Y-152.509
X113.325Y-154.0
X113.325Y-154.8
X113.325Y-158.011
X113.325Y-158.811
X113.483Y-134.441
X113.483Y-136.041
X113.483Y-135.241
X113.483Y-136.841
X113.483Y-137.641
X113.575Y-150.109
X113.575Y-151.709
X114.125Y-154.0
X114.125Y-154.8
X114.125Y-155.6
X114.125Y-156.401
X114.125Y-157.211
X114.125Y-158.011
X114.125Y-158.811
X114.283Y-134.441
X114.283Y-136.041
X114.283Y-137.641
X114.283Y-135.241
X114.283Y-136.841
X114.375Y-149.309
X114.375Y-150.909
X114.375Y-152.509
X114.925Y-154.0
X114.925Y-154.8
X114.925Y-155.6
X114.925Y-156.4
X114.925Y-157.211
X114.925Y-158.011
X114.925Y-158.811
X115.083Y-134.441
X115.083Y-135.241
X115.083Y-136.841
X115.083Y-137.641
X115.083Y-136.041
X115.883Y-136.041
X115.883Y-134.441
X115.883Y-136.841
X115.883Y-137.641
X115.883Y-135.241
X117.345Y-142.341
X117.345Y-143.141
X117.345Y-143.941
X117.995Y-154.011
X117.995Y-154.811
X117.995Y-155.611
X117.995Y-156.421
X117.995Y-157.221
X117.995Y-158.021
X117.995Y-158.821
X118.145Y-142.316
X118.145Y-143.116
X118.145Y-143.916
X118.145Y-144.716
X118.145Y-145.516
X118.645Y-147.166
X118.645Y-148.766
X118.645Y-150.366
X118.725Y-102.425
X118.75Y-100.875
X118.795Y-154.011
X118.795Y-154.811
X118.795Y-155.611
X118.795Y-156.412
X118.795Y-157.221
X118.795Y-158.021
X118.795Y-158.821
X118.945Y-142.316
X118.945Y-143.116
X118.945Y-143.916
X118.945Y-144.716
X118.945Y-145.516
X119.445Y-147.966
X119.445Y-149.566
X119.595Y-154.011
X119.595Y-154.811
X119.595Y-158.021
X119.595Y-158.821
X119.745Y-142.316
X119.745Y-143.116
X119.745Y-143.916
X119.745Y-144.716
X119.745Y-145.516
X120.245Y-147.166
X120.245Y-148.766
X120.245Y-150.366
X120.395Y-154.011
X120.395Y-158.821
X120.545Y-142.316
X120.545Y-143.116
X120.545Y-143.916
X120.545Y-144.716
X120.545Y-145.516
X121.045Y-147.966
X121.045Y-149.566
X121.345Y-143.116
X121.345Y-143.916
X121.345Y-144.716
X121.345Y-145.516
X121.845Y-147.166
X121.845Y-148.766
X121.845Y-150.366
X122.145Y-143.916
X122.145Y-144.716
X122.145Y-145.516
X125.445Y-149.319
X125.445Y-150.919
X125.445Y-152.519
X126.175Y-135.261
X126.175Y-134.461
X126.183Y-136.867
X126.183Y-136.067
X126.183Y-137.667
X126.245Y-150.119
X126.245Y-151.719
X126.4Y-113.775
X126.795Y-154.011
X126.795Y-158.821
X126.975Y-134.461
X126.983Y-135.267
X126.983Y-136.067
X126.983Y-136.867
X126.983Y-137.667
X127.045Y-149.319
X127.045Y-150.919
X127.045Y-152.519
X127.595Y-154.011
X127.595Y-154.811
X127.595Y-158.021
X127.595Y-158.821
X127.783Y-134.467
X127.783Y-136.067
X127.783Y-135.267
X127.783Y-136.867
X127.783Y-137.667
X127.845Y-150.119
X127.845Y-151.719
X128.395Y-154.011
X128.395Y-154.811
X128.395Y-155.611
X128.395Y-156.412
X128.395Y-157.221
X128.395Y-158.021
X128.395Y-158.821
X128.583Y-134.467
X128.583Y-136.067
X128.583Y-137.667
X128.583Y-135.267
X128.583Y-136.867
X128.645Y-149.319
X128.645Y-150.919
X128.645Y-152.519
X129.195Y-154.011
X129.195Y-154.811
X129.195Y-155.611
X129.195Y-156.411
X129.195Y-157.221
X129.195Y-158.021
X129.195Y-158.821
X129.383Y-134.467
X129.383Y-135.267
X129.383Y-136.867
X129.383Y-137.667
X129.383Y-136.067
X130.183Y-136.067
X130.183Y-134.467
X130.183Y-136.867
X130.183Y-137.667
X130.183Y-135.267
X131.575Y-142.336
X131.575Y-143.136
X131.575Y-143.936
X132.225Y-154.005
X132.225Y-154.805
X132.225Y-155.605
X132.225Y-156.416
X132.225Y-157.216
X132.225Y-158.016
X132.225Y-158.816
X132.375Y-142.311
X132.375Y-143.111
X132.375Y-143.911
X132.375Y-144.711
X132.375Y-145.511
X132.875Y-147.161
X132.875Y-148.761
X132.875Y-150.361
X133.025Y-154.005
X133.025Y-154.805
X133.025Y-155.605
X133.025Y-156.416
X133.025Y-157.216
X133.025Y-158.016
X133.025Y-158.816
X133.175Y-142.311
X133.175Y-143.111
X133.175Y-143.911
X133.175Y-144.711
X133.175Y-145.511
X133.675Y-147.961
X133.675Y-149.561
X133.825Y-154.005
X133.825Y-154.805
X133.825Y-158.016
X133.825Y-158.816
X133.975Y-142.311
X133.975Y-143.111
X133.975Y-143.911
X133.975Y-144.711
X133.975Y-145.511
X134.475Y-147.161
X134.475Y-148.761
X134.475Y-150.361
X134.625Y-154.005
X134.625Y-158.816
X134.775Y-142.311
X134.775Y-143.111
X134.775Y-143.911
X134.775Y-144.711
X134.775Y-145.511
X135.275Y-147.961
X135.275Y-149.561
X135.5Y-112.85
X135.575Y-143.111
X135.575Y-143.911
X135.575Y-144.711
X135.575Y-145.511
X136.075Y-147.161
X136.075Y-148.761
X136.075Y-150.361
X136.375Y-143.911
X136.375Y-144.711
X136.375Y-145.511
X137.05Y-113.225
X139.675Y-149.313
X139.675Y-150.913
X139.675Y-152.513
X140.15Y-135.275
X140.15Y-133.675
X140.15Y-134.475
X140.15Y-136.075
X140.15Y-136.875
X140.15Y-137.686
X140.475Y-150.113
X140.475Y-151.713
X140.95Y-134.475
X140.95Y-136.075
X140.95Y-133.675
X140.95Y-135.275
X140.95Y-136.875
X140.95Y-137.686
X141.025Y-154.005
X141.025Y-158.816
X141.275Y-149.313
X141.275Y-150.913
X141.275Y-152.513
X141.75Y-133.675
X141.75Y-134.475
X141.75Y-136.075
X141.75Y-137.686
X141.75Y-135.275
X141.75Y-136.875
X141.825Y-154.005
X141.825Y-154.805
X141.825Y-158.016
X141.825Y-158.816
X142.075Y-150.113
X142.075Y-151.713
X142.55Y-133.675
X142.55Y-134.475
X142.55Y-135.275
X142.55Y-136.875
X142.55Y-137.686
X142.55Y-136.075
X142.625Y-154.005
X142.625Y-154.805
X142.625Y-155.605
X142.625Y-156.405
X142.625Y-157.216
X142.625Y-158.016
X142.625Y-158.816
X142.875Y-149.313
X142.875Y-150.913
X142.875Y-152.513
X143.35Y-136.075
X143.35Y-133.675
X143.35Y-134.475
X143.35Y-136.875
X143.35Y-137.686
X143.35Y-135.275
X143.425Y-154.005
X143.425Y-154.805
X143.425Y-155.605
X143.425Y-156.405
X143.425Y-157.216
X143.425Y-158.016
X143.425Y-158.816
T5
X108.71Y-97.25
X108.71Y-98.52
X109.98Y-97.25
X109.98Y-98.52
X111.25Y-97.25
X111.25Y-98.52
X112.52Y-97.25
X112.52Y-98.52
X113.79Y-97.25
X113.79Y-98.52
T6
X111.498Y-106.775
X112.7Y-105.573
X112.7Y-107.977
X113.902Y-106.775
T7
X154.025Y-117.175
X154.025Y-119.175
X154.025Y-121.175
X154.025Y-126.2
X154.025Y-128.2
X154.025Y-130.2
T9
X137.8Y-96.81
X137.8Y-99.35
X140.34Y-96.81
X140.34Y-99.35
X142.88Y-96.81
X142.88Y-99.35
X145.2Y-122.375
X145.42Y-96.81
X145.42Y-99.35
X155.65Y-105.3
X155.65Y-107.84
X155.65Y-110.38
X155.65Y-112.92
X158.19Y-105.3
X158.19Y-107.84
X158.19Y-110.38
X158.19Y-112.92
T10
X146.5Y-137.025
X146.5Y-144.225
T11
X109.375Y-156.55
X123.645Y-156.561
X137.875Y-156.555
T12
X98.75Y-98.75
X98.75Y-155.25
X155.25Y-98.75
X155.25Y-155.25
T8
X153.0Y-133.875G85X152.0Y-133.875
G05
X153.0Y-147.375G85X152.0Y-147.375
G05
T0
M30
