%TF.GenerationSoftware,KiCad,Pcbnew,(5.99.0-10830-g25678ee00d)*%
%TF.CreationDate,2021-08-24T11:38:22+02:00*%
%TF.ProjectId,OpenTurn,4f70656e-5475-4726-9e2e-6b696361645f,rev?*%
%TF.SameCoordinates,Original*%
%TF.FileFunction,Soldermask,Top*%
%TF.FilePolarity,Negative*%
%FSLAX46Y46*%
G04 Gerber Fmt 4.6, Leading zero omitted, Abs format (unit mm)*
G04 Created by KiCad (PCBNEW (5.99.0-10830-g25678ee00d)) date 2021-08-24 11:38:22*
%MOMM*%
%LPD*%
G01*
G04 APERTURE LIST*
G04 Aperture macros list*
%AMRoundRect*
0 Rectangle with rounded corners*
0 $1 Rounding radius*
0 $2 $3 $4 $5 $6 $7 $8 $9 X,Y pos of 4 corners*
0 Add a 4 corners polygon primitive as box body*
4,1,4,$2,$3,$4,$5,$6,$7,$8,$9,$2,$3,0*
0 Add four circle primitives for the rounded corners*
1,1,$1+$1,$2,$3*
1,1,$1+$1,$4,$5*
1,1,$1+$1,$6,$7*
1,1,$1+$1,$8,$9*
0 Add four rect primitives between the rounded corners*
20,1,$1+$1,$2,$3,$4,$5,0*
20,1,$1+$1,$4,$5,$6,$7,0*
20,1,$1+$1,$6,$7,$8,$9,0*
20,1,$1+$1,$8,$9,$2,$3,0*%
%AMHorizOval*
0 Thick line with rounded ends*
0 $1 width*
0 $2 $3 position (X,Y) of the first rounded end (center of the circle)*
0 $4 $5 position (X,Y) of the second rounded end (center of the circle)*
0 Add line between two ends*
20,1,$1,$2,$3,$4,$5,0*
0 Add two circle primitives to create the rounded ends*
1,1,$1,$2,$3*
1,1,$1,$4,$5*%
%AMFreePoly0*
4,1,17,2.675000,1.605000,1.875000,1.605000,1.875000,0.935000,2.675000,0.935000,2.675000,0.335000,1.875000,0.335000,1.875000,-0.335000,2.675000,-0.335000,2.675000,-0.935000,1.875000,-0.935000,1.875000,-1.605000,2.675000,-1.605000,2.675000,-2.205000,-1.875000,-2.205000,-1.875000,2.205000,2.675000,2.205000,2.675000,1.605000,2.675000,1.605000,$1*%
%AMFreePoly1*
4,1,14,0.535355,0.535355,1.035355,0.035355,1.050000,0.000000,1.035355,-0.035355,0.535355,-0.535355,0.500000,-0.550000,-0.500000,-0.550000,-0.535355,-0.535355,-0.550000,-0.500000,-0.550000,0.500000,-0.535355,0.535355,-0.500000,0.550000,0.500000,0.550000,0.535355,0.535355,0.535355,0.535355,$1*%
%AMFreePoly2*
4,1,16,0.535355,0.535355,0.550000,0.500000,0.550000,-0.500000,0.535355,-0.535355,0.500000,-0.550000,-0.650000,-0.550000,-0.685355,-0.535355,-0.700000,-0.500000,-0.685355,-0.464645,-0.220710,0.000000,-0.685355,0.464645,-0.700000,0.500000,-0.685355,0.535355,-0.650000,0.550000,0.500000,0.550000,0.535355,0.535355,0.535355,0.535355,$1*%
G04 Aperture macros list end*
%ADD10C,0.100000*%
%TA.AperFunction,Profile*%
%ADD11C,0.050000*%
%TD*%
%ADD12RoundRect,0.225000X-0.225000X-0.300000X0.225000X-0.300000X0.225000X0.300000X-0.225000X0.300000X0*%
%ADD13RoundRect,0.250000X-0.275000X0.250000X-0.275000X-0.250000X0.275000X-0.250000X0.275000X0.250000X0*%
%ADD14RoundRect,0.250000X-0.250000X-0.275000X0.250000X-0.275000X0.250000X0.275000X-0.250000X0.275000X0*%
%ADD15R,4.400000X4.400000*%
%ADD16RoundRect,0.050000X0.750000X0.150000X-0.750000X0.150000X-0.750000X-0.150000X0.750000X-0.150000X0*%
%ADD17RoundRect,0.050000X-0.150000X0.750000X-0.150000X-0.750000X0.150000X-0.750000X0.150000X0.750000X0*%
%ADD18RoundRect,0.270833X0.654167X-0.379167X0.654167X0.379167X-0.654167X0.379167X-0.654167X-0.379167X0*%
%ADD19O,1.850000X1.300000*%
%ADD20RoundRect,0.050000X-0.500000X0.500000X-0.500000X-0.500000X0.500000X-0.500000X0.500000X0.500000X0*%
%ADD21O,1.100000X1.100000*%
%ADD22RoundRect,0.270408X-1.454592X0.392092X-1.454592X-0.392092X1.454592X-0.392092X1.454592X0.392092X0*%
%ADD23FreePoly0,270.000000*%
%ADD24RoundRect,0.050000X-0.250000X0.425000X-0.250000X-0.425000X0.250000X-0.425000X0.250000X0.425000X0*%
%ADD25RoundRect,0.250000X0.275000X-0.250000X0.275000X0.250000X-0.275000X0.250000X-0.275000X-0.250000X0*%
%ADD26RoundRect,0.225000X0.300000X-0.225000X0.300000X0.225000X-0.300000X0.225000X-0.300000X-0.225000X0*%
%ADD27RoundRect,0.225000X0.371231X0.053033X0.053033X0.371231X-0.371231X-0.053033X-0.053033X-0.371231X0*%
%ADD28FreePoly0,90.000000*%
%ADD29RoundRect,0.050000X0.250000X-0.425000X0.250000X0.425000X-0.250000X0.425000X-0.250000X-0.425000X0*%
%ADD30C,2.000000*%
%ADD31RoundRect,0.050000X0.850000X-0.850000X0.850000X0.850000X-0.850000X0.850000X-0.850000X-0.850000X0*%
%ADD32O,1.800000X1.800000*%
%ADD33RoundRect,0.165000X0.195000X-0.165000X0.195000X0.165000X-0.195000X0.165000X-0.195000X-0.165000X0*%
%ADD34RoundRect,0.271739X-0.353261X-1.128261X0.353261X-1.128261X0.353261X1.128261X-0.353261X1.128261X0*%
%ADD35RoundRect,0.050000X-0.850000X-0.850000X0.850000X-0.850000X0.850000X0.850000X-0.850000X0.850000X0*%
%ADD36C,1.600000*%
%ADD37RoundRect,0.243750X-0.243750X-0.281250X0.243750X-0.281250X0.243750X0.281250X-0.243750X0.281250X0*%
%ADD38RoundRect,0.275000X0.500000X-0.275000X0.500000X0.275000X-0.500000X0.275000X-0.500000X-0.275000X0*%
%ADD39RoundRect,0.050000X0.750000X2.000000X-0.750000X2.000000X-0.750000X-2.000000X0.750000X-2.000000X0*%
%ADD40RoundRect,0.243750X0.281250X-0.243750X0.281250X0.243750X-0.281250X0.243750X-0.281250X-0.243750X0*%
%ADD41RoundRect,0.250000X0.250000X0.275000X-0.250000X0.275000X-0.250000X-0.275000X0.250000X-0.275000X0*%
%ADD42RoundRect,0.225000X-0.300000X0.225000X-0.300000X-0.225000X0.300000X-0.225000X0.300000X0.225000X0*%
%ADD43RoundRect,0.165000X0.165000X0.195000X-0.165000X0.195000X-0.165000X-0.195000X0.165000X-0.195000X0*%
%ADD44C,5.700000*%
%ADD45HorizOval,1.100000X0.000000X0.000000X0.000000X0.000000X0*%
%ADD46RoundRect,0.175000X-0.175000X0.850000X-0.175000X-0.850000X0.175000X-0.850000X0.175000X0.850000X0*%
%ADD47FreePoly1,90.000000*%
%ADD48FreePoly2,90.000000*%
%ADD49RoundRect,0.050000X-0.350000X0.300000X-0.350000X-0.300000X0.350000X-0.300000X0.350000X0.300000X0*%
%ADD50RoundRect,0.050000X0.575000X0.500000X-0.575000X0.500000X-0.575000X-0.500000X0.575000X-0.500000X0*%
%ADD51RoundRect,0.087500X-0.087500X0.400000X-0.087500X-0.400000X0.087500X-0.400000X0.087500X0.400000X0*%
%ADD52RoundRect,0.087500X-0.400000X0.087500X-0.400000X-0.087500X0.400000X-0.087500X0.400000X0.087500X0*%
%ADD53RoundRect,0.050000X-2.050000X2.050000X-2.050000X-2.050000X2.050000X-2.050000X2.050000X2.050000X0*%
%ADD54RoundRect,0.165000X-0.165000X-0.195000X0.165000X-0.195000X0.165000X0.195000X-0.165000X0.195000X0*%
%ADD55RoundRect,0.175000X-0.175000X0.612500X-0.175000X-0.612500X0.175000X-0.612500X0.175000X0.612500X0*%
%ADD56RoundRect,0.243750X0.243750X0.281250X-0.243750X0.281250X-0.243750X-0.281250X0.243750X-0.281250X0*%
%ADD57O,2.900000X1.700000*%
%ADD58C,4.100000*%
%ADD59C,4.900000*%
G04 APERTURE END LIST*
D10*
X148024999Y-150475000D02*
X150325000Y-150475000D01*
X150325000Y-150475000D02*
X150325000Y-159975000D01*
X150325000Y-159975000D02*
X148024999Y-159975000D01*
X148024999Y-159975000D02*
X148024999Y-150475000D01*
G36*
X150325000Y-159975000D02*
G01*
X148024999Y-159975000D01*
X148024999Y-150475000D01*
X150325000Y-150475000D01*
X150325000Y-159975000D01*
G37*
X150325000Y-159975000D02*
X148024999Y-159975000D01*
X148024999Y-150475000D01*
X150325000Y-150475000D01*
X150325000Y-159975000D01*
D11*
X94000000Y-157000000D02*
X93999999Y-97000000D01*
X156999999Y-94000000D02*
X96999999Y-94000000D01*
X139200002Y-129125000D02*
X138874998Y-129125000D01*
X143950000Y-129150000D02*
X142925000Y-128125000D01*
X142199998Y-129125000D02*
X142525000Y-129125000D01*
X156999999Y-94000000D02*
X160000000Y-97000000D01*
X142925000Y-128125000D02*
X142200002Y-128125000D01*
X138874998Y-129125000D02*
X138449998Y-129550000D01*
X96999999Y-94000000D02*
X93999999Y-97000000D01*
X139199998Y-128125000D02*
G75*
G02*
X139200002Y-129125000I2J-500000D01*
G01*
X160000000Y-157000000D02*
X160000000Y-97000000D01*
X138474998Y-128125000D02*
X139199998Y-128125000D01*
X97000000Y-160000000D02*
X94000000Y-157000000D01*
X138450000Y-132275000D02*
G75*
G02*
X137450000Y-132275000I-500000J0D01*
G01*
X137450000Y-132275000D02*
X137449998Y-129150000D01*
X142950000Y-132250000D02*
X142950000Y-129550000D01*
X97000000Y-160000000D02*
X157000000Y-160000000D01*
X142525000Y-129125000D02*
X142950000Y-129550000D01*
X142200002Y-128125000D02*
G75*
G03*
X142199998Y-129125000I-2J-500000D01*
G01*
X142950000Y-132250000D02*
G75*
G03*
X143950000Y-132250000I500000J0D01*
G01*
X137449998Y-129150000D02*
X138474998Y-128125000D01*
X138450000Y-132275000D02*
X138449998Y-129550000D01*
X143950000Y-132250000D02*
X143950000Y-129150000D01*
X157000000Y-160000000D02*
X160000000Y-157000000D01*
D12*
X117317498Y-117525000D03*
X118967498Y-117525000D03*
X117317499Y-120734826D03*
X118967499Y-120734826D03*
X117317499Y-119125002D03*
X118967499Y-119125002D03*
D13*
X117730000Y-114305000D03*
X117730000Y-115855000D03*
X137044998Y-114300003D03*
X137044998Y-115850003D03*
X119824999Y-100874998D03*
X119824999Y-102424998D03*
X135574999Y-114299999D03*
X135574999Y-115849999D03*
D14*
X120342499Y-119125002D03*
X121892499Y-119125002D03*
D13*
X119199997Y-114305000D03*
X119199997Y-115855000D03*
D14*
X120342498Y-120734826D03*
X121892498Y-120734826D03*
D13*
X121300000Y-100875000D03*
X121300000Y-102425000D03*
X114750001Y-114305000D03*
X114750001Y-115855000D03*
D14*
X131399998Y-121000004D03*
X132949998Y-121000004D03*
D13*
X134799994Y-118020168D03*
X134799994Y-119570168D03*
D14*
X120342499Y-117525000D03*
X121892499Y-117525000D03*
X99525000Y-125025000D03*
X101075000Y-125025000D03*
D15*
X126649999Y-109850000D03*
D16*
X132349999Y-113600000D03*
X132349999Y-113100000D03*
X132349999Y-112600000D03*
X132349999Y-112100000D03*
X132349999Y-111600000D03*
X132349999Y-111100000D03*
X132349999Y-110600000D03*
X132349999Y-110100000D03*
X132349999Y-109600000D03*
X132349999Y-109100000D03*
X132349999Y-108600000D03*
X132349999Y-108100000D03*
X132349999Y-107600000D03*
X132349999Y-107100000D03*
X132349999Y-106600000D03*
X132349999Y-106100000D03*
D17*
X130399999Y-104150000D03*
X129899999Y-104150000D03*
X129399999Y-104150000D03*
X128899999Y-104150000D03*
X128399999Y-104150000D03*
X127899999Y-104150000D03*
X127399999Y-104150000D03*
X126899999Y-104150000D03*
X126399999Y-104150000D03*
X125899999Y-104150000D03*
X125399999Y-104150000D03*
X124899999Y-104150000D03*
X124399999Y-104150000D03*
X123899999Y-104150000D03*
X123399999Y-104150000D03*
X122899999Y-104150000D03*
D16*
X120949999Y-106100000D03*
X120949999Y-106600000D03*
X120949999Y-107100000D03*
X120949999Y-107600000D03*
X120949999Y-108100000D03*
X120949999Y-108600000D03*
X120949999Y-109100000D03*
X120949999Y-109600000D03*
X120949999Y-110100000D03*
X120949999Y-110600000D03*
X120949999Y-111100000D03*
X120949999Y-111600000D03*
X120949999Y-112100000D03*
X120949999Y-112600000D03*
X120949999Y-113100000D03*
X120949999Y-113600000D03*
D17*
X122899999Y-115550000D03*
X123399999Y-115550000D03*
X123899999Y-115550000D03*
X124399999Y-115550000D03*
X124899999Y-115550000D03*
X125399999Y-115550000D03*
X125899999Y-115550000D03*
X126399999Y-115550000D03*
X126899999Y-115550000D03*
X127399999Y-115550000D03*
X127899999Y-115550000D03*
X128399999Y-115550000D03*
X128899999Y-115550000D03*
X129399999Y-115550000D03*
X129899999Y-115550000D03*
X130399999Y-115550000D03*
D13*
X116230000Y-114305000D03*
X116230000Y-115855000D03*
X134099998Y-114300000D03*
X134099998Y-115850000D03*
D18*
X154025000Y-121175000D03*
D19*
X154025000Y-119175000D03*
X154025000Y-117175000D03*
D20*
X113790000Y-97250000D03*
D21*
X113790000Y-98520000D03*
X112520000Y-97250000D03*
X112520000Y-98520000D03*
X111250000Y-97250000D03*
X111250000Y-98520000D03*
X109980000Y-97250000D03*
X109980000Y-98520000D03*
X108710000Y-97250000D03*
X108710000Y-98520000D03*
D22*
X127869665Y-139133838D03*
X127869665Y-145058838D03*
X113600000Y-139123169D03*
X113600000Y-145048169D03*
D23*
X141275000Y-150555834D03*
D24*
X143180000Y-147005834D03*
X141910000Y-147005834D03*
X140640000Y-147005834D03*
X139370000Y-147005834D03*
D25*
X100450000Y-120400000D03*
X100450000Y-118850000D03*
D26*
X103650000Y-129687500D03*
X103650000Y-128037500D03*
D27*
X115908362Y-125120863D03*
X114741636Y-123954137D03*
D13*
X98250000Y-121975000D03*
X98250000Y-123525000D03*
D28*
X134475000Y-149255834D03*
D29*
X132570000Y-152805834D03*
X133840000Y-152805834D03*
X135110000Y-152805834D03*
X136380000Y-152805834D03*
D30*
X147225000Y-130525000D03*
D27*
X114635570Y-126393654D03*
X113468844Y-125226928D03*
D13*
X113280000Y-114305000D03*
X113280000Y-115855000D03*
D31*
X137800000Y-99350000D03*
D32*
X137800000Y-96810000D03*
X140340000Y-99350000D03*
X140340000Y-96810000D03*
X142880000Y-99350000D03*
X142880000Y-96810000D03*
X145420000Y-99350000D03*
X145420000Y-96810000D03*
D26*
X116550000Y-150910669D03*
X116550000Y-149260669D03*
D23*
X112775000Y-150550907D03*
D24*
X114680000Y-147000907D03*
X113410000Y-147000907D03*
X112140000Y-147000907D03*
X110870000Y-147000907D03*
D26*
X144975000Y-152825000D03*
X144975000Y-151175000D03*
D33*
X114400000Y-122542500D03*
X114400000Y-121582500D03*
D34*
X95875000Y-141025000D03*
X98825000Y-141025000D03*
D26*
X102500000Y-112925000D03*
X102500000Y-111275000D03*
D35*
X145200000Y-122375000D03*
D34*
X95875000Y-147425000D03*
X98825000Y-147425000D03*
D25*
X130725000Y-147910669D03*
X130725000Y-146360669D03*
D36*
X142125000Y-112625000D03*
D37*
X104412500Y-104875000D03*
X105987500Y-104875000D03*
D38*
X98716346Y-120500000D03*
X98716346Y-118600000D03*
D39*
X99400000Y-115050000D03*
X95800000Y-115050000D03*
D40*
X134690000Y-96567500D03*
X134690000Y-94992500D03*
D41*
X142475000Y-127000000D03*
X140925000Y-127000000D03*
D22*
X142000000Y-139073169D03*
X142000000Y-144998169D03*
D36*
X142125000Y-115125000D03*
D42*
X145800000Y-112900000D03*
X145800000Y-114550000D03*
D12*
X95325000Y-110098505D03*
X96975000Y-110098505D03*
D28*
X105975000Y-149250907D03*
D29*
X104070000Y-152800907D03*
X105340000Y-152800907D03*
X106610000Y-152800907D03*
X107880000Y-152800907D03*
D43*
X109609999Y-127362500D03*
X108649999Y-127362500D03*
D44*
X98750000Y-98750000D03*
D45*
X112700000Y-105572918D03*
X111497918Y-106775000D03*
X113902082Y-106775000D03*
X112700000Y-107977082D03*
D44*
X155250000Y-98750000D03*
D25*
X116550000Y-147885669D03*
X116550000Y-146335669D03*
D46*
X151180000Y-109600000D03*
X149910000Y-109600000D03*
X148640000Y-109600000D03*
X147370000Y-109600000D03*
X147370000Y-114550000D03*
X148640000Y-114550000D03*
X149910000Y-114550000D03*
X151180000Y-114550000D03*
D36*
X142125000Y-117625000D03*
D12*
X95350000Y-106798505D03*
X97000000Y-106798505D03*
D47*
X148275000Y-118700000D03*
D48*
X148275000Y-117250000D03*
D49*
X104050000Y-112795482D03*
X104050000Y-111395482D03*
D50*
X133149996Y-118025000D03*
X131399996Y-118025000D03*
X131399996Y-119425000D03*
X133149996Y-119425000D03*
D51*
X110950000Y-117725000D03*
X110450000Y-117725000D03*
X109950000Y-117725000D03*
X109450000Y-117725000D03*
X108950000Y-117725000D03*
X108450000Y-117725000D03*
X107950000Y-117725000D03*
X107450000Y-117725000D03*
X106950000Y-117725000D03*
X106450000Y-117725000D03*
X105950000Y-117725000D03*
X105450000Y-117725000D03*
D52*
X104762500Y-118412500D03*
X104762500Y-118912500D03*
X104762500Y-119412500D03*
X104762500Y-119912500D03*
X104762500Y-120412500D03*
X104762500Y-120912500D03*
X104762500Y-121412500D03*
X104762500Y-121912500D03*
X104762500Y-122412500D03*
X104762500Y-122912500D03*
X104762500Y-123412500D03*
X104762500Y-123912500D03*
D51*
X105450000Y-124600000D03*
X105950000Y-124600000D03*
X106450000Y-124600000D03*
X106950000Y-124600000D03*
X107450000Y-124600000D03*
X107950000Y-124600000D03*
X108450000Y-124600000D03*
X108950000Y-124600000D03*
X109450000Y-124600000D03*
X109950000Y-124600000D03*
X110450000Y-124600000D03*
X110950000Y-124600000D03*
D52*
X111637500Y-123912500D03*
X111637500Y-123412500D03*
X111637500Y-122912500D03*
X111637500Y-122412500D03*
X111637500Y-121912500D03*
X111637500Y-121412500D03*
X111637500Y-120912500D03*
X111637500Y-120412500D03*
X111637500Y-119912500D03*
X111637500Y-119412500D03*
X111637500Y-118912500D03*
X111637500Y-118412500D03*
D53*
X108200000Y-121162500D03*
D42*
X131620000Y-94975000D03*
X131620000Y-96625000D03*
D14*
X148500000Y-107550000D03*
X150050000Y-107550000D03*
D36*
X148400000Y-103225000D03*
X123925000Y-95625000D03*
D54*
X106794999Y-127362500D03*
X107754999Y-127362500D03*
D55*
X141550000Y-130112500D03*
X139650000Y-130112500D03*
X140600000Y-131987500D03*
D26*
X112724998Y-129687500D03*
X112724998Y-128037500D03*
D40*
X129970000Y-96579999D03*
X129970000Y-95004999D03*
D25*
X144975000Y-149800000D03*
X144975000Y-148250000D03*
D38*
X96741346Y-120500000D03*
X96741346Y-118600000D03*
D56*
X96962500Y-105148505D03*
X95387500Y-105148505D03*
D47*
X150275000Y-118700000D03*
D48*
X150275000Y-117250000D03*
D57*
X152500000Y-133875000D03*
X152500000Y-147375000D03*
D58*
X146500000Y-137025000D03*
X146500000Y-144225000D03*
D35*
X155650000Y-105300000D03*
D32*
X158190000Y-105300000D03*
X155650000Y-107840000D03*
X158190000Y-107840000D03*
X155650000Y-110380000D03*
X158190000Y-110380000D03*
X155650000Y-112920000D03*
X158190000Y-112920000D03*
D30*
X127000000Y-98000000D03*
D59*
X137875000Y-156554927D03*
X123644665Y-156560669D03*
D34*
X95875000Y-144225000D03*
X98825000Y-144225000D03*
D26*
X105450000Y-129687500D03*
X105450000Y-128037500D03*
D56*
X96962500Y-108423505D03*
X95387500Y-108423505D03*
D23*
X127044665Y-150561576D03*
D24*
X128949665Y-147011576D03*
X127679665Y-147011576D03*
X126409665Y-147011576D03*
X125139665Y-147011576D03*
D42*
X133100000Y-94975000D03*
X133100000Y-96625000D03*
D26*
X130725000Y-150935669D03*
X130725000Y-149285669D03*
D34*
X95875000Y-137825000D03*
X98825000Y-137825000D03*
D44*
X98750000Y-155250000D03*
D36*
X145900000Y-103225000D03*
D59*
X109375000Y-156550000D03*
D30*
X98000000Y-127000000D03*
D18*
X154025000Y-130200000D03*
D19*
X154025000Y-128200000D03*
X154025000Y-126200000D03*
D44*
X155250000Y-155250000D03*
D34*
X95875000Y-134625000D03*
X98825000Y-134625000D03*
D28*
X120244665Y-149261576D03*
D29*
X118339665Y-152811576D03*
X119609665Y-152811576D03*
X120879665Y-152811576D03*
X122149665Y-152811576D03*
D26*
X110925000Y-129687500D03*
X110925000Y-128037500D03*
D36*
X142125000Y-110125000D03*
D37*
X104412500Y-107875000D03*
X105987500Y-107875000D03*
M02*
