%TF.GenerationSoftware,KiCad,Pcbnew,(5.99.0-10830-g25678ee00d)*%
%TF.CreationDate,2021-08-24T11:38:22+02:00*%
%TF.ProjectId,OpenTurn,4f70656e-5475-4726-9e2e-6b696361645f,rev?*%
%TF.SameCoordinates,Original*%
%TF.FileFunction,Paste,Bot*%
%TF.FilePolarity,Positive*%
%FSLAX46Y46*%
G04 Gerber Fmt 4.6, Leading zero omitted, Abs format (unit mm)*
G04 Created by KiCad (PCBNEW (5.99.0-10830-g25678ee00d)) date 2021-08-24 11:38:22*
%MOMM*%
%LPD*%
G01*
G04 APERTURE LIST*
G04 Aperture macros list*
%AMRoundRect*
0 Rectangle with rounded corners*
0 $1 Rounding radius*
0 $2 $3 $4 $5 $6 $7 $8 $9 X,Y pos of 4 corners*
0 Add a 4 corners polygon primitive as box body*
4,1,4,$2,$3,$4,$5,$6,$7,$8,$9,$2,$3,0*
0 Add four circle primitives for the rounded corners*
1,1,$1+$1,$2,$3*
1,1,$1+$1,$4,$5*
1,1,$1+$1,$6,$7*
1,1,$1+$1,$8,$9*
0 Add four rect primitives between the rounded corners*
20,1,$1+$1,$2,$3,$4,$5,0*
20,1,$1+$1,$4,$5,$6,$7,0*
20,1,$1+$1,$6,$7,$8,$9,0*
20,1,$1+$1,$8,$9,$2,$3,0*%
G04 Aperture macros list end*
%TA.AperFunction,Profile*%
%ADD10C,0.050000*%
%TD*%
%ADD11RoundRect,0.175000X-0.250000X0.175000X-0.250000X-0.175000X0.250000X-0.175000X0.250000X0.175000X0*%
%ADD12RoundRect,0.200000X0.225000X-0.200000X0.225000X0.200000X-0.225000X0.200000X-0.225000X-0.200000X0*%
%ADD13RoundRect,0.225000X-0.450000X0.225000X-0.450000X-0.225000X0.450000X-0.225000X0.450000X0.225000X0*%
%ADD14RoundRect,0.200000X-0.225000X0.200000X-0.225000X-0.200000X0.225000X-0.200000X0.225000X0.200000X0*%
%ADD15RoundRect,0.125000X0.800000X0.125000X-0.800000X0.125000X-0.800000X-0.125000X0.800000X-0.125000X0*%
%ADD16RoundRect,0.228261X1.071739X-0.296739X1.071739X0.296739X-1.071739X0.296739X-1.071739X-0.296739X0*%
%ADD17RoundRect,0.228261X-0.296739X-1.071739X0.296739X-1.071739X0.296739X1.071739X-0.296739X1.071739X0*%
%ADD18RoundRect,0.175000X0.250000X-0.175000X0.250000X0.175000X-0.250000X0.175000X-0.250000X-0.175000X0*%
%ADD19RoundRect,0.228261X0.296739X1.071739X-0.296739X1.071739X-0.296739X-1.071739X0.296739X-1.071739X0*%
%ADD20RoundRect,0.125000X-0.125000X0.562500X-0.125000X-0.562500X0.125000X-0.562500X0.125000X0.562500X0*%
%ADD21R,1.100000X0.800000*%
G04 APERTURE END LIST*
D10*
X94000000Y-157000000D02*
X93999999Y-97000000D01*
X156999999Y-94000000D02*
X96999999Y-94000000D01*
X139200002Y-129125000D02*
X138874998Y-129125000D01*
X143950000Y-129150000D02*
X142925000Y-128125000D01*
X142199998Y-129125000D02*
X142525000Y-129125000D01*
X156999999Y-94000000D02*
X160000000Y-97000000D01*
X142925000Y-128125000D02*
X142200002Y-128125000D01*
X138874998Y-129125000D02*
X138449998Y-129550000D01*
X96999999Y-94000000D02*
X93999999Y-97000000D01*
X139199998Y-128125000D02*
G75*
G02*
X139200002Y-129125000I2J-500000D01*
G01*
X160000000Y-157000000D02*
X160000000Y-97000000D01*
X138474998Y-128125000D02*
X139199998Y-128125000D01*
X97000000Y-160000000D02*
X94000000Y-157000000D01*
X138450000Y-132275000D02*
G75*
G02*
X137450000Y-132275000I-500000J0D01*
G01*
X137450000Y-132275000D02*
X137449998Y-129150000D01*
X142950000Y-132250000D02*
X142950000Y-129550000D01*
X97000000Y-160000000D02*
X157000000Y-160000000D01*
X142525000Y-129125000D02*
X142950000Y-129550000D01*
X142200002Y-128125000D02*
G75*
G03*
X142199998Y-129125000I-2J-500000D01*
G01*
X142950000Y-132250000D02*
G75*
G03*
X143950000Y-132250000I500000J0D01*
G01*
X137449998Y-129150000D02*
X138474998Y-128125000D01*
X138450000Y-132275000D02*
X138449998Y-129550000D01*
X143950000Y-132250000D02*
X143950000Y-129150000D01*
X157000000Y-160000000D02*
X160000000Y-157000000D01*
D11*
X116750000Y-105675000D03*
X116750000Y-107325000D03*
X118225000Y-105674999D03*
X118225000Y-107324999D03*
D12*
X133649998Y-112395169D03*
X133649998Y-110845169D03*
X128200004Y-115849999D03*
X128200004Y-114299999D03*
X129674999Y-115849999D03*
X129674999Y-114299999D03*
X98575000Y-123300000D03*
X98575000Y-121750000D03*
D13*
X100300000Y-116825000D03*
X100300000Y-118725000D03*
D14*
X130500000Y-105400000D03*
X130500000Y-106950000D03*
X131974998Y-105400000D03*
X131974998Y-106950000D03*
D12*
X100050000Y-123300000D03*
X100050000Y-121750000D03*
X132165000Y-112395169D03*
X132165000Y-110845169D03*
D15*
X129475000Y-125095000D03*
X129475000Y-126365000D03*
X129475000Y-127635000D03*
X129475000Y-128905000D03*
X124525000Y-128905000D03*
X124525000Y-127635000D03*
X124525000Y-126365000D03*
X124525000Y-125095000D03*
D12*
X149300000Y-113300000D03*
X149300000Y-111750000D03*
D16*
X129300000Y-141985669D03*
X129300000Y-139035669D03*
D17*
X155600000Y-134225000D03*
X158550000Y-134225000D03*
D16*
X122900000Y-141985669D03*
X122900000Y-139035669D03*
D14*
X108350000Y-116549999D03*
X108350000Y-118099999D03*
D11*
X116775000Y-150460669D03*
X116775000Y-152110669D03*
X131025000Y-150460669D03*
X131025000Y-152110669D03*
D16*
X126100000Y-141985669D03*
X126100000Y-139035669D03*
D14*
X102500000Y-147500000D03*
X102500000Y-149050000D03*
D17*
X95875000Y-137825000D03*
X98825000Y-137825000D03*
D12*
X122425000Y-127575000D03*
X122425000Y-126025000D03*
D18*
X135125000Y-109450000D03*
X135125000Y-107800000D03*
D11*
X100450000Y-110025000D03*
X100450000Y-111675000D03*
D18*
X101925000Y-114200000D03*
X101925000Y-112550000D03*
D11*
X98975000Y-110025000D03*
X98975000Y-111675000D03*
D14*
X133650000Y-107850000D03*
X133650000Y-109400000D03*
D11*
X102500000Y-150460669D03*
X102500000Y-152110669D03*
X109825000Y-116500000D03*
X109825000Y-118150000D03*
D12*
X147825000Y-113300001D03*
X147825000Y-111750001D03*
D17*
X95875000Y-141025000D03*
X98825000Y-141025000D03*
D14*
X116750000Y-147500000D03*
X116750000Y-149050000D03*
D19*
X153100000Y-139724999D03*
X150150000Y-139724999D03*
D16*
X115025000Y-141985669D03*
X115025000Y-139035669D03*
D14*
X104975000Y-116975000D03*
X104975000Y-118525000D03*
D20*
X148350000Y-120337500D03*
X150250000Y-120337500D03*
X149300000Y-122212500D03*
D17*
X95875000Y-147425000D03*
X98825000Y-147425000D03*
D16*
X140324999Y-141985669D03*
X140324999Y-139035669D03*
D17*
X95875000Y-144225000D03*
X98825000Y-144225000D03*
D19*
X153100000Y-142924999D03*
X150150000Y-142924999D03*
D16*
X143524999Y-141985669D03*
X143524999Y-139035669D03*
D18*
X148550000Y-116325000D03*
X148550000Y-114675000D03*
D17*
X95875000Y-134625000D03*
X98825000Y-134625000D03*
D14*
X131025000Y-147500000D03*
X131025000Y-149050000D03*
D17*
X155600000Y-137425000D03*
X158550000Y-137425000D03*
D18*
X139225000Y-107875000D03*
X139225000Y-106225000D03*
D14*
X103500000Y-116975000D03*
X103500000Y-118525000D03*
D21*
X111725000Y-116550000D03*
X111725000Y-119850000D03*
D17*
X155600000Y-143825000D03*
X158550000Y-143825000D03*
D12*
X150775000Y-113300001D03*
X150775000Y-111750001D03*
D16*
X111825000Y-141985669D03*
X111825000Y-139035669D03*
X108625000Y-141985669D03*
X108625000Y-139035669D03*
D18*
X150050000Y-116325000D03*
X150050000Y-114675000D03*
D17*
X155600000Y-140625000D03*
X158550000Y-140625000D03*
X155600000Y-147025000D03*
X158550000Y-147025000D03*
D19*
X153100000Y-136525000D03*
X150150000Y-136525000D03*
D16*
X137125000Y-141985669D03*
X137125000Y-139035669D03*
M02*
