%TF.GenerationSoftware,KiCad,Pcbnew,(5.99.0-10830-g25678ee00d)*%
%TF.CreationDate,2021-08-24T11:38:22+02:00*%
%TF.ProjectId,OpenTurn,4f70656e-5475-4726-9e2e-6b696361645f,rev?*%
%TF.SameCoordinates,Original*%
%TF.FileFunction,Soldermask,Bot*%
%TF.FilePolarity,Negative*%
%FSLAX46Y46*%
G04 Gerber Fmt 4.6, Leading zero omitted, Abs format (unit mm)*
G04 Created by KiCad (PCBNEW (5.99.0-10830-g25678ee00d)) date 2021-08-24 11:38:22*
%MOMM*%
%LPD*%
G01*
G04 APERTURE LIST*
G04 Aperture macros list*
%AMRoundRect*
0 Rectangle with rounded corners*
0 $1 Rounding radius*
0 $2 $3 $4 $5 $6 $7 $8 $9 X,Y pos of 4 corners*
0 Add a 4 corners polygon primitive as box body*
4,1,4,$2,$3,$4,$5,$6,$7,$8,$9,$2,$3,0*
0 Add four circle primitives for the rounded corners*
1,1,$1+$1,$2,$3*
1,1,$1+$1,$4,$5*
1,1,$1+$1,$6,$7*
1,1,$1+$1,$8,$9*
0 Add four rect primitives between the rounded corners*
20,1,$1+$1,$2,$3,$4,$5,0*
20,1,$1+$1,$4,$5,$6,$7,0*
20,1,$1+$1,$6,$7,$8,$9,0*
20,1,$1+$1,$8,$9,$2,$3,0*%
%AMHorizOval*
0 Thick line with rounded ends*
0 $1 width*
0 $2 $3 position (X,Y) of the first rounded end (center of the circle)*
0 $4 $5 position (X,Y) of the second rounded end (center of the circle)*
0 Add line between two ends*
20,1,$1,$2,$3,$4,$5,0*
0 Add two circle primitives to create the rounded ends*
1,1,$1,$2,$3*
1,1,$1,$4,$5*%
G04 Aperture macros list end*
%ADD10C,0.150000*%
%ADD11C,0.100000*%
%TA.AperFunction,Profile*%
%ADD12C,0.050000*%
%TD*%
%ADD13RoundRect,0.270833X0.654167X-0.379167X0.654167X0.379167X-0.654167X0.379167X-0.654167X-0.379167X0*%
%ADD14O,1.850000X1.300000*%
%ADD15RoundRect,0.050000X-0.500000X0.500000X-0.500000X-0.500000X0.500000X-0.500000X0.500000X0.500000X0*%
%ADD16O,1.100000X1.100000*%
%ADD17RoundRect,0.050000X0.850000X-0.850000X0.850000X0.850000X-0.850000X0.850000X-0.850000X-0.850000X0*%
%ADD18O,1.800000X1.800000*%
%ADD19RoundRect,0.050000X-0.850000X-0.850000X0.850000X-0.850000X0.850000X0.850000X-0.850000X0.850000X0*%
%ADD20C,5.700000*%
%ADD21HorizOval,1.100000X0.000000X0.000000X0.000000X0.000000X0*%
%ADD22O,2.900000X1.700000*%
%ADD23C,4.100000*%
%ADD24C,4.900000*%
%ADD25RoundRect,0.225000X-0.300000X0.225000X-0.300000X-0.225000X0.300000X-0.225000X0.300000X0.225000X0*%
%ADD26RoundRect,0.250000X0.275000X-0.250000X0.275000X0.250000X-0.275000X0.250000X-0.275000X-0.250000X0*%
%ADD27RoundRect,0.275000X-0.500000X0.275000X-0.500000X-0.275000X0.500000X-0.275000X0.500000X0.275000X0*%
%ADD28RoundRect,0.250000X-0.275000X0.250000X-0.275000X-0.250000X0.275000X-0.250000X0.275000X0.250000X0*%
%ADD29RoundRect,0.175000X0.850000X0.175000X-0.850000X0.175000X-0.850000X-0.175000X0.850000X-0.175000X0*%
%ADD30RoundRect,0.271739X1.128261X-0.353261X1.128261X0.353261X-1.128261X0.353261X-1.128261X-0.353261X0*%
%ADD31RoundRect,0.271739X-0.353261X-1.128261X0.353261X-1.128261X0.353261X1.128261X-0.353261X1.128261X0*%
%ADD32C,2.000000*%
%ADD33RoundRect,0.225000X0.300000X-0.225000X0.300000X0.225000X-0.300000X0.225000X-0.300000X-0.225000X0*%
%ADD34RoundRect,0.271739X0.353261X1.128261X-0.353261X1.128261X-0.353261X-1.128261X0.353261X-1.128261X0*%
%ADD35RoundRect,0.175000X-0.175000X0.612500X-0.175000X-0.612500X0.175000X-0.612500X0.175000X0.612500X0*%
%ADD36RoundRect,0.050000X-0.600000X0.450000X-0.600000X-0.450000X0.600000X-0.450000X0.600000X0.450000X0*%
G04 APERTURE END LIST*
D10*
X132462500Y-146800000D02*
X136487500Y-146800000D01*
X136487500Y-146800000D02*
X136487500Y-150775000D01*
X136487500Y-150775000D02*
X132462500Y-150775000D01*
X132462500Y-150775000D02*
X132462500Y-146800000D01*
G36*
X132462500Y-146800000D02*
G01*
X136487500Y-146800000D01*
X136487500Y-150775000D01*
X132462500Y-150775000D01*
X132462500Y-146800000D01*
G37*
X139262500Y-148950000D02*
X143287500Y-148950000D01*
X143287500Y-148950000D02*
X143287500Y-152925000D01*
X143287500Y-152925000D02*
X139262500Y-152925000D01*
X139262500Y-152925000D02*
X139262500Y-148950000D01*
G36*
X139262500Y-148950000D02*
G01*
X143287500Y-148950000D01*
X143287500Y-152925000D01*
X139262500Y-152925000D01*
X139262500Y-148950000D01*
G37*
X118237500Y-146800000D02*
X122262500Y-146800000D01*
X122262500Y-146800000D02*
X122262500Y-150775000D01*
X122262500Y-150775000D02*
X118237500Y-150775000D01*
X118237500Y-150775000D02*
X118237500Y-146800000D01*
G36*
X118237500Y-146800000D02*
G01*
X122262500Y-146800000D01*
X122262500Y-150775000D01*
X118237500Y-150775000D01*
X118237500Y-146800000D01*
G37*
X125037500Y-148950000D02*
X129062500Y-148950000D01*
X129062500Y-148950000D02*
X129062500Y-152925000D01*
X129062500Y-152925000D02*
X125037500Y-152925000D01*
X125037500Y-152925000D02*
X125037500Y-148950000D01*
G36*
X125037500Y-148950000D02*
G01*
X129062500Y-148950000D01*
X129062500Y-152925000D01*
X125037500Y-152925000D01*
X125037500Y-148950000D01*
G37*
X110750000Y-148925000D02*
X114775000Y-148925000D01*
X114775000Y-148925000D02*
X114775000Y-152900000D01*
X114775000Y-152900000D02*
X110750000Y-152900000D01*
X110750000Y-152900000D02*
X110750000Y-148925000D01*
G36*
X110750000Y-148925000D02*
G01*
X114775000Y-148925000D01*
X114775000Y-152900000D01*
X110750000Y-152900000D01*
X110750000Y-148925000D01*
G37*
X103950000Y-146775000D02*
X107975000Y-146775000D01*
X107975000Y-146775000D02*
X107975000Y-150750000D01*
X107975000Y-150750000D02*
X103950000Y-150750000D01*
X103950000Y-150750000D02*
X103950000Y-146775000D01*
G36*
X103950000Y-146775000D02*
G01*
X107975000Y-146775000D01*
X107975000Y-150750000D01*
X103950000Y-150750000D01*
X103950000Y-146775000D01*
G37*
D11*
X148024999Y-150475000D02*
X150325000Y-150475000D01*
X150325000Y-150475000D02*
X150325000Y-159975000D01*
X150325000Y-159975000D02*
X148024999Y-159975000D01*
X148024999Y-159975000D02*
X148024999Y-150475000D01*
G36*
X150325000Y-159975000D02*
G01*
X148024999Y-159975000D01*
X148024999Y-150475000D01*
X150325000Y-150475000D01*
X150325000Y-159975000D01*
G37*
X150325000Y-159975000D02*
X148024999Y-159975000D01*
X148024999Y-150475000D01*
X150325000Y-150475000D01*
X150325000Y-159975000D01*
D12*
X94000000Y-157000000D02*
X93999999Y-97000000D01*
X156999999Y-94000000D02*
X96999999Y-94000000D01*
X139200002Y-129125000D02*
X138874998Y-129125000D01*
X143950000Y-129150000D02*
X142925000Y-128125000D01*
X142199998Y-129125000D02*
X142525000Y-129125000D01*
X156999999Y-94000000D02*
X160000000Y-97000000D01*
X142925000Y-128125000D02*
X142200002Y-128125000D01*
X138874998Y-129125000D02*
X138449998Y-129550000D01*
X96999999Y-94000000D02*
X93999999Y-97000000D01*
X139199998Y-128125000D02*
G75*
G02*
X139200002Y-129125000I2J-500000D01*
G01*
X160000000Y-157000000D02*
X160000000Y-97000000D01*
X138474998Y-128125000D02*
X139199998Y-128125000D01*
X97000000Y-160000000D02*
X94000000Y-157000000D01*
X138450000Y-132275000D02*
G75*
G02*
X137450000Y-132275000I-500000J0D01*
G01*
X137450000Y-132275000D02*
X137449998Y-129150000D01*
X142950000Y-132250000D02*
X142950000Y-129550000D01*
X97000000Y-160000000D02*
X157000000Y-160000000D01*
X142525000Y-129125000D02*
X142950000Y-129550000D01*
X142200002Y-128125000D02*
G75*
G03*
X142199998Y-129125000I-2J-500000D01*
G01*
X142950000Y-132250000D02*
G75*
G03*
X143950000Y-132250000I500000J0D01*
G01*
X137449998Y-129150000D02*
X138474998Y-128125000D01*
X138450000Y-132275000D02*
X138449998Y-129550000D01*
X143950000Y-132250000D02*
X143950000Y-129150000D01*
X157000000Y-160000000D02*
X160000000Y-157000000D01*
D13*
X154025000Y-121175000D03*
D14*
X154025000Y-119175000D03*
X154025000Y-117175000D03*
D15*
X113790000Y-97250000D03*
D16*
X113790000Y-98520000D03*
X112520000Y-97250000D03*
X112520000Y-98520000D03*
X111250000Y-97250000D03*
X111250000Y-98520000D03*
X109980000Y-97250000D03*
X109980000Y-98520000D03*
X108710000Y-97250000D03*
X108710000Y-98520000D03*
D17*
X137800000Y-99350000D03*
D18*
X137800000Y-96810000D03*
X140340000Y-99350000D03*
X140340000Y-96810000D03*
X142880000Y-99350000D03*
X142880000Y-96810000D03*
X145420000Y-99350000D03*
X145420000Y-96810000D03*
D19*
X145200000Y-122375000D03*
D20*
X98750000Y-98750000D03*
D21*
X112700000Y-105572918D03*
X111497918Y-106775000D03*
X113902082Y-106775000D03*
X112700000Y-107977082D03*
D20*
X155250000Y-98750000D03*
D22*
X152500000Y-133875000D03*
X152500000Y-147375000D03*
D23*
X146500000Y-137025000D03*
X146500000Y-144225000D03*
D19*
X155650000Y-105300000D03*
D18*
X158190000Y-105300000D03*
X155650000Y-107840000D03*
X158190000Y-107840000D03*
X155650000Y-110380000D03*
X158190000Y-110380000D03*
X155650000Y-112920000D03*
X158190000Y-112920000D03*
D24*
X137875000Y-156554927D03*
X123644665Y-156560669D03*
D20*
X98750000Y-155250000D03*
D24*
X109375000Y-156550000D03*
D13*
X154025000Y-130200000D03*
D14*
X154025000Y-128200000D03*
X154025000Y-126200000D03*
D20*
X155250000Y-155250000D03*
D25*
X116750000Y-105675000D03*
X116750000Y-107325000D03*
X118225000Y-105674999D03*
X118225000Y-107324999D03*
D26*
X133649998Y-112395169D03*
X133649998Y-110845169D03*
X128200004Y-115849999D03*
X128200004Y-114299999D03*
X129674999Y-115849999D03*
X129674999Y-114299999D03*
X98575000Y-123300000D03*
X98575000Y-121750000D03*
D27*
X100300000Y-116825000D03*
X100300000Y-118725000D03*
D28*
X130500000Y-105400000D03*
X130500000Y-106950000D03*
X131974998Y-105400000D03*
X131974998Y-106950000D03*
D26*
X100050000Y-123300000D03*
X100050000Y-121750000D03*
X132165000Y-112395169D03*
X132165000Y-110845169D03*
D29*
X129475000Y-125095000D03*
X129475000Y-126365000D03*
X129475000Y-127635000D03*
X129475000Y-128905000D03*
X124525000Y-128905000D03*
X124525000Y-127635000D03*
X124525000Y-126365000D03*
X124525000Y-125095000D03*
D26*
X149300000Y-113300000D03*
X149300000Y-111750000D03*
D30*
X129300000Y-141985669D03*
X129300000Y-139035669D03*
D31*
X155600000Y-134225000D03*
X158550000Y-134225000D03*
D30*
X122900000Y-141985669D03*
X122900000Y-139035669D03*
D28*
X108350000Y-116549999D03*
X108350000Y-118099999D03*
D32*
X147225000Y-130525000D03*
D25*
X116775000Y-150460669D03*
X116775000Y-152110669D03*
X131025000Y-150460669D03*
X131025000Y-152110669D03*
D30*
X126100000Y-141985669D03*
X126100000Y-139035669D03*
D28*
X102500000Y-147500000D03*
X102500000Y-149050000D03*
D31*
X95875000Y-137825000D03*
X98825000Y-137825000D03*
D26*
X122425000Y-127575000D03*
X122425000Y-126025000D03*
D33*
X135125000Y-109450000D03*
X135125000Y-107800000D03*
D25*
X100450000Y-110025000D03*
X100450000Y-111675000D03*
D33*
X101925000Y-114200000D03*
X101925000Y-112550000D03*
D25*
X98975000Y-110025000D03*
X98975000Y-111675000D03*
D28*
X133650000Y-107850000D03*
X133650000Y-109400000D03*
D25*
X102500000Y-150460669D03*
X102500000Y-152110669D03*
X109825000Y-116500000D03*
X109825000Y-118150000D03*
D26*
X147825000Y-113300001D03*
X147825000Y-111750001D03*
D31*
X95875000Y-141025000D03*
X98825000Y-141025000D03*
D28*
X116750000Y-147500000D03*
X116750000Y-149050000D03*
D32*
X98000000Y-127000000D03*
D34*
X153100000Y-139724999D03*
X150150000Y-139724999D03*
D30*
X115025000Y-141985669D03*
X115025000Y-139035669D03*
D28*
X104975000Y-116975000D03*
X104975000Y-118525000D03*
D35*
X148350000Y-120337500D03*
X150250000Y-120337500D03*
X149300000Y-122212500D03*
D31*
X95875000Y-147425000D03*
X98825000Y-147425000D03*
D30*
X140324999Y-141985669D03*
X140324999Y-139035669D03*
D31*
X95875000Y-144225000D03*
X98825000Y-144225000D03*
D34*
X153100000Y-142924999D03*
X150150000Y-142924999D03*
D30*
X143524999Y-141985669D03*
X143524999Y-139035669D03*
D33*
X148550000Y-116325000D03*
X148550000Y-114675000D03*
D31*
X95875000Y-134625000D03*
X98825000Y-134625000D03*
D28*
X131025000Y-147500000D03*
X131025000Y-149050000D03*
D31*
X155600000Y-137425000D03*
X158550000Y-137425000D03*
D33*
X139225000Y-107875000D03*
X139225000Y-106225000D03*
D28*
X103500000Y-116975000D03*
X103500000Y-118525000D03*
D32*
X127000000Y-98000000D03*
D36*
X111725000Y-116550000D03*
X111725000Y-119850000D03*
D31*
X155600000Y-143825000D03*
X158550000Y-143825000D03*
D26*
X150775000Y-113300001D03*
X150775000Y-111750001D03*
D30*
X111825000Y-141985669D03*
X111825000Y-139035669D03*
X108625000Y-141985669D03*
X108625000Y-139035669D03*
D33*
X150050000Y-116325000D03*
X150050000Y-114675000D03*
D31*
X155600000Y-140625000D03*
X158550000Y-140625000D03*
X155600000Y-147025000D03*
X158550000Y-147025000D03*
D34*
X153100000Y-136525000D03*
X150150000Y-136525000D03*
D30*
X137125000Y-141985669D03*
X137125000Y-139035669D03*
G36*
X142276467Y-134250669D02*
G01*
X142550316Y-134278998D01*
X142569417Y-134282478D01*
X142741381Y-134327732D01*
X142758210Y-134333457D01*
X142933377Y-134407211D01*
X142946255Y-134413519D01*
X143091069Y-134494977D01*
X143108008Y-134506406D01*
X143247439Y-134617951D01*
X143252437Y-134622167D01*
X143334753Y-134695337D01*
X143344698Y-134705220D01*
X143425611Y-134795123D01*
X143433857Y-134805304D01*
X143506728Y-134905502D01*
X143512871Y-134914785D01*
X143568665Y-135007775D01*
X143571236Y-135012265D01*
X143626841Y-135114207D01*
X143632534Y-135126082D01*
X143676883Y-135232520D01*
X143682135Y-135247829D01*
X143737779Y-135451859D01*
X143741114Y-135468358D01*
X143759490Y-135606176D01*
X143760275Y-135613852D01*
X143769380Y-135741323D01*
X143769421Y-135758681D01*
X143760277Y-135895846D01*
X143759451Y-135904117D01*
X143741068Y-136041992D01*
X143737918Y-136057806D01*
X143701791Y-136193280D01*
X143697479Y-136206482D01*
X143632119Y-136374550D01*
X143627384Y-136385230D01*
X143564150Y-136511700D01*
X143554675Y-136527609D01*
X143491190Y-136618301D01*
X143488767Y-136621644D01*
X143405370Y-136732840D01*
X143393665Y-136746335D01*
X143331938Y-136808062D01*
X143327984Y-136811848D01*
X143216104Y-136914405D01*
X143203219Y-136924747D01*
X143112700Y-136988110D01*
X143107224Y-136991735D01*
X143030944Y-137039410D01*
X143028990Y-137040606D01*
X142937885Y-137095269D01*
X142921520Y-137103533D01*
X142810791Y-137149670D01*
X142809125Y-137150350D01*
X142717940Y-137186824D01*
X142701705Y-137192074D01*
X142596883Y-137218280D01*
X142582976Y-137220937D01*
X142444383Y-137239416D01*
X142435589Y-137240276D01*
X142283919Y-137249755D01*
X142276060Y-137250000D01*
X102617844Y-137250000D01*
X102602216Y-137249027D01*
X102458533Y-137231067D01*
X102441695Y-137227786D01*
X102306493Y-137191732D01*
X102293727Y-137187587D01*
X102173832Y-137141473D01*
X102166263Y-137138275D01*
X102043831Y-137081768D01*
X102036297Y-137077980D01*
X101937173Y-137023913D01*
X101923398Y-137015198D01*
X101824065Y-136942955D01*
X101816175Y-136936721D01*
X101686871Y-136825889D01*
X101674046Y-136813195D01*
X101612621Y-136742995D01*
X101607576Y-136736847D01*
X101513234Y-136614204D01*
X101507115Y-136605515D01*
X101424742Y-136477378D01*
X101416328Y-136462044D01*
X101361725Y-136343737D01*
X101358527Y-136336168D01*
X101312413Y-136216273D01*
X101308268Y-136203507D01*
X101272214Y-136068305D01*
X101268933Y-136051467D01*
X101250452Y-135903615D01*
X101249758Y-135896368D01*
X101240579Y-135758681D01*
X101240620Y-135741323D01*
X101249725Y-135613852D01*
X101250510Y-135606177D01*
X101269346Y-135464903D01*
X101271038Y-135455154D01*
X101297935Y-135329636D01*
X101303537Y-135310806D01*
X101349711Y-135190754D01*
X101350324Y-135189190D01*
X101404457Y-135053857D01*
X101418626Y-135027822D01*
X101577466Y-134803577D01*
X101582766Y-134796619D01*
X101663914Y-134697438D01*
X101677144Y-134683571D01*
X101764037Y-134605368D01*
X101776605Y-134595427D01*
X101896623Y-134512337D01*
X101903518Y-134507889D01*
X101995845Y-134452493D01*
X102004322Y-134447839D01*
X102154559Y-134372721D01*
X102165676Y-134367818D01*
X102282808Y-134322767D01*
X102297480Y-134318130D01*
X102443690Y-134281577D01*
X102456432Y-134279081D01*
X102585041Y-134260709D01*
X102594999Y-134259688D01*
X102746080Y-134250245D01*
X102753940Y-134250000D01*
X142263502Y-134250000D01*
X142276467Y-134250669D01*
G37*
G36*
X142306467Y-143100669D02*
G01*
X142580316Y-143128998D01*
X142599417Y-143132478D01*
X142771381Y-143177732D01*
X142788210Y-143183457D01*
X142963377Y-143257211D01*
X142976255Y-143263519D01*
X143121069Y-143344977D01*
X143138008Y-143356406D01*
X143277439Y-143467951D01*
X143282437Y-143472167D01*
X143364753Y-143545337D01*
X143374698Y-143555220D01*
X143455611Y-143645123D01*
X143463857Y-143655304D01*
X143536728Y-143755502D01*
X143542871Y-143764785D01*
X143598665Y-143857775D01*
X143601236Y-143862265D01*
X143656841Y-143964207D01*
X143662534Y-143976082D01*
X143706883Y-144082520D01*
X143712135Y-144097829D01*
X143767779Y-144301859D01*
X143771114Y-144318358D01*
X143789490Y-144456176D01*
X143790275Y-144463852D01*
X143799380Y-144591323D01*
X143799421Y-144608681D01*
X143790277Y-144745846D01*
X143789451Y-144754117D01*
X143771068Y-144891992D01*
X143767918Y-144907806D01*
X143731791Y-145043280D01*
X143727479Y-145056482D01*
X143662119Y-145224551D01*
X143657384Y-145235232D01*
X143594150Y-145361701D01*
X143584675Y-145377609D01*
X143521190Y-145468301D01*
X143518767Y-145471644D01*
X143435370Y-145582840D01*
X143423665Y-145596335D01*
X143361938Y-145658062D01*
X143357984Y-145661848D01*
X143246104Y-145764405D01*
X143233219Y-145774747D01*
X143142700Y-145838110D01*
X143137224Y-145841735D01*
X143060944Y-145889410D01*
X143058990Y-145890606D01*
X142967885Y-145945269D01*
X142951520Y-145953533D01*
X142840791Y-145999670D01*
X142839125Y-146000350D01*
X142747940Y-146036824D01*
X142731705Y-146042074D01*
X142626883Y-146068280D01*
X142612976Y-146070937D01*
X142474383Y-146089416D01*
X142465589Y-146090276D01*
X142313919Y-146099755D01*
X142306060Y-146100000D01*
X102647844Y-146100000D01*
X102632216Y-146099027D01*
X102488533Y-146081067D01*
X102471695Y-146077786D01*
X102336493Y-146041732D01*
X102323727Y-146037587D01*
X102203832Y-145991473D01*
X102196263Y-145988275D01*
X102073831Y-145931768D01*
X102066297Y-145927980D01*
X101967173Y-145873913D01*
X101953398Y-145865198D01*
X101854065Y-145792955D01*
X101846175Y-145786721D01*
X101716871Y-145675889D01*
X101704046Y-145663195D01*
X101642621Y-145592995D01*
X101637576Y-145586847D01*
X101543234Y-145464204D01*
X101537115Y-145455515D01*
X101454742Y-145327378D01*
X101446328Y-145312044D01*
X101391725Y-145193737D01*
X101388527Y-145186168D01*
X101342413Y-145066273D01*
X101338268Y-145053507D01*
X101302214Y-144918305D01*
X101298933Y-144901467D01*
X101280452Y-144753615D01*
X101279758Y-144746368D01*
X101270579Y-144608681D01*
X101270620Y-144591323D01*
X101279725Y-144463852D01*
X101280510Y-144456177D01*
X101299346Y-144314903D01*
X101301038Y-144305154D01*
X101327935Y-144179636D01*
X101333537Y-144160806D01*
X101379711Y-144040754D01*
X101380324Y-144039190D01*
X101434457Y-143903857D01*
X101448626Y-143877822D01*
X101607466Y-143653577D01*
X101612766Y-143646619D01*
X101693914Y-143547438D01*
X101707144Y-143533571D01*
X101794037Y-143455368D01*
X101806605Y-143445427D01*
X101926623Y-143362337D01*
X101933518Y-143357889D01*
X102025845Y-143302493D01*
X102034322Y-143297839D01*
X102184559Y-143222721D01*
X102195676Y-143217818D01*
X102312808Y-143172767D01*
X102327480Y-143168130D01*
X102473690Y-143131577D01*
X102486432Y-143129081D01*
X102615041Y-143110709D01*
X102624999Y-143109688D01*
X102776080Y-143100245D01*
X102783940Y-143100000D01*
X142293502Y-143100000D01*
X142306467Y-143100669D01*
G37*
M02*
