%TF.GenerationSoftware,KiCad,Pcbnew,(5.99.0-10830-g25678ee00d)*%
%TF.CreationDate,2021-08-24T11:38:22+02:00*%
%TF.ProjectId,OpenTurn,4f70656e-5475-4726-9e2e-6b696361645f,rev?*%
%TF.SameCoordinates,Original*%
%TF.FileFunction,Copper,L1,Top*%
%TF.FilePolarity,Positive*%
%FSLAX46Y46*%
G04 Gerber Fmt 4.6, Leading zero omitted, Abs format (unit mm)*
G04 Created by KiCad (PCBNEW (5.99.0-10830-g25678ee00d)) date 2021-08-24 11:38:22*
%MOMM*%
%LPD*%
G01*
G04 APERTURE LIST*
G04 Aperture macros list*
%AMRoundRect*
0 Rectangle with rounded corners*
0 $1 Rounding radius*
0 $2 $3 $4 $5 $6 $7 $8 $9 X,Y pos of 4 corners*
0 Add a 4 corners polygon primitive as box body*
4,1,4,$2,$3,$4,$5,$6,$7,$8,$9,$2,$3,0*
0 Add four circle primitives for the rounded corners*
1,1,$1+$1,$2,$3*
1,1,$1+$1,$4,$5*
1,1,$1+$1,$6,$7*
1,1,$1+$1,$8,$9*
0 Add four rect primitives between the rounded corners*
20,1,$1+$1,$2,$3,$4,$5,0*
20,1,$1+$1,$4,$5,$6,$7,0*
20,1,$1+$1,$6,$7,$8,$9,0*
20,1,$1+$1,$8,$9,$2,$3,0*%
%AMHorizOval*
0 Thick line with rounded ends*
0 $1 width*
0 $2 $3 position (X,Y) of the first rounded end (center of the circle)*
0 $4 $5 position (X,Y) of the second rounded end (center of the circle)*
0 Add line between two ends*
20,1,$1,$2,$3,$4,$5,0*
0 Add two circle primitives to create the rounded ends*
1,1,$1,$2,$3*
1,1,$1,$4,$5*%
%AMFreePoly0*
4,1,6,1.000000,0.000000,0.500000,-0.500000,-0.500000,-0.500000,-0.500000,0.500000,0.500000,0.500000,1.000000,0.000000,1.000000,0.000000,$1*%
%AMFreePoly1*
4,1,6,0.500000,-0.500000,-0.650000,-0.500000,-0.150000,0.000000,-0.650000,0.500000,0.500000,0.500000,0.500000,-0.500000,0.500000,-0.500000,$1*%
G04 Aperture macros list end*
%TA.AperFunction,Profile*%
%ADD10C,0.050000*%
%TD*%
%ADD11C,0.300000*%
%TA.AperFunction,NonConductor*%
%ADD12C,0.300000*%
%TD*%
%TA.AperFunction,SMDPad,CuDef*%
%ADD13RoundRect,0.200000X-0.200000X-0.275000X0.200000X-0.275000X0.200000X0.275000X-0.200000X0.275000X0*%
%TD*%
%TA.AperFunction,SMDPad,CuDef*%
%ADD14RoundRect,0.225000X-0.250000X0.225000X-0.250000X-0.225000X0.250000X-0.225000X0.250000X0.225000X0*%
%TD*%
%TA.AperFunction,SMDPad,CuDef*%
%ADD15RoundRect,0.225000X-0.225000X-0.250000X0.225000X-0.250000X0.225000X0.250000X-0.225000X0.250000X0*%
%TD*%
%TA.AperFunction,SMDPad,CuDef*%
%ADD16R,1.500000X0.300000*%
%TD*%
%TA.AperFunction,SMDPad,CuDef*%
%ADD17R,0.300000X1.500000*%
%TD*%
%TA.AperFunction,ComponentPad*%
%ADD18C,0.500000*%
%TD*%
%TA.AperFunction,SMDPad,CuDef*%
%ADD19R,6.000000X6.000000*%
%TD*%
%TA.AperFunction,ComponentPad*%
%ADD20RoundRect,0.250000X0.625000X-0.350000X0.625000X0.350000X-0.625000X0.350000X-0.625000X-0.350000X0*%
%TD*%
%TA.AperFunction,ComponentPad*%
%ADD21O,1.750000X1.200000*%
%TD*%
%TA.AperFunction,ComponentPad*%
%ADD22R,1.000000X1.000000*%
%TD*%
%TA.AperFunction,ComponentPad*%
%ADD23O,1.000000X1.000000*%
%TD*%
%TA.AperFunction,SMDPad,CuDef*%
%ADD24RoundRect,0.250000X-1.425000X0.362500X-1.425000X-0.362500X1.425000X-0.362500X1.425000X0.362500X0*%
%TD*%
%TA.AperFunction,SMDPad,CuDef*%
%ADD25C,0.250000*%
%TD*%
%TA.AperFunction,SMDPad,CuDef*%
%ADD26R,0.500000X0.850000*%
%TD*%
%TA.AperFunction,SMDPad,CuDef*%
%ADD27R,4.410000X4.550000*%
%TD*%
%TA.AperFunction,SMDPad,CuDef*%
%ADD28RoundRect,0.225000X0.250000X-0.225000X0.250000X0.225000X-0.250000X0.225000X-0.250000X-0.225000X0*%
%TD*%
%TA.AperFunction,SMDPad,CuDef*%
%ADD29RoundRect,0.200000X0.275000X-0.200000X0.275000X0.200000X-0.275000X0.200000X-0.275000X-0.200000X0*%
%TD*%
%TA.AperFunction,SMDPad,CuDef*%
%ADD30RoundRect,0.200000X0.335876X0.053033X0.053033X0.335876X-0.335876X-0.053033X-0.053033X-0.335876X0*%
%TD*%
%TA.AperFunction,SMDPad,CuDef*%
%ADD31C,1.000000*%
%TD*%
%TA.AperFunction,ComponentPad*%
%ADD32R,1.700000X1.700000*%
%TD*%
%TA.AperFunction,ComponentPad*%
%ADD33O,1.700000X1.700000*%
%TD*%
%TA.AperFunction,SMDPad,CuDef*%
%ADD34RoundRect,0.140000X0.170000X-0.140000X0.170000X0.140000X-0.170000X0.140000X-0.170000X-0.140000X0*%
%TD*%
%TA.AperFunction,SMDPad,CuDef*%
%ADD35RoundRect,0.250000X-0.325000X-1.100000X0.325000X-1.100000X0.325000X1.100000X-0.325000X1.100000X0*%
%TD*%
%TA.AperFunction,SMDPad,CuDef*%
%ADD36C,1.500000*%
%TD*%
%TA.AperFunction,SMDPad,CuDef*%
%ADD37RoundRect,0.218750X-0.218750X-0.256250X0.218750X-0.256250X0.218750X0.256250X-0.218750X0.256250X0*%
%TD*%
%TA.AperFunction,SMDPad,CuDef*%
%ADD38RoundRect,0.250000X0.475000X-0.250000X0.475000X0.250000X-0.475000X0.250000X-0.475000X-0.250000X0*%
%TD*%
%TA.AperFunction,SMDPad,CuDef*%
%ADD39R,1.500000X4.000000*%
%TD*%
%TA.AperFunction,SMDPad,CuDef*%
%ADD40RoundRect,0.218750X0.256250X-0.218750X0.256250X0.218750X-0.256250X0.218750X-0.256250X-0.218750X0*%
%TD*%
%TA.AperFunction,SMDPad,CuDef*%
%ADD41RoundRect,0.225000X0.225000X0.250000X-0.225000X0.250000X-0.225000X-0.250000X0.225000X-0.250000X0*%
%TD*%
%TA.AperFunction,SMDPad,CuDef*%
%ADD42RoundRect,0.200000X-0.275000X0.200000X-0.275000X-0.200000X0.275000X-0.200000X0.275000X0.200000X0*%
%TD*%
%TA.AperFunction,SMDPad,CuDef*%
%ADD43RoundRect,0.140000X0.140000X0.170000X-0.140000X0.170000X-0.140000X-0.170000X0.140000X-0.170000X0*%
%TD*%
%TA.AperFunction,ComponentPad*%
%ADD44C,5.600000*%
%TD*%
%TA.AperFunction,ComponentPad*%
%ADD45HorizOval,1.000000X0.000000X0.000000X0.000000X0.000000X0*%
%TD*%
%TA.AperFunction,SMDPad,CuDef*%
%ADD46RoundRect,0.150000X-0.150000X0.825000X-0.150000X-0.825000X0.150000X-0.825000X0.150000X0.825000X0*%
%TD*%
%TA.AperFunction,SMDPad,CuDef*%
%ADD47FreePoly0,90.000000*%
%TD*%
%TA.AperFunction,SMDPad,CuDef*%
%ADD48FreePoly1,90.000000*%
%TD*%
%TA.AperFunction,SMDPad,CuDef*%
%ADD49R,0.700000X0.600000*%
%TD*%
%TA.AperFunction,SMDPad,CuDef*%
%ADD50R,1.150000X1.000000*%
%TD*%
%TA.AperFunction,SMDPad,CuDef*%
%ADD51RoundRect,0.062500X-0.062500X0.375000X-0.062500X-0.375000X0.062500X-0.375000X0.062500X0.375000X0*%
%TD*%
%TA.AperFunction,SMDPad,CuDef*%
%ADD52RoundRect,0.062500X-0.375000X0.062500X-0.375000X-0.062500X0.375000X-0.062500X0.375000X0.062500X0*%
%TD*%
%TA.AperFunction,SMDPad,CuDef*%
%ADD53R,4.100000X4.100000*%
%TD*%
%TA.AperFunction,SMDPad,CuDef*%
%ADD54RoundRect,0.140000X-0.140000X-0.170000X0.140000X-0.170000X0.140000X0.170000X-0.140000X0.170000X0*%
%TD*%
%TA.AperFunction,SMDPad,CuDef*%
%ADD55RoundRect,0.150000X-0.150000X0.587500X-0.150000X-0.587500X0.150000X-0.587500X0.150000X0.587500X0*%
%TD*%
%TA.AperFunction,SMDPad,CuDef*%
%ADD56RoundRect,0.218750X0.218750X0.256250X-0.218750X0.256250X-0.218750X-0.256250X0.218750X-0.256250X0*%
%TD*%
%TA.AperFunction,ComponentPad*%
%ADD57O,2.800000X1.600000*%
%TD*%
%TA.AperFunction,ComponentPad*%
%ADD58C,4.000000*%
%TD*%
%TA.AperFunction,ComponentPad*%
%ADD59C,4.800000*%
%TD*%
%TA.AperFunction,ViaPad*%
%ADD60C,0.800000*%
%TD*%
%TA.AperFunction,ViaPad*%
%ADD61C,0.500000*%
%TD*%
%TA.AperFunction,ViaPad*%
%ADD62C,0.600000*%
%TD*%
%TA.AperFunction,ViaPad*%
%ADD63C,0.700000*%
%TD*%
%TA.AperFunction,Conductor*%
%ADD64C,0.500000*%
%TD*%
%TA.AperFunction,Conductor*%
%ADD65C,0.750000*%
%TD*%
%TA.AperFunction,Conductor*%
%ADD66C,0.300000*%
%TD*%
%TA.AperFunction,Conductor*%
%ADD67C,0.250000*%
%TD*%
%TA.AperFunction,Conductor*%
%ADD68C,0.200000*%
%TD*%
%TA.AperFunction,Conductor*%
%ADD69C,0.275000*%
%TD*%
G04 APERTURE END LIST*
D10*
X94000000Y-157000000D02*
X93999999Y-97000000D01*
X156999999Y-94000000D02*
X96999999Y-94000000D01*
X139200002Y-129125000D02*
X138874998Y-129125000D01*
X143950000Y-129150000D02*
X142925000Y-128125000D01*
X142199998Y-129125000D02*
X142525000Y-129125000D01*
X156999999Y-94000000D02*
X160000000Y-97000000D01*
X142925000Y-128125000D02*
X142200002Y-128125000D01*
X138874998Y-129125000D02*
X138449998Y-129550000D01*
X96999999Y-94000000D02*
X93999999Y-97000000D01*
X139199998Y-128125000D02*
G75*
G02*
X139200002Y-129125000I2J-500000D01*
G01*
X160000000Y-157000000D02*
X160000000Y-97000000D01*
X138474998Y-128125000D02*
X139199998Y-128125000D01*
X97000000Y-160000000D02*
X94000000Y-157000000D01*
X138450000Y-132275000D02*
G75*
G02*
X137450000Y-132275000I-500000J0D01*
G01*
X137450000Y-132275000D02*
X137449998Y-129150000D01*
X142950000Y-132250000D02*
X142950000Y-129550000D01*
X97000000Y-160000000D02*
X157000000Y-160000000D01*
X142525000Y-129125000D02*
X142950000Y-129550000D01*
X142200002Y-128125000D02*
G75*
G03*
X142199998Y-129125000I-2J-500000D01*
G01*
X142950000Y-132250000D02*
G75*
G03*
X143950000Y-132250000I500000J0D01*
G01*
X137449998Y-129150000D02*
X138474998Y-128125000D01*
X138450000Y-132275000D02*
X138449998Y-129550000D01*
X143950000Y-132250000D02*
X143950000Y-129150000D01*
X157000000Y-160000000D02*
X160000000Y-157000000D01*
D11*
D12*
X149853571Y-157882881D02*
X149853571Y-158740024D01*
X149853571Y-158311453D02*
X148353571Y-158311453D01*
X148567857Y-158454310D01*
X148710714Y-158597167D01*
X148782142Y-158740024D01*
G36*
X141675000Y-140625000D02*
G01*
X140675000Y-140625000D01*
X140675000Y-140375000D01*
X141675000Y-140375000D01*
X141675000Y-140625000D01*
G37*
G36*
X113325001Y-140625000D02*
G01*
X112325001Y-140625000D01*
X112325001Y-140375000D01*
X113325001Y-140375000D01*
X113325001Y-140625000D01*
G37*
G36*
X127600001Y-140625000D02*
G01*
X126600001Y-140625000D01*
X126600001Y-140375000D01*
X127600001Y-140375000D01*
X127600001Y-140625000D01*
G37*
D13*
X117317498Y-117525000D03*
X118967498Y-117525000D03*
X117317499Y-120734826D03*
X118967499Y-120734826D03*
X117317499Y-119125002D03*
X118967499Y-119125002D03*
D14*
X117730000Y-114305000D03*
X117730000Y-115855000D03*
X137044998Y-114300003D03*
X137044998Y-115850003D03*
X119824999Y-100874998D03*
X119824999Y-102424998D03*
X135574999Y-114299999D03*
X135574999Y-115849999D03*
D15*
X120342499Y-119125002D03*
X121892499Y-119125002D03*
D14*
X119199997Y-114305000D03*
X119199997Y-115855000D03*
D15*
X120342498Y-120734826D03*
X121892498Y-120734826D03*
D14*
X121300000Y-100875000D03*
X121300000Y-102425000D03*
X114750001Y-114305000D03*
X114750001Y-115855000D03*
D15*
X131399998Y-121000004D03*
X132949998Y-121000004D03*
D14*
X134799994Y-118020168D03*
X134799994Y-119570168D03*
D15*
X120342499Y-117525000D03*
X121892499Y-117525000D03*
X99525000Y-125025000D03*
X101075000Y-125025000D03*
D16*
X132349999Y-113600000D03*
X132349999Y-113100000D03*
X132349999Y-112600000D03*
X132349999Y-112100000D03*
X132349999Y-111600000D03*
X132349999Y-111100000D03*
X132349999Y-110600000D03*
X132349999Y-110100000D03*
X132349999Y-109600000D03*
X132349999Y-109100000D03*
X132349999Y-108600000D03*
X132349999Y-108100000D03*
X132349999Y-107600000D03*
X132349999Y-107100000D03*
X132349999Y-106600000D03*
X132349999Y-106100000D03*
D17*
X130399999Y-104150000D03*
X129899999Y-104150000D03*
X129399999Y-104150000D03*
X128899999Y-104150000D03*
X128399999Y-104150000D03*
X127899999Y-104150000D03*
X127399999Y-104150000D03*
X126899999Y-104150000D03*
X126399999Y-104150000D03*
X125899999Y-104150000D03*
X125399999Y-104150000D03*
X124899999Y-104150000D03*
X124399999Y-104150000D03*
X123899999Y-104150000D03*
X123399999Y-104150000D03*
X122899999Y-104150000D03*
D16*
X120949999Y-106100000D03*
X120949999Y-106600000D03*
X120949999Y-107100000D03*
X120949999Y-107600000D03*
X120949999Y-108100000D03*
X120949999Y-108600000D03*
X120949999Y-109100000D03*
X120949999Y-109600000D03*
X120949999Y-110100000D03*
X120949999Y-110600000D03*
X120949999Y-111100000D03*
X120949999Y-111600000D03*
X120949999Y-112100000D03*
X120949999Y-112600000D03*
X120949999Y-113100000D03*
X120949999Y-113600000D03*
D17*
X122899999Y-115550000D03*
X123399999Y-115550000D03*
X123899999Y-115550000D03*
X124399999Y-115550000D03*
X124899999Y-115550000D03*
X125399999Y-115550000D03*
X125899999Y-115550000D03*
X126399999Y-115550000D03*
X126899999Y-115550000D03*
X127399999Y-115550000D03*
X127899999Y-115550000D03*
X128399999Y-115550000D03*
X128899999Y-115550000D03*
X129399999Y-115550000D03*
X129899999Y-115550000D03*
X130399999Y-115550000D03*
D18*
X126149999Y-110350000D03*
X127149999Y-110350000D03*
X126149999Y-111350000D03*
D19*
X126649999Y-109850000D03*
D18*
X127149999Y-111350000D03*
X125149999Y-111350000D03*
X125149999Y-109350000D03*
X128149999Y-110350000D03*
X125149999Y-108350000D03*
X125149999Y-110350000D03*
X128149999Y-111350000D03*
X128149999Y-109350000D03*
X127149999Y-108350000D03*
X128149999Y-108350000D03*
X126149999Y-109350000D03*
X126149999Y-108350000D03*
X127149999Y-109350000D03*
D14*
X116230000Y-114305000D03*
X116230000Y-115855000D03*
X134099998Y-114300000D03*
X134099998Y-115850000D03*
D20*
X154025000Y-121175000D03*
D21*
X154025000Y-119175000D03*
X154025000Y-117175000D03*
D22*
X113790000Y-97250000D03*
D23*
X113790000Y-98520000D03*
X112520000Y-97250000D03*
X112520000Y-98520000D03*
X111250000Y-97250000D03*
X111250000Y-98520000D03*
X109980000Y-97250000D03*
X109980000Y-98520000D03*
X108710000Y-97250000D03*
X108710000Y-98520000D03*
D24*
X127869665Y-139133838D03*
X127869665Y-145058838D03*
D25*
X140675000Y-140500000D03*
X141675000Y-140500000D03*
D24*
X113600000Y-139123169D03*
X113600000Y-145048169D03*
D26*
X143180000Y-147005834D03*
X141910000Y-147005834D03*
X140640000Y-147005834D03*
X139370000Y-147005834D03*
D27*
X141275000Y-150955834D03*
D28*
X100450000Y-120400000D03*
X100450000Y-118850000D03*
D29*
X103650000Y-129687500D03*
X103650000Y-128037500D03*
D30*
X115908362Y-125120863D03*
X114741636Y-123954137D03*
D14*
X98250000Y-121975000D03*
X98250000Y-123525000D03*
D26*
X132570000Y-152805834D03*
X133840000Y-152805834D03*
X135110000Y-152805834D03*
X136380000Y-152805834D03*
D27*
X134475000Y-148855834D03*
D31*
X147225000Y-130525000D03*
D30*
X114635570Y-126393654D03*
X113468844Y-125226928D03*
D14*
X113280000Y-114305000D03*
X113280000Y-115855000D03*
D32*
X137800000Y-99350000D03*
D33*
X137800000Y-96810000D03*
X140340000Y-99350000D03*
X140340000Y-96810000D03*
X142880000Y-99350000D03*
X142880000Y-96810000D03*
X145420000Y-99350000D03*
X145420000Y-96810000D03*
D29*
X116550000Y-150910669D03*
X116550000Y-149260669D03*
D26*
X114680000Y-147000907D03*
X113410000Y-147000907D03*
X112140000Y-147000907D03*
X110870000Y-147000907D03*
D27*
X112775000Y-150950907D03*
D29*
X144975000Y-152825000D03*
X144975000Y-151175000D03*
D34*
X114400000Y-122542500D03*
X114400000Y-121582500D03*
D35*
X95875000Y-141025000D03*
X98825000Y-141025000D03*
D29*
X102500000Y-112925000D03*
X102500000Y-111275000D03*
D32*
X145200000Y-122375000D03*
D35*
X95875000Y-147425000D03*
X98825000Y-147425000D03*
D28*
X130725000Y-147910669D03*
X130725000Y-146360669D03*
D36*
X142125000Y-112625000D03*
D37*
X104412500Y-104875000D03*
X105987500Y-104875000D03*
D38*
X98716346Y-120500000D03*
X98716346Y-118600000D03*
D39*
X99400000Y-115050000D03*
X95800000Y-115050000D03*
D40*
X134690000Y-96567500D03*
X134690000Y-94992500D03*
D41*
X142475000Y-127000000D03*
X140925000Y-127000000D03*
D24*
X142000000Y-139073169D03*
X142000000Y-144998169D03*
D36*
X142125000Y-115125000D03*
D42*
X145800000Y-112900000D03*
X145800000Y-114550000D03*
D13*
X95325000Y-110098505D03*
X96975000Y-110098505D03*
D26*
X104070000Y-152800907D03*
X105340000Y-152800907D03*
X106610000Y-152800907D03*
X107880000Y-152800907D03*
D27*
X105975000Y-148850907D03*
D43*
X109609999Y-127362500D03*
X108649999Y-127362500D03*
D44*
X98750000Y-98750000D03*
D45*
X112700000Y-105572918D03*
X111497918Y-106775000D03*
X113902082Y-106775000D03*
X112700000Y-107977082D03*
D44*
X155250000Y-98750000D03*
D28*
X116550000Y-147885669D03*
X116550000Y-146335669D03*
D46*
X151180000Y-109600000D03*
X149910000Y-109600000D03*
X148640000Y-109600000D03*
X147370000Y-109600000D03*
X147370000Y-114550000D03*
X148640000Y-114550000D03*
X149910000Y-114550000D03*
X151180000Y-114550000D03*
D36*
X142125000Y-117625000D03*
D13*
X95350000Y-106798505D03*
X97000000Y-106798505D03*
D25*
X112325001Y-140500000D03*
X113325001Y-140500000D03*
D47*
X148275000Y-118700000D03*
D48*
X148275000Y-117250000D03*
D49*
X104050000Y-112795482D03*
X104050000Y-111395482D03*
D50*
X133149996Y-118025000D03*
X131399996Y-118025000D03*
X131399996Y-119425000D03*
X133149996Y-119425000D03*
D51*
X110950000Y-117725000D03*
X110450000Y-117725000D03*
X109950000Y-117725000D03*
X109450000Y-117725000D03*
X108950000Y-117725000D03*
X108450000Y-117725000D03*
X107950000Y-117725000D03*
X107450000Y-117725000D03*
X106950000Y-117725000D03*
X106450000Y-117725000D03*
X105950000Y-117725000D03*
X105450000Y-117725000D03*
D52*
X104762500Y-118412500D03*
X104762500Y-118912500D03*
X104762500Y-119412500D03*
X104762500Y-119912500D03*
X104762500Y-120412500D03*
X104762500Y-120912500D03*
X104762500Y-121412500D03*
X104762500Y-121912500D03*
X104762500Y-122412500D03*
X104762500Y-122912500D03*
X104762500Y-123412500D03*
X104762500Y-123912500D03*
D51*
X105450000Y-124600000D03*
X105950000Y-124600000D03*
X106450000Y-124600000D03*
X106950000Y-124600000D03*
X107450000Y-124600000D03*
X107950000Y-124600000D03*
X108450000Y-124600000D03*
X108950000Y-124600000D03*
X109450000Y-124600000D03*
X109950000Y-124600000D03*
X110450000Y-124600000D03*
X110950000Y-124600000D03*
D52*
X111637500Y-123912500D03*
X111637500Y-123412500D03*
X111637500Y-122912500D03*
X111637500Y-122412500D03*
X111637500Y-121912500D03*
X111637500Y-121412500D03*
X111637500Y-120912500D03*
X111637500Y-120412500D03*
X111637500Y-119912500D03*
X111637500Y-119412500D03*
X111637500Y-118912500D03*
X111637500Y-118412500D03*
D18*
X108800000Y-122962500D03*
X108800000Y-119362500D03*
X107600000Y-121762500D03*
X108800000Y-120562500D03*
X110000000Y-121762500D03*
X110000000Y-122962500D03*
X107600000Y-120562500D03*
X106400000Y-120562500D03*
X106400000Y-122962500D03*
D53*
X108200000Y-121162500D03*
D18*
X106400000Y-121762500D03*
X106400000Y-119362500D03*
X107600000Y-122962500D03*
X110000000Y-119362500D03*
X110000000Y-120562500D03*
X108800000Y-121762500D03*
X107600000Y-119362500D03*
D25*
X126600001Y-140500000D03*
X127600001Y-140500000D03*
D42*
X131620000Y-94975000D03*
X131620000Y-96625000D03*
D15*
X148500000Y-107550000D03*
X150050000Y-107550000D03*
D36*
X148400000Y-103225000D03*
X123925000Y-95625000D03*
D54*
X106794999Y-127362500D03*
X107754999Y-127362500D03*
D55*
X141550000Y-130112500D03*
X139650000Y-130112500D03*
X140600000Y-131987500D03*
D29*
X112724998Y-129687500D03*
X112724998Y-128037500D03*
D40*
X129970000Y-96579999D03*
X129970000Y-95004999D03*
D28*
X144975000Y-149800000D03*
X144975000Y-148250000D03*
D38*
X96741346Y-120500000D03*
X96741346Y-118600000D03*
D56*
X96962500Y-105148505D03*
X95387500Y-105148505D03*
D47*
X150275000Y-118700000D03*
D48*
X150275000Y-117250000D03*
D57*
X152500000Y-133875000D03*
X152500000Y-147375000D03*
D58*
X146500000Y-137025000D03*
X146500000Y-144225000D03*
D32*
X155650000Y-105300000D03*
D33*
X158190000Y-105300000D03*
X155650000Y-107840000D03*
X158190000Y-107840000D03*
X155650000Y-110380000D03*
X158190000Y-110380000D03*
X155650000Y-112920000D03*
X158190000Y-112920000D03*
D31*
X127000000Y-98000000D03*
D59*
X137875000Y-156554927D03*
X123644665Y-156560669D03*
D35*
X95875000Y-144225000D03*
X98825000Y-144225000D03*
D29*
X105450000Y-129687500D03*
X105450000Y-128037500D03*
D56*
X96962500Y-108423505D03*
X95387500Y-108423505D03*
D26*
X128949665Y-147011576D03*
X127679665Y-147011576D03*
X126409665Y-147011576D03*
X125139665Y-147011576D03*
D27*
X127044665Y-150961576D03*
D42*
X133100000Y-94975000D03*
X133100000Y-96625000D03*
D29*
X130725000Y-150935669D03*
X130725000Y-149285669D03*
D35*
X95875000Y-137825000D03*
X98825000Y-137825000D03*
D44*
X98750000Y-155250000D03*
D36*
X145900000Y-103225000D03*
D59*
X109375000Y-156550000D03*
D31*
X98000000Y-127000000D03*
D20*
X154025000Y-130200000D03*
D21*
X154025000Y-128200000D03*
X154025000Y-126200000D03*
D44*
X155250000Y-155250000D03*
D35*
X95875000Y-134625000D03*
X98825000Y-134625000D03*
D26*
X118339665Y-152811576D03*
X119609665Y-152811576D03*
X120879665Y-152811576D03*
X122149665Y-152811576D03*
D27*
X120244665Y-148861576D03*
D29*
X110925000Y-129687500D03*
X110925000Y-128037500D03*
D36*
X142125000Y-110125000D03*
D37*
X104412500Y-107875000D03*
X105987500Y-107875000D03*
D60*
X130182522Y-136066714D03*
D61*
X124425000Y-130125000D03*
D60*
X115082523Y-135240596D03*
D61*
X131200000Y-127000000D03*
X101575000Y-119275000D03*
D60*
X129382525Y-136066714D03*
D61*
X159550000Y-145700000D03*
X108600000Y-131950000D03*
X119199996Y-116549997D03*
D60*
X141750002Y-135275000D03*
D62*
X134690000Y-97450000D03*
D60*
X140149999Y-135275000D03*
D61*
X120450000Y-126450000D03*
X134750001Y-120425003D03*
X159550000Y-142200000D03*
D60*
X140150000Y-133675000D03*
D61*
X159550000Y-136200000D03*
X106500000Y-131950000D03*
X100575000Y-136025000D03*
D60*
X115082523Y-137640596D03*
X130182524Y-134466714D03*
D61*
X100575000Y-138525000D03*
X122642499Y-117534826D03*
X137025000Y-120550000D03*
X130275000Y-122200000D03*
D60*
X115882524Y-135240596D03*
X128582526Y-136866714D03*
D61*
X159550000Y-144200000D03*
D60*
X141750001Y-136075000D03*
D61*
X159550000Y-146200000D03*
D60*
X115882523Y-134440596D03*
D61*
X115425000Y-120150000D03*
X159550000Y-142700000D03*
D60*
X115882523Y-137640596D03*
D61*
X100075000Y-136025000D03*
X159550000Y-147200000D03*
X118700000Y-126475000D03*
X159550000Y-135200000D03*
X101575000Y-118275000D03*
X100075000Y-139025000D03*
X100575000Y-134525000D03*
D60*
X140150000Y-136075000D03*
D61*
X159550000Y-140700000D03*
X113280000Y-116550000D03*
X129550000Y-121000000D03*
X118700000Y-124750000D03*
X159550000Y-138700000D03*
D60*
X114282524Y-136040596D03*
D61*
X159550000Y-146700000D03*
X131825000Y-128325000D03*
D60*
X112682522Y-135240596D03*
X112682523Y-136840596D03*
D61*
X97875000Y-108423505D03*
D60*
X128582525Y-136066714D03*
D61*
X122642499Y-120725005D03*
D60*
X113482523Y-135240596D03*
D61*
X106450000Y-129500000D03*
D60*
X114282524Y-137640596D03*
D61*
X115000000Y-131100000D03*
X117425000Y-123350000D03*
X102525000Y-131900000D03*
X100075000Y-134025000D03*
D60*
X111882523Y-137640596D03*
D61*
X100075000Y-138025000D03*
X135250000Y-122325000D03*
X117300000Y-125075000D03*
X100075000Y-133525000D03*
D60*
X140150000Y-136875000D03*
D61*
X101575000Y-118775000D03*
D60*
X127782524Y-135266714D03*
X127782523Y-136066714D03*
X126175000Y-134460669D03*
X126982524Y-136866714D03*
X114282525Y-135240596D03*
X143349998Y-136075000D03*
D61*
X159550000Y-140200000D03*
D60*
X141750001Y-137685669D03*
D61*
X97875000Y-105148505D03*
D60*
X128582526Y-135266714D03*
X129382524Y-137666714D03*
X111882522Y-136840596D03*
D61*
X159550000Y-137700000D03*
X135649998Y-119575000D03*
X114749996Y-116549997D03*
X109750000Y-130975000D03*
X127975000Y-130875000D03*
X116224995Y-116549998D03*
X100075000Y-136525000D03*
X118475000Y-131100000D03*
X102600000Y-126750000D03*
X100575000Y-138025000D03*
X159550000Y-138200000D03*
X122425000Y-124500000D03*
X120050000Y-132200000D03*
X159550000Y-147700001D03*
X136900000Y-129175000D03*
D60*
X141750001Y-134475000D03*
D61*
X100575000Y-137025000D03*
D60*
X126174999Y-135260669D03*
X126982524Y-136066714D03*
D61*
X116375000Y-129325000D03*
D60*
X142550000Y-135275000D03*
D62*
X146975000Y-111758822D03*
D61*
X159550000Y-139700000D03*
D60*
X142550000Y-137685669D03*
D61*
X100575000Y-136525000D03*
X159550000Y-141700000D03*
D60*
X140950000Y-133675001D03*
X127782524Y-136866714D03*
D61*
X119600000Y-129350000D03*
X102500000Y-110370482D03*
D60*
X142550000Y-136875000D03*
D61*
X104150000Y-125200000D03*
D60*
X130182524Y-137666714D03*
D61*
X159550000Y-144700000D03*
X159550000Y-145200001D03*
X140925000Y-126025000D03*
D60*
X112682523Y-137640596D03*
X141749999Y-133675000D03*
D61*
X100575000Y-135525000D03*
D60*
X113482522Y-134440596D03*
D61*
X122475000Y-132175000D03*
D62*
X129970000Y-97460000D03*
D61*
X117724997Y-116549999D03*
D60*
X126982523Y-135266714D03*
D61*
X115125000Y-128350000D03*
D60*
X126975000Y-134460669D03*
D61*
X127000000Y-127000000D03*
X100575000Y-137525000D03*
D60*
X140949999Y-136075000D03*
D62*
X151625000Y-111758822D03*
D60*
X142550000Y-133675001D03*
D61*
X102075000Y-119775000D03*
D60*
X126182524Y-136066713D03*
X140950000Y-135275000D03*
X129382524Y-134466714D03*
X111882523Y-134440596D03*
X114282525Y-136840596D03*
D61*
X109750000Y-131950000D03*
X130375000Y-130800000D03*
X100075000Y-137525000D03*
X100575000Y-134025000D03*
X159550000Y-141200000D03*
D62*
X150050000Y-106500000D03*
D60*
X129382524Y-135266714D03*
D61*
X100075000Y-134525000D03*
X110950000Y-131950000D03*
D60*
X141750002Y-136875000D03*
D61*
X116200000Y-119775000D03*
X100075000Y-137025000D03*
D60*
X140150000Y-137685669D03*
X143350000Y-134475000D03*
D61*
X133749996Y-121000002D03*
D60*
X142550001Y-136075000D03*
D61*
X159550000Y-143699999D03*
D60*
X143350000Y-137685669D03*
D61*
X100075000Y-138525000D03*
D60*
X113482523Y-137640596D03*
X115882521Y-136040596D03*
D63*
X118725000Y-102425000D03*
D61*
X137000000Y-117025000D03*
X159550000Y-136700000D03*
D60*
X111882522Y-135240596D03*
D61*
X100575000Y-133525000D03*
X159550000Y-143200000D03*
X112200000Y-125150000D03*
X100075000Y-139525000D03*
D60*
X126182523Y-136866714D03*
D61*
X102075000Y-120275000D03*
X159550000Y-134700000D03*
D60*
X115882523Y-136840596D03*
X112682523Y-136040596D03*
D61*
X115725000Y-123350000D03*
X132949997Y-121850003D03*
D60*
X142550000Y-134475000D03*
X115082524Y-136040596D03*
X112682523Y-134440596D03*
D61*
X159550000Y-134200000D03*
D60*
X143350000Y-133675000D03*
D61*
X108600000Y-130975000D03*
X100575000Y-135025000D03*
D60*
X130182525Y-135266714D03*
D61*
X159550000Y-133700000D03*
X132825000Y-130850000D03*
D60*
X130182524Y-136866714D03*
D61*
X135500000Y-127800000D03*
X102350000Y-129200000D03*
D60*
X140950000Y-137685669D03*
X111882523Y-136040595D03*
D62*
X149300000Y-123550000D03*
D61*
X122900017Y-128599983D03*
X127000000Y-128825000D03*
X101575000Y-119775000D03*
D60*
X115082523Y-136840596D03*
D61*
X108600000Y-130025000D03*
D60*
X140950000Y-136875000D03*
X126182524Y-137666714D03*
D61*
X122642499Y-119109826D03*
D60*
X140949999Y-134475000D03*
X114282524Y-134440596D03*
D61*
X133775000Y-128875000D03*
X113575000Y-126950000D03*
D60*
X126982524Y-137666714D03*
X128582525Y-137666714D03*
X115082523Y-134440596D03*
D61*
X159550000Y-135700000D03*
X135500000Y-130475000D03*
X100450000Y-112600000D03*
D60*
X140150000Y-134475000D03*
X113482522Y-136040596D03*
X127782523Y-134466714D03*
D61*
X116625000Y-131100000D03*
D60*
X129382524Y-136866714D03*
D61*
X159550000Y-139200000D03*
D60*
X143350000Y-136875000D03*
D61*
X100075000Y-135525000D03*
D60*
X143350001Y-135275000D03*
D61*
X159550000Y-137200000D03*
D60*
X127782524Y-137666714D03*
D61*
X125600000Y-130850000D03*
X100075000Y-135025000D03*
X129550000Y-119525000D03*
X136925000Y-131775000D03*
X109750000Y-130000000D03*
X121175000Y-130875000D03*
D60*
X128582525Y-134466714D03*
D61*
X100575000Y-139525000D03*
X134125000Y-132100000D03*
X133975000Y-126425000D03*
D60*
X113482523Y-136840596D03*
D61*
X100575000Y-139025000D03*
D62*
X101200000Y-116225000D03*
D61*
X94650000Y-146250000D03*
D60*
X106275000Y-143105742D03*
X136075000Y-148760669D03*
D61*
X154125000Y-141425000D03*
D60*
X136375000Y-144710669D03*
X106275000Y-144705742D03*
D61*
X154625000Y-144425000D03*
D60*
X103875000Y-143105741D03*
D61*
X154125000Y-144425000D03*
D60*
X104375000Y-147155742D03*
D61*
X94650000Y-138750000D03*
D60*
X118644665Y-147166411D03*
X131575000Y-143135669D03*
D61*
X154124999Y-145925000D03*
D60*
X133175000Y-143110669D03*
X135575000Y-143910669D03*
X136075000Y-150360669D03*
D61*
X94650000Y-142750000D03*
X94650000Y-144250000D03*
X94650000Y-142250000D03*
D60*
X104675000Y-143105742D03*
X133975000Y-144710669D03*
D61*
X154625000Y-142925000D03*
D60*
X121344665Y-145516411D03*
X119744665Y-142316411D03*
X121844665Y-148766411D03*
X107575000Y-150355742D03*
D61*
X154625000Y-142425000D03*
D60*
X132375000Y-144710669D03*
D61*
X94650000Y-145250000D03*
X154625000Y-141925000D03*
D60*
X103875000Y-144705742D03*
X133975000Y-145510669D03*
X104375000Y-148755742D03*
X135575000Y-145510669D03*
X119444665Y-147966411D03*
X121344665Y-143116411D03*
X107075000Y-143905742D03*
X134775000Y-143110669D03*
X107875000Y-145505742D03*
X117344665Y-142341411D03*
X120244665Y-148766411D03*
X107575000Y-148755742D03*
X122144665Y-144716411D03*
X118144665Y-143116410D03*
X135275000Y-149560669D03*
D61*
X94650000Y-141750000D03*
D60*
X133175000Y-144710669D03*
D61*
X94650000Y-134250000D03*
D60*
X118144665Y-143916411D03*
X105975000Y-147155742D03*
X104675000Y-145505742D03*
X121344665Y-144716411D03*
X133675000Y-149560669D03*
X120544665Y-145516411D03*
X122144665Y-145516411D03*
D61*
X154125000Y-145425000D03*
D60*
X118944665Y-143116411D03*
X132375000Y-143910669D03*
X134775000Y-144710669D03*
X119744665Y-144716411D03*
D61*
X154625000Y-144925000D03*
X94650000Y-135250000D03*
D60*
X121844665Y-150366411D03*
D61*
X94650000Y-140750000D03*
D60*
X132875000Y-147160669D03*
D61*
X94650000Y-135750000D03*
D60*
X120244665Y-147166411D03*
D61*
X94650000Y-148250000D03*
X154124999Y-143425000D03*
D60*
X134475000Y-150360669D03*
X134475000Y-148760669D03*
X106275000Y-143905742D03*
D61*
X154625000Y-143425000D03*
D60*
X107575000Y-147155742D03*
D62*
X102325000Y-116225000D03*
D61*
X94650000Y-139250000D03*
X94650000Y-137750000D03*
X154625000Y-146425000D03*
X94650000Y-139750000D03*
X154625000Y-147925000D03*
D60*
X134775000Y-145510669D03*
D61*
X94650000Y-137250000D03*
X154625000Y-145925000D03*
D60*
X133975000Y-143110669D03*
X105975000Y-150355742D03*
X131575000Y-143935669D03*
X106775000Y-147955742D03*
X117344665Y-143941411D03*
X122144665Y-143916411D03*
X103875000Y-145505742D03*
D61*
X154625000Y-143925000D03*
D60*
X132375000Y-142310669D03*
X133174999Y-142310669D03*
D61*
X94650000Y-134750000D03*
D60*
X133975000Y-142310669D03*
X104675000Y-144705742D03*
X105475000Y-143105742D03*
X121044665Y-149566411D03*
X132875000Y-148760669D03*
D61*
X94650000Y-147750000D03*
D60*
X117344665Y-143141411D03*
X119444665Y-149566411D03*
D62*
X98000000Y-111675000D03*
D60*
X103875000Y-142305742D03*
X103075000Y-143130742D03*
X105475000Y-142305742D03*
D61*
X154625000Y-146925000D03*
X94650000Y-145750000D03*
D60*
X107075000Y-144705742D03*
X118944664Y-142316411D03*
X118144665Y-145516411D03*
D61*
X94650000Y-136250000D03*
D60*
X107875000Y-144705742D03*
X120544665Y-142316411D03*
X133975000Y-143910669D03*
D61*
X94650000Y-144750000D03*
D60*
X105175000Y-147955742D03*
X119744665Y-143916411D03*
X134475000Y-147160669D03*
X107875000Y-143905742D03*
X105975000Y-148755742D03*
D61*
X94650000Y-133750000D03*
D60*
X135275000Y-147960669D03*
X120544665Y-144716411D03*
D61*
X154124999Y-141925000D03*
D60*
X118144665Y-144716411D03*
D61*
X94650000Y-143250000D03*
X94650000Y-143750000D03*
D60*
X105475000Y-143905742D03*
D61*
X154625000Y-141425000D03*
D60*
X121344665Y-143916411D03*
X120244665Y-150366411D03*
X132375000Y-145510669D03*
X107075000Y-145505742D03*
D62*
X101750000Y-115675000D03*
D61*
X154625000Y-145425000D03*
D60*
X118944665Y-145516411D03*
X106775000Y-149555742D03*
X106275000Y-145505742D03*
X118944665Y-143916411D03*
X118944665Y-144716411D03*
X104375000Y-150355742D03*
X121844665Y-147166411D03*
X136075000Y-147160669D03*
X121044665Y-147966411D03*
X133175000Y-145510669D03*
D61*
X154125000Y-142925000D03*
D60*
X105475000Y-144705742D03*
D61*
X154625000Y-147425000D03*
D60*
X134775000Y-142310669D03*
D61*
X154125000Y-146425000D03*
D60*
X133175000Y-143910669D03*
X132375000Y-143110668D03*
X104674999Y-142305742D03*
D61*
X154125000Y-144925000D03*
D60*
X131575000Y-142335669D03*
X136375000Y-145510669D03*
X118644665Y-148766411D03*
X103075000Y-142330742D03*
X119744665Y-145516411D03*
X133675000Y-147960669D03*
X107075000Y-143105742D03*
X118644665Y-150366411D03*
X103875000Y-143905742D03*
X105175000Y-149555742D03*
X103075000Y-143930742D03*
D61*
X94650000Y-140250000D03*
X94650000Y-138250000D03*
D60*
X120544665Y-143116411D03*
X136375000Y-143910669D03*
X118144665Y-142316411D03*
D61*
X94650000Y-146750000D03*
X94650000Y-141250000D03*
X154125000Y-142425000D03*
D60*
X134775000Y-143910669D03*
X135575000Y-144710669D03*
X104675000Y-143905742D03*
X119744665Y-143116411D03*
X105475000Y-145505742D03*
X106275000Y-142305742D03*
D61*
X94650000Y-147250000D03*
D60*
X135575000Y-143110669D03*
X120544665Y-143916411D03*
X132875000Y-150360669D03*
D61*
X154125000Y-143925000D03*
X94650000Y-136750000D03*
X103400000Y-116100000D03*
X103200000Y-105375000D03*
X103975000Y-115450000D03*
D62*
X145800000Y-111975000D03*
D61*
X103700000Y-108875000D03*
X102700000Y-104875000D03*
X102700000Y-107375000D03*
X102700000Y-105375000D03*
X102700000Y-107875000D03*
X103882666Y-106625000D03*
X103350000Y-115450000D03*
X104382666Y-106125000D03*
X103700000Y-103350000D03*
X103700000Y-103850000D03*
X103200000Y-106375000D03*
X121275000Y-123700000D03*
X103200000Y-108375000D03*
X102700000Y-106875000D03*
X103200000Y-109375000D03*
X103200000Y-104375000D03*
X103200000Y-107375000D03*
X103200000Y-106875000D03*
X103975000Y-114775000D03*
X102700000Y-106375000D03*
X103200000Y-103875000D03*
X102700000Y-103875000D03*
X103350000Y-114125000D03*
X102700000Y-108375000D03*
D62*
X148500000Y-106500000D03*
D61*
X102700000Y-108875000D03*
X104382666Y-106625000D03*
X97900000Y-106798505D03*
X103200000Y-108875000D03*
X103350000Y-114775000D03*
X103882666Y-106125000D03*
X104200000Y-109375000D03*
X103700000Y-109375000D03*
X103975000Y-114125000D03*
X104200000Y-103850000D03*
X102700000Y-104375000D03*
X102700000Y-105875000D03*
X103200000Y-107875000D03*
X103200000Y-104875000D03*
D62*
X123925000Y-95175000D03*
D61*
X103200000Y-103375000D03*
X104200000Y-108875000D03*
X104200000Y-103350000D03*
X103200000Y-105875000D03*
X107950000Y-104700000D03*
X106950000Y-105200000D03*
X130874996Y-112375002D03*
X116750000Y-104599500D03*
D63*
X135500000Y-112850000D03*
D61*
X133325000Y-104975000D03*
D63*
X137050000Y-113225000D03*
D61*
X107450000Y-105200000D03*
X107450000Y-104700000D03*
X107450000Y-105700000D03*
X129550000Y-117650000D03*
X106950000Y-105700000D03*
X118225000Y-104600000D03*
X107450000Y-104200000D03*
X106950000Y-104200000D03*
D63*
X118750000Y-100875000D03*
D61*
X106950000Y-104700000D03*
D63*
X126400000Y-113775000D03*
D61*
X107950000Y-105200000D03*
X107950000Y-105700000D03*
X129400000Y-105400000D03*
X142475000Y-126025000D03*
X116225000Y-113000000D03*
X107950000Y-107624999D03*
X106950000Y-108625000D03*
X107950000Y-107125000D03*
X106950000Y-108125000D03*
X107450001Y-107125000D03*
X106950000Y-107625000D03*
X107450000Y-108125000D03*
X106950000Y-107125000D03*
X107950000Y-108125000D03*
X107450000Y-108625000D03*
X107450000Y-107625000D03*
X115275000Y-127025000D03*
X134975000Y-140500000D03*
D60*
X143425000Y-156404927D03*
X133025000Y-154804927D03*
X142625000Y-157215596D03*
X133025000Y-155604927D03*
X133025000Y-157215596D03*
X141825000Y-154804927D03*
X142625000Y-156404927D03*
X133025000Y-158015596D03*
X139675000Y-150913434D03*
X142875000Y-152513434D03*
X132225000Y-154804927D03*
D61*
X135975000Y-140500000D03*
D60*
X141825000Y-158815596D03*
X134625000Y-158815596D03*
X143425000Y-154004927D03*
X141025000Y-154004927D03*
X140475000Y-151713434D03*
X142075000Y-151713434D03*
X142625000Y-158815596D03*
X132225000Y-157215596D03*
X142625000Y-158015596D03*
X133025000Y-154004927D03*
X133825000Y-154804927D03*
X132225000Y-158815596D03*
X141275000Y-152513434D03*
X132225000Y-155604927D03*
X142625000Y-155604927D03*
X143425000Y-154804927D03*
X143425000Y-158015596D03*
X141824999Y-154004927D03*
X140475000Y-150113434D03*
X132225000Y-156415596D03*
X141275000Y-149313434D03*
X141275000Y-150913434D03*
X132225000Y-154004927D03*
X142625000Y-154804927D03*
X139675000Y-152513434D03*
X142075000Y-150113434D03*
X142875000Y-149313434D03*
X143425000Y-155604927D03*
X143425000Y-158815596D03*
X139675000Y-149313434D03*
X134625000Y-154004927D03*
X141825000Y-158015596D03*
X133025000Y-158815596D03*
X141025000Y-158815596D03*
D61*
X115850000Y-126350000D03*
D60*
X133825000Y-158015596D03*
X133825001Y-158815596D03*
X143425000Y-157215595D03*
X142625000Y-154004927D03*
X133025000Y-156415596D03*
X142875000Y-150913434D03*
X132225000Y-158015596D03*
X133825000Y-154004927D03*
D61*
X136975000Y-140500000D03*
X116500000Y-125700000D03*
X120725000Y-140500000D03*
X112725000Y-132250000D03*
D60*
X128644665Y-150919176D03*
X127044665Y-149319176D03*
X117994665Y-154810669D03*
X117994665Y-158821338D03*
X129194665Y-154810669D03*
X127594665Y-154810669D03*
X125444665Y-152519176D03*
X128644665Y-149319176D03*
X117994665Y-154010669D03*
X129194665Y-157221337D03*
X128394665Y-155610669D03*
X126244665Y-150119176D03*
X117994665Y-157221338D03*
X128394665Y-154810669D03*
X118794665Y-154810669D03*
X128394665Y-157221338D03*
X118794665Y-156411576D03*
X118794665Y-158821338D03*
X129194665Y-155610669D03*
X120394665Y-158821338D03*
X125444665Y-150919176D03*
X118794665Y-154010669D03*
X127044665Y-152519176D03*
X119594665Y-154810669D03*
X119594665Y-154010669D03*
X129194665Y-156410669D03*
X128394665Y-154010669D03*
X118794665Y-157221338D03*
X127844665Y-150119176D03*
X127594664Y-154010669D03*
X126244665Y-151719176D03*
X126794665Y-154010669D03*
X128394665Y-158021338D03*
X127044665Y-150919176D03*
X128394665Y-158821338D03*
X127844665Y-151719176D03*
X117994665Y-158021338D03*
X128394665Y-156411576D03*
X118794665Y-158021338D03*
X118794665Y-155610669D03*
X126794665Y-158821338D03*
X119594665Y-158021338D03*
X125444665Y-149319176D03*
D61*
X111825000Y-131450000D03*
D60*
X129194665Y-154010669D03*
X129194665Y-158821338D03*
X117994665Y-155610669D03*
X117994665Y-156421338D03*
X120394665Y-154010669D03*
X127594665Y-158821338D03*
X129194665Y-158021338D03*
D61*
X121725000Y-140500000D03*
D60*
X127594665Y-158021338D03*
X119594666Y-158821338D03*
X128644665Y-152519176D03*
D61*
X122725000Y-140500000D03*
X110925000Y-130550000D03*
X106725000Y-140500000D03*
X103650000Y-130575000D03*
D60*
X113575000Y-150108507D03*
X105325000Y-154000000D03*
X112525000Y-158810669D03*
X104525000Y-155600000D03*
X103725000Y-158810669D03*
X105325000Y-154800000D03*
X114925000Y-156400000D03*
X114925000Y-158810669D03*
X111975000Y-150108507D03*
X104525000Y-158010669D03*
X111175000Y-149308507D03*
X111175000Y-152508507D03*
X103725000Y-154800000D03*
X106125000Y-158810669D03*
X113324999Y-154000000D03*
X114925000Y-154800000D03*
X103725000Y-156410669D03*
X114375000Y-152508507D03*
X103725000Y-158010669D03*
X112525000Y-154000000D03*
X112775000Y-152508507D03*
X114125000Y-154800000D03*
X106125000Y-154000000D03*
X114925000Y-158010669D03*
X114925000Y-155600000D03*
X103725000Y-155600000D03*
X114125000Y-156400907D03*
X113325000Y-154800000D03*
X105325001Y-158810669D03*
X113325000Y-158810669D03*
X112775000Y-150908507D03*
X103725000Y-157210669D03*
X104525000Y-156400907D03*
D61*
X107725000Y-140500000D03*
D60*
X114375000Y-150908507D03*
X104525000Y-158810669D03*
X113575000Y-151708507D03*
X114375000Y-149308507D03*
X114125000Y-157210669D03*
X112775000Y-149308507D03*
X113325000Y-158010669D03*
X114125000Y-154000000D03*
X104525000Y-157210669D03*
X105325000Y-158010669D03*
X114925000Y-154000000D03*
X111175000Y-150908507D03*
D61*
X104550000Y-130575000D03*
D60*
X111975000Y-151708507D03*
X114125000Y-155600000D03*
X104525000Y-154800000D03*
X104525000Y-154000000D03*
X103725000Y-154000000D03*
X114125000Y-158810669D03*
X114125000Y-158010669D03*
X114925000Y-157210668D03*
D61*
X105450000Y-130575000D03*
X108725000Y-140500000D03*
X113675000Y-110325000D03*
X109225000Y-113050000D03*
X124975000Y-99950000D03*
X106560661Y-112146699D03*
X124800000Y-99175000D03*
X106030331Y-111616369D03*
X115875000Y-108775000D03*
X107621321Y-113207359D03*
X114850000Y-108850000D03*
X107090991Y-112677029D03*
X108681981Y-114268019D03*
X127200000Y-118525000D03*
X108151651Y-113737689D03*
X126525000Y-117925000D03*
X102250000Y-123575000D03*
X102250000Y-124375000D03*
X138225000Y-140500000D03*
X115100000Y-122525000D03*
X123975000Y-140500000D03*
X108650000Y-129025000D03*
X106803464Y-128225000D03*
X110000000Y-140500000D03*
X136575000Y-108650000D03*
X128650000Y-96925000D03*
X135450000Y-98325000D03*
X140900000Y-107900000D03*
X139475000Y-140500000D03*
X115100000Y-121575000D03*
X108650000Y-128225000D03*
X125228225Y-140500000D03*
X115000000Y-111074500D03*
X105500000Y-109825000D03*
X114425000Y-111950000D03*
X105450000Y-110725000D03*
X113200000Y-118650000D03*
X111225000Y-140500000D03*
X107750000Y-128225000D03*
D62*
X151825000Y-117250000D03*
X146750000Y-117250000D03*
D61*
X142500000Y-105500000D03*
X140100000Y-109100000D03*
X141700000Y-106700000D03*
X139699416Y-109700980D03*
X141300000Y-107300000D03*
X143340000Y-107300000D03*
X139299416Y-110300980D03*
D62*
X122375000Y-111600000D03*
D61*
X138025000Y-118800000D03*
X124275000Y-119725000D03*
X148400000Y-103225000D03*
X151175000Y-107550000D03*
X147375000Y-107550000D03*
X145900000Y-103225000D03*
X140350000Y-112625000D03*
X138900000Y-110900000D03*
X138850000Y-117625000D03*
X138100000Y-112100000D03*
X139600000Y-115125000D03*
X138500000Y-111500000D03*
X142100000Y-106100000D03*
X142750000Y-110125000D03*
X123500000Y-98525000D03*
X123543733Y-99293733D03*
D62*
X156600000Y-124175000D03*
D61*
X131625000Y-97575000D03*
X131625000Y-102325000D03*
X133100000Y-103000000D03*
X133100000Y-97575000D03*
D62*
X150275000Y-118700000D03*
X148275000Y-118700000D03*
X156600000Y-122775000D03*
D64*
X134749999Y-119574999D02*
X135649998Y-119575000D01*
D65*
X118725000Y-102425000D02*
X118725002Y-102424998D01*
D66*
X131574999Y-118025000D02*
X132974999Y-119425000D01*
D64*
X122642499Y-119109826D02*
X122627324Y-119125001D01*
D67*
X140600000Y-127325000D02*
X140800000Y-127125000D01*
D66*
X131399997Y-118025000D02*
X131574999Y-118025000D01*
D64*
X132949996Y-119625001D02*
X133149997Y-119425001D01*
D65*
X137044997Y-115850003D02*
X135574999Y-115850005D01*
D67*
X149910000Y-107690000D02*
X150050000Y-107550000D01*
D64*
X129550000Y-119525000D02*
X129550000Y-121000000D01*
X119199995Y-115849999D02*
X119199996Y-116549997D01*
X132949999Y-121000002D02*
X132949997Y-121850003D01*
X113280000Y-115855000D02*
X113280000Y-116550000D01*
D65*
X117724999Y-115849999D02*
X119199995Y-115849999D01*
X134099999Y-115850000D02*
X132649997Y-115850004D01*
D68*
X102500000Y-111275000D02*
X102500000Y-110370482D01*
D65*
X132649997Y-115850004D02*
X128149996Y-111350003D01*
D64*
X132949999Y-121000002D02*
X133749996Y-121000002D01*
X134690000Y-96567500D02*
X134690000Y-97450000D01*
D65*
X119824999Y-102424998D02*
X121300001Y-102425000D01*
D64*
X114750000Y-115849999D02*
X113285001Y-115849999D01*
D65*
X116225005Y-115849998D02*
X117724999Y-115849999D01*
X125149999Y-111350000D02*
X120650000Y-115849999D01*
D67*
X142000000Y-139073169D02*
X142000000Y-140175000D01*
D65*
X120650000Y-115849999D02*
X119199995Y-115849999D01*
D64*
X122642499Y-117534826D02*
X121902324Y-117534826D01*
D65*
X135574999Y-115850005D02*
X135574998Y-115850004D01*
D64*
X122627324Y-119125001D02*
X121892502Y-119125002D01*
X114750000Y-115849999D02*
X114750001Y-116549993D01*
X132949999Y-121000002D02*
X132949996Y-119625001D01*
D66*
X132974999Y-119425000D02*
X133149997Y-119425001D01*
D64*
X117724999Y-115849999D02*
X117725000Y-116549995D01*
X135250000Y-122325000D02*
X135075000Y-122500000D01*
D65*
X121300000Y-102425000D02*
X121300000Y-104500001D01*
D67*
X140600000Y-131987500D02*
X140600000Y-127325000D01*
D64*
X113285001Y-115849999D02*
X113280000Y-115855000D01*
X133299996Y-119574999D02*
X133149997Y-119425001D01*
X130575000Y-122500000D02*
X130275000Y-122200000D01*
X134749999Y-119574999D02*
X134750001Y-120425003D01*
X121902324Y-117534826D02*
X121892499Y-117525001D01*
X129550000Y-121475000D02*
X129550000Y-121000000D01*
D65*
X118725002Y-102424998D02*
X119824999Y-102424998D01*
X135574998Y-115850004D02*
X134099999Y-115850000D01*
D67*
X149910000Y-109600000D02*
X149910000Y-107690000D01*
D64*
X135075000Y-122500000D02*
X130575000Y-122500000D01*
D65*
X114750000Y-115849999D02*
X116225005Y-115849998D01*
D67*
X150050000Y-107550000D02*
X150050000Y-106500000D01*
X113600000Y-139123169D02*
X113600000Y-140225001D01*
D64*
X137000000Y-120575000D02*
X135250000Y-122325000D01*
D67*
X142000000Y-140175000D02*
X141675000Y-140500000D01*
D64*
X130275000Y-122200000D02*
X129550000Y-121475000D01*
D67*
X127869665Y-140230336D02*
X127600001Y-140500000D01*
X140800000Y-127125000D02*
X140800000Y-127150000D01*
D64*
X134749999Y-119574999D02*
X133299996Y-119574999D01*
X121892836Y-120725004D02*
X122642499Y-120725005D01*
X137000000Y-117025000D02*
X137000000Y-120575000D01*
X116225005Y-115849998D02*
X116225004Y-116549990D01*
D66*
X96962500Y-105148505D02*
X97875000Y-105148505D01*
D67*
X127869665Y-139133838D02*
X127869665Y-140230336D01*
X113600000Y-140225001D02*
X113325001Y-140500000D01*
D65*
X121300000Y-104500001D02*
X125149999Y-108350000D01*
D66*
X96962500Y-108423505D02*
X97875000Y-108423505D01*
D64*
X129970000Y-96579999D02*
X129970000Y-97460000D01*
D67*
X140925000Y-127000000D02*
X140925000Y-126025000D01*
D64*
X101750000Y-115675000D02*
X101775000Y-115675000D01*
X101775000Y-115675000D02*
X102325000Y-116225000D01*
D67*
X102925000Y-118700000D02*
X103637500Y-119412500D01*
D64*
X102325000Y-116225000D02*
X102800000Y-116700000D01*
D66*
X97450000Y-111675000D02*
X98000000Y-111675000D01*
X96975000Y-110098505D02*
X96975000Y-111200000D01*
X96975000Y-111200000D02*
X97450000Y-111675000D01*
D67*
X103637500Y-119412500D02*
X104762500Y-119412500D01*
X102800000Y-116700000D02*
X102925000Y-116825000D01*
X102925000Y-116825000D02*
X102925000Y-118700000D01*
D66*
X97000000Y-106798505D02*
X97900000Y-106798505D01*
D67*
X148500000Y-107550000D02*
X148500000Y-106500000D01*
X103500000Y-116200000D02*
X103500000Y-118425000D01*
X148640000Y-107690000D02*
X148500000Y-107550000D01*
X103987500Y-118912500D02*
X104762500Y-118912500D01*
X103400000Y-116100000D02*
X103500000Y-116200000D01*
X148640000Y-109600000D02*
X148640000Y-107690000D01*
X103500000Y-118425000D02*
X103987500Y-118912500D01*
X145800000Y-112900000D02*
X145800000Y-111975000D01*
D65*
X137044997Y-114300002D02*
X137044997Y-113230003D01*
X137044997Y-113230003D02*
X137050000Y-113225000D01*
D66*
X129399996Y-104150002D02*
X129399996Y-105400001D01*
X122899999Y-102474999D02*
X121300000Y-100875000D01*
X131099997Y-112599999D02*
X130874996Y-112375002D01*
X132349996Y-112600003D02*
X131099997Y-112599999D01*
D64*
X137044994Y-114300000D02*
X137044997Y-114300002D01*
D65*
X118750000Y-100875000D02*
X118750002Y-100874998D01*
D66*
X134375000Y-113100002D02*
X135574999Y-114300000D01*
X132349996Y-113100001D02*
X134375000Y-113100002D01*
X129550000Y-117650000D02*
X129550000Y-117225000D01*
D65*
X135574997Y-114299999D02*
X137044994Y-114300000D01*
X119824999Y-100874998D02*
X121300004Y-100874999D01*
D66*
X129399997Y-117074997D02*
X129399997Y-115549999D01*
X122899999Y-104149999D02*
X122899999Y-102474999D01*
X129550000Y-117225000D02*
X129399997Y-117074997D01*
D65*
X118750002Y-100874998D02*
X119824999Y-100874998D01*
D67*
X142475000Y-127000000D02*
X142475000Y-126025000D01*
D66*
X118575000Y-112600000D02*
X117725000Y-113450000D01*
D64*
X116225005Y-114299999D02*
X117725000Y-114300000D01*
D66*
X117725000Y-113450000D02*
X117725000Y-114300000D01*
D67*
X141550000Y-129830000D02*
X141380000Y-129660000D01*
X141250000Y-129200000D02*
X141250000Y-128125000D01*
D64*
X116225000Y-113000000D02*
X116225005Y-113000005D01*
D66*
X120949999Y-112600000D02*
X118575000Y-112600000D01*
D67*
X141380000Y-129330000D02*
X141250000Y-129200000D01*
D64*
X116225005Y-113000005D02*
X116225005Y-114299999D01*
D67*
X141250000Y-128125000D02*
X142375000Y-127000000D01*
X142375000Y-127000000D02*
X142475000Y-127000000D01*
X141380000Y-129660000D02*
X141380000Y-129330000D01*
X141550000Y-130112500D02*
X141550000Y-129830000D01*
X122899999Y-116350001D02*
X122899999Y-115550000D01*
X122575000Y-116675000D02*
X122899999Y-116350001D01*
X120342499Y-117525000D02*
X121192499Y-116675000D01*
X121192499Y-116675000D02*
X122575000Y-116675000D01*
D64*
X118967501Y-117525000D02*
X120342499Y-117525001D01*
X118967500Y-119125002D02*
X120342498Y-119125002D01*
D67*
X121142981Y-118324520D02*
X122925480Y-118324520D01*
X120342499Y-119125002D02*
X121142981Y-118324520D01*
X122925480Y-118324520D02*
X123399999Y-117850001D01*
X123399999Y-117850001D02*
X123399999Y-115550000D01*
X122800478Y-119924522D02*
X123899999Y-118825001D01*
X121152802Y-119924522D02*
X122800478Y-119924522D01*
X120342498Y-120734826D02*
X121152802Y-119924522D01*
D64*
X118967499Y-120734826D02*
X120342499Y-120734826D01*
D67*
X123899999Y-118825001D02*
X123899999Y-115550000D01*
D64*
X137557524Y-151627121D02*
X136374645Y-152810000D01*
X137557524Y-143082524D02*
X137557524Y-151627121D01*
X134975000Y-140500000D02*
X137557524Y-143082524D01*
X115266916Y-127025000D02*
X114635570Y-126393654D01*
X115275000Y-127025000D02*
X115266916Y-127025000D01*
D67*
X138307524Y-142832524D02*
X138307524Y-148382641D01*
X115850000Y-126350000D02*
X115850000Y-126337500D01*
D65*
X142877765Y-150910669D02*
X142875000Y-150913434D01*
D67*
X135975000Y-140500000D02*
X138307524Y-142832524D01*
X112925000Y-123412500D02*
X111637500Y-123412500D01*
D65*
X144975000Y-152825000D02*
X142877765Y-152825000D01*
D67*
X138307524Y-148382641D02*
X139144645Y-149219762D01*
X115850000Y-126337500D02*
X112925000Y-123412500D01*
D64*
X116487499Y-125700000D02*
X115908362Y-125120863D01*
X136975000Y-140500000D02*
X139357524Y-142882524D01*
X139357524Y-147002879D02*
X139364645Y-147010000D01*
X116500000Y-125700000D02*
X116487499Y-125700000D01*
X139357524Y-142882524D02*
X139357524Y-147002879D01*
X112724997Y-132249997D02*
X112724997Y-129687500D01*
X120725000Y-140500000D02*
X123357524Y-143132524D01*
X123357524Y-151603145D02*
X122150000Y-152810669D01*
X112725000Y-132250000D02*
X112724997Y-132249997D01*
X123357524Y-143132524D02*
X123357524Y-151603145D01*
D67*
X110450000Y-125625000D02*
X110450000Y-124600000D01*
D65*
X130708507Y-150919176D02*
X130725000Y-150935669D01*
D67*
X111825000Y-127000000D02*
X110450000Y-125625000D01*
X111825000Y-131450000D02*
X111825000Y-127000000D01*
D65*
X128644665Y-150919176D02*
X130708507Y-150919176D01*
D67*
X124157524Y-142932524D02*
X124157524Y-148457955D01*
X121725000Y-140500000D02*
X124157524Y-142932524D01*
X124157524Y-148457955D02*
X124920000Y-149220431D01*
D64*
X125132524Y-147003193D02*
X125140000Y-147010669D01*
X125132524Y-142907524D02*
X125132524Y-147003193D01*
X110925000Y-130550000D02*
X110925000Y-129687500D01*
X122725000Y-140500000D02*
X125132524Y-142907524D01*
X109082524Y-151598383D02*
X107880000Y-152800907D01*
X106725000Y-140500000D02*
X109082524Y-142857524D01*
X103650000Y-130575000D02*
X103650000Y-129687500D01*
X109082524Y-142857524D02*
X109082524Y-151598383D01*
D67*
X107725000Y-140500000D02*
X109907524Y-142682524D01*
X109907524Y-148468193D02*
X110650000Y-149210669D01*
X104550000Y-126925000D02*
X105949999Y-125525001D01*
X105949999Y-125525001D02*
X105949999Y-124600000D01*
D65*
X114377162Y-150910669D02*
X114375000Y-150908507D01*
X116550000Y-150910669D02*
X114377162Y-150910669D01*
D67*
X109907524Y-142682524D02*
X109907524Y-148468193D01*
X104550000Y-130575000D02*
X104550000Y-126925000D01*
D64*
X108725000Y-140500000D02*
X110870000Y-142645000D01*
X105450000Y-130575000D02*
X105450000Y-129687500D01*
X110870000Y-142645000D02*
X110870000Y-147000907D01*
D67*
X109950000Y-117725000D02*
X109950000Y-115375000D01*
X110325000Y-115000000D02*
X110325000Y-107980977D01*
X111730977Y-106575000D02*
X112900000Y-106575000D01*
X111550799Y-106755178D02*
X111730977Y-106575000D01*
X110325000Y-107980977D02*
X111550799Y-106755178D01*
X114500000Y-105925000D02*
X115175000Y-106600000D01*
X113059730Y-106413649D02*
X113548379Y-105925000D01*
X109950000Y-115375000D02*
X110325000Y-115000000D01*
X113548379Y-105925000D02*
X114500000Y-105925000D01*
X115175000Y-106600000D02*
X120949999Y-106600000D01*
X112900000Y-106575000D02*
X113059730Y-106415270D01*
X113059730Y-106415270D02*
X113059730Y-106413649D01*
X115574998Y-119125002D02*
X117317499Y-119125002D01*
X111637500Y-120412500D02*
X114287500Y-120412500D01*
X114287500Y-120412500D02*
X115574998Y-119125002D01*
X114837500Y-120912500D02*
X115015174Y-120734826D01*
X111637500Y-120912500D02*
X114837500Y-120912500D01*
X115015174Y-120734826D02*
X117317499Y-120734826D01*
X116214520Y-110110480D02*
X116725000Y-109600000D01*
X113675000Y-110325000D02*
X113889520Y-110110480D01*
X116725000Y-109600000D02*
X120949999Y-109600000D01*
X109350000Y-114600000D02*
X108950000Y-115000000D01*
X108950000Y-115000000D02*
X108950000Y-117725000D01*
X113889520Y-110110480D02*
X116214520Y-110110480D01*
X109225000Y-113050000D02*
X109350000Y-113175000D01*
X109350000Y-113175000D02*
X109350000Y-114600000D01*
D64*
X112574999Y-124037500D02*
X113468843Y-124931344D01*
X113468843Y-124931344D02*
X113468844Y-125226928D01*
D67*
X112574999Y-124037500D02*
X112449999Y-123912500D01*
X112449999Y-123912500D02*
X111637500Y-123912500D01*
D64*
X114391637Y-123954137D02*
X114741636Y-123954137D01*
D67*
X112850000Y-122412500D02*
X111637500Y-122412500D01*
D64*
X112975000Y-122537500D02*
X114391637Y-123954137D01*
D67*
X112975000Y-122537500D02*
X112850000Y-122412500D01*
D64*
X111075000Y-125250000D02*
X112724998Y-126899998D01*
X112724998Y-126899998D02*
X112724998Y-128037500D01*
D67*
X110950000Y-125125000D02*
X111075000Y-125250000D01*
X110950000Y-124600000D02*
X110950000Y-125125000D01*
D64*
X109575000Y-125700000D02*
X110925000Y-127050000D01*
X110925000Y-127050000D02*
X110925000Y-128037500D01*
D67*
X109450000Y-125575000D02*
X109450000Y-124600000D01*
X109575000Y-125700000D02*
X109450000Y-125575000D01*
D64*
X103650000Y-126950000D02*
X103650000Y-128037500D01*
D67*
X105450000Y-125150000D02*
X105325000Y-125275000D01*
D64*
X105325000Y-125275000D02*
X103650000Y-126950000D01*
D67*
X105450000Y-124600000D02*
X105450000Y-125150000D01*
D64*
X105449999Y-127025001D02*
X105449999Y-128037500D01*
D67*
X106950000Y-125525000D02*
X106825000Y-125650000D01*
X106950000Y-124600000D02*
X106950000Y-125525000D01*
D64*
X106825000Y-125650000D02*
X105449999Y-127025001D01*
D67*
X109450000Y-117725000D02*
X109450000Y-115200000D01*
X120949999Y-106100000D02*
X115725000Y-106100000D01*
X114875000Y-105250000D02*
X113055977Y-105250000D01*
X113055977Y-105250000D02*
X112717525Y-105588452D01*
X109875000Y-114775000D02*
X109875000Y-106950000D01*
X109450000Y-115200000D02*
X109875000Y-114775000D01*
X109875000Y-106950000D02*
X111236548Y-105588452D01*
X115725000Y-106100000D02*
X114875000Y-105250000D01*
X111236548Y-105588452D02*
X112717525Y-105588452D01*
X112431512Y-107041867D02*
X113597562Y-107041867D01*
X114229073Y-107100000D02*
X113884251Y-106755178D01*
X110450000Y-115550000D02*
X110775000Y-115225000D01*
X110775000Y-115225000D02*
X110775000Y-108698379D01*
X113597562Y-107041867D02*
X113884251Y-106755178D01*
X120949999Y-107100000D02*
X114229073Y-107100000D01*
X110775000Y-108698379D02*
X112431512Y-107041867D01*
X110450000Y-117725000D02*
X110450000Y-115550000D01*
X110950000Y-115825000D02*
X111250000Y-115525000D01*
X114703096Y-107921904D02*
X115025000Y-107600000D01*
X110950000Y-117725000D02*
X110950000Y-115825000D01*
X112717525Y-107921904D02*
X114703096Y-107921904D01*
X111250000Y-109389429D02*
X112717525Y-107921904D01*
X111250000Y-115525000D02*
X111250000Y-109389429D01*
X115025000Y-107600000D02*
X120949999Y-107600000D01*
X116475000Y-109100000D02*
X116025000Y-109550000D01*
X111920000Y-111180000D02*
X111920000Y-117040000D01*
X112147500Y-118412500D02*
X111637500Y-118412500D01*
X111920000Y-117040000D02*
X112360000Y-117480000D01*
X120949999Y-109100000D02*
X116475000Y-109100000D01*
X116025000Y-109550000D02*
X113550000Y-109550000D01*
X112360000Y-118200000D02*
X112147500Y-118412500D01*
X113550000Y-109550000D02*
X111920000Y-111180000D01*
X112360000Y-117480000D02*
X112360000Y-118200000D01*
X125399999Y-100374999D02*
X125399999Y-104150000D01*
X106450001Y-112257359D02*
X106560661Y-112146699D01*
X106450000Y-117725000D02*
X106450001Y-112257359D01*
X124975000Y-99950000D02*
X125399999Y-100374999D01*
X125375000Y-99175000D02*
X125899999Y-99699999D01*
X105949999Y-117725000D02*
X105949999Y-111696701D01*
X125899999Y-99699999D02*
X125899999Y-104150000D01*
X105949999Y-111696701D02*
X106030331Y-111616369D01*
X124800000Y-99175000D02*
X125375000Y-99175000D01*
X115875000Y-108775000D02*
X116050000Y-108600000D01*
X116050000Y-108600000D02*
X120949999Y-108600000D01*
X107449999Y-117725000D02*
X107450000Y-113378680D01*
X107450000Y-113378680D02*
X107621321Y-113207359D01*
X115600000Y-108100000D02*
X120949999Y-108100000D01*
X106950000Y-117725000D02*
X106950001Y-112818019D01*
X106950001Y-112818019D02*
X107090991Y-112677029D01*
X114850000Y-108850000D02*
X115600000Y-108100000D01*
X108450000Y-114500000D02*
X108681981Y-114268019D01*
X108449999Y-117725000D02*
X108450000Y-114500000D01*
X127899999Y-115550000D02*
X127899999Y-117825001D01*
X127899999Y-117825001D02*
X127200000Y-118525000D01*
X107950000Y-117725000D02*
X107950001Y-113939339D01*
X127399999Y-115550000D02*
X127399999Y-117050001D01*
X107950001Y-113939339D02*
X108151651Y-113737689D01*
X127399999Y-117050001D02*
X126525000Y-117925000D01*
X102250000Y-123575000D02*
X103125000Y-123575000D01*
X103125000Y-123575000D02*
X103287500Y-123412500D01*
X103287500Y-123412500D02*
X104762500Y-123412500D01*
D66*
X119625000Y-113100000D02*
X119199997Y-113525003D01*
X119199997Y-113525003D02*
X119199997Y-114299999D01*
X120949999Y-113100000D02*
X119625000Y-113100000D01*
D67*
X102250000Y-124375000D02*
X103300000Y-124375000D01*
X103300000Y-124375000D02*
X103762500Y-123912500D01*
X103762500Y-123912500D02*
X104762500Y-123912500D01*
X113765480Y-121912499D02*
X113765480Y-121921980D01*
X142000000Y-141985669D02*
X142000000Y-144998169D01*
X139035669Y-141310669D02*
X141325000Y-141310669D01*
X114044520Y-122187020D02*
X114387499Y-122529999D01*
D65*
X144975000Y-148250000D02*
X144975000Y-147475000D01*
D67*
X114030520Y-122187020D02*
X114044520Y-122187020D01*
D65*
X144975000Y-147475000D02*
X144505834Y-147005834D01*
D67*
X111624999Y-121912499D02*
X113765480Y-121912499D01*
X141325000Y-141310669D02*
X142000000Y-141985669D01*
X115082500Y-122542500D02*
X114400000Y-122542500D01*
X114387499Y-122529999D02*
X114387499Y-122567500D01*
D65*
X144505834Y-147005834D02*
X143180000Y-147005834D01*
D67*
X113765480Y-121921980D02*
X114030520Y-122187020D01*
X138225000Y-140500000D02*
X139035669Y-141310669D01*
X115100000Y-122525000D02*
X115082500Y-122542500D01*
X127869665Y-141955334D02*
X127869665Y-145058838D01*
X109050000Y-129025000D02*
X109610000Y-128465000D01*
X108950000Y-126688501D02*
X108950000Y-124600000D01*
X109610000Y-127348501D02*
X108950000Y-126688501D01*
D65*
X130725000Y-146360669D02*
X129600572Y-146360669D01*
D67*
X127225000Y-141310669D02*
X127869665Y-141955334D01*
X123975000Y-140500000D02*
X124785669Y-141310669D01*
X124785669Y-141310669D02*
X127225000Y-141310669D01*
X109610000Y-128465000D02*
X109610000Y-127348501D01*
D65*
X129600572Y-146360669D02*
X128949665Y-147011576D01*
D67*
X108650000Y-129025000D02*
X109050000Y-129025000D01*
D65*
X115345238Y-146335669D02*
X114680000Y-147000907D01*
D67*
X106795000Y-127348499D02*
X107449999Y-126693500D01*
X106795000Y-128216536D02*
X106795000Y-127348499D01*
X113600000Y-141935669D02*
X113600000Y-145048169D01*
X110810669Y-141310669D02*
X112975000Y-141310669D01*
D65*
X116550000Y-146335669D02*
X115345238Y-146335669D01*
D67*
X110000000Y-140500000D02*
X110810669Y-141310669D01*
X112975000Y-141310669D02*
X113600000Y-141935669D01*
X106803464Y-128225000D02*
X106795000Y-128216536D01*
X107449999Y-126693500D02*
X107449999Y-124600000D01*
X104762500Y-121912500D02*
X99862500Y-121912500D01*
X99862500Y-121912500D02*
X98250000Y-123525000D01*
X111637500Y-119912500D02*
X113862500Y-119912500D01*
X116250000Y-117525000D02*
X117317498Y-117525000D01*
X113862500Y-119912500D02*
X116250000Y-117525000D01*
X101075000Y-125025000D02*
X101075000Y-123475000D01*
X101637500Y-122912500D02*
X104762500Y-122912500D01*
X101075000Y-123475000D02*
X101637500Y-122912500D01*
X100862500Y-122412500D02*
X104762500Y-122412500D01*
X99525000Y-125025000D02*
X99525000Y-123750000D01*
X99525000Y-123750000D02*
X100862500Y-122412500D01*
X98812500Y-121412500D02*
X98250000Y-121975000D01*
X104762500Y-121412500D02*
X98812500Y-121412500D01*
X131024506Y-119049511D02*
X130700483Y-119049510D01*
X130449995Y-117324998D02*
X130449996Y-118799023D01*
D66*
X131250001Y-119425002D02*
X131400001Y-119425002D01*
D67*
X129899999Y-116775001D02*
X130449995Y-117324998D01*
X130449996Y-118799023D02*
X130700483Y-119049510D01*
X131399995Y-119425002D02*
X131024506Y-119049511D01*
X129899999Y-115549999D02*
X129899999Y-116775001D01*
D64*
X131400001Y-119425002D02*
X131399996Y-121000001D01*
D66*
X133149999Y-118025002D02*
X132124999Y-117000000D01*
D64*
X133149999Y-118025002D02*
X134750002Y-118024999D01*
D66*
X130400002Y-115550003D02*
X130400002Y-116375001D01*
X132124999Y-117000000D02*
X131025001Y-117000000D01*
X130400002Y-116375001D02*
X131025001Y-117000000D01*
X133399994Y-113600000D02*
X134099998Y-114300004D01*
X132349996Y-113599999D02*
X133399994Y-113600000D01*
X114750001Y-114300000D02*
X114750001Y-113112500D01*
X117856250Y-112368750D02*
X118125000Y-112100000D01*
X118125000Y-112100000D02*
X120949999Y-112100000D01*
X114750001Y-113112500D02*
X115493750Y-112368750D01*
X115493750Y-112368750D02*
X117856250Y-112368750D01*
D67*
X136125000Y-109100000D02*
X132349999Y-109100000D01*
X128650000Y-97500000D02*
X129475000Y-98325000D01*
X129475000Y-98325000D02*
X135450000Y-98325000D01*
X128650000Y-96925000D02*
X128650000Y-97500000D01*
X136575000Y-108650000D02*
X136125000Y-109100000D01*
X104050000Y-112882982D02*
X102512500Y-112882982D01*
X104762500Y-118412500D02*
X104762500Y-113595482D01*
X104762500Y-113595482D02*
X104050000Y-112882982D01*
X132349999Y-108600000D02*
X135500000Y-108600000D01*
X135500000Y-108600000D02*
X136200000Y-107900000D01*
X136200000Y-107900000D02*
X140900000Y-107900000D01*
X115100000Y-121575000D02*
X115092500Y-121582500D01*
X139475000Y-140500000D02*
X140675000Y-140500000D01*
X111624999Y-121412500D02*
X114192500Y-121412500D01*
X115092500Y-121582500D02*
X114400000Y-121582500D01*
X114192500Y-121412500D02*
X114387500Y-121607500D01*
X108449999Y-127162500D02*
X108449999Y-124600000D01*
X108649999Y-127362500D02*
X108449999Y-127162500D01*
X108650000Y-128225000D02*
X108649999Y-127362500D01*
X125228225Y-140500000D02*
X126600001Y-140500000D01*
X104050000Y-111275000D02*
X104050000Y-111307982D01*
X115174500Y-110900000D02*
X117075000Y-110900000D01*
X105500000Y-109825000D02*
X104050000Y-111275000D01*
X117375000Y-110600000D02*
X120949999Y-110600000D01*
X115000000Y-111074500D02*
X115174500Y-110900000D01*
X117075000Y-110900000D02*
X117375000Y-110600000D01*
X113280000Y-111820000D02*
X114650000Y-110450000D01*
X113575000Y-117200000D02*
X112975000Y-117200000D01*
X117000000Y-110100000D02*
X120949999Y-110100000D01*
X113280000Y-114375000D02*
X113280000Y-111820000D01*
X112420000Y-116645000D02*
X112420000Y-115235000D01*
X116650000Y-110450000D02*
X117000000Y-110100000D01*
X112975000Y-117200000D02*
X112420000Y-116645000D01*
X112420000Y-115235000D02*
X113280000Y-114375000D01*
X113875000Y-117500000D02*
X113575000Y-117200000D01*
X114650000Y-110450000D02*
X116650000Y-110450000D01*
X113437500Y-119412500D02*
X113875000Y-118975000D01*
X111637500Y-119412500D02*
X113437500Y-119412500D01*
X113875000Y-118975000D02*
X113875000Y-117500000D01*
X117415077Y-111375000D02*
X117690077Y-111100000D01*
X114425000Y-111950000D02*
X115125000Y-111950000D01*
X115700000Y-111375000D02*
X117415077Y-111375000D01*
X115125000Y-111950000D02*
X115700000Y-111375000D01*
X105450000Y-110725000D02*
X105450000Y-117725000D01*
X117690077Y-111100000D02*
X120949999Y-111100000D01*
X111637500Y-118912500D02*
X112937500Y-118912500D01*
X112937500Y-118912500D02*
X113200000Y-118650000D01*
X107754999Y-128076837D02*
X107754999Y-127362500D01*
X107950000Y-127167499D02*
X107950000Y-124600000D01*
X107750000Y-128081836D02*
X107754999Y-128076837D01*
X111225000Y-140500000D02*
X112325001Y-140500000D01*
X107754999Y-127362500D02*
X107950000Y-127167499D01*
X107750000Y-128225000D02*
X107750000Y-128081836D01*
D69*
X150275000Y-117250000D02*
X151825000Y-117250000D01*
D64*
X156500000Y-126218426D02*
X157650000Y-125068426D01*
X156775000Y-117193426D02*
X154000000Y-117193426D01*
D69*
X149910000Y-116885000D02*
X150275000Y-117250000D01*
D64*
X157650000Y-118068426D02*
X156775000Y-117193426D01*
X157650000Y-125068426D02*
X157650000Y-118068426D01*
X154000000Y-126218426D02*
X156500000Y-126218426D01*
D69*
X149910000Y-114550000D02*
X149910000Y-116885000D01*
X148640000Y-114550000D02*
X148640000Y-116885000D01*
X148640000Y-116885000D02*
X148275000Y-117250000D01*
X148275000Y-117250000D02*
X146750000Y-117250000D01*
D66*
X95325000Y-110098505D02*
X95325000Y-108486005D01*
X95325000Y-108486005D02*
X95387500Y-108423505D01*
X95350000Y-105186005D02*
X95387500Y-105148505D01*
X95350000Y-106798505D02*
X95350000Y-105186005D01*
D67*
X132349999Y-106600000D02*
X134500000Y-106600000D01*
X134500000Y-106600000D02*
X135600000Y-105500000D01*
X135600000Y-105500000D02*
X142500000Y-105500000D01*
X132349999Y-109600000D02*
X136625000Y-109600000D01*
X137125000Y-109100000D02*
X140100000Y-109100000D01*
X136625000Y-109600000D02*
X137125000Y-109100000D01*
X135900000Y-106700000D02*
X141700000Y-106700000D01*
X135000000Y-107600000D02*
X135900000Y-106700000D01*
X132349999Y-107600000D02*
X135000000Y-107600000D01*
X137361520Y-109700980D02*
X139699416Y-109700980D01*
X136962500Y-110100000D02*
X137361520Y-109700980D01*
X132349999Y-110100000D02*
X136962500Y-110100000D01*
X132349999Y-108100000D02*
X135250000Y-108100000D01*
X135250000Y-108100000D02*
X136050000Y-107300000D01*
X141300000Y-107300000D02*
X143340000Y-107300000D01*
X136050000Y-107300000D02*
X141300000Y-107300000D01*
X137499020Y-110300980D02*
X139299416Y-110300980D01*
X137200000Y-110600000D02*
X137499020Y-110300980D01*
X132349999Y-110600000D02*
X137200000Y-110600000D01*
X145800000Y-114550000D02*
X147370000Y-114550000D01*
X145800000Y-117950000D02*
X145800000Y-114550000D01*
X144950000Y-118800000D02*
X145800000Y-117950000D01*
X120949999Y-111600000D02*
X122375000Y-111600000D01*
X138025000Y-118800000D02*
X144950000Y-118800000D01*
X124275000Y-119725000D02*
X124275000Y-119250000D01*
X124275000Y-119250000D02*
X124399999Y-119125001D01*
X124399999Y-119125001D02*
X124399999Y-115550000D01*
X151180000Y-107555000D02*
X151175000Y-107550000D01*
X151180000Y-109600000D02*
X151180000Y-107555000D01*
X134100000Y-100000000D02*
X129200000Y-100000000D01*
X129200000Y-100000000D02*
X127399999Y-101800001D01*
X148400000Y-103225000D02*
X147200000Y-102025000D01*
X127399999Y-101800001D02*
X127399999Y-104150000D01*
X136125000Y-102025000D02*
X134100000Y-100000000D01*
X147200000Y-102025000D02*
X136125000Y-102025000D01*
X127899999Y-102200001D02*
X129525000Y-100575000D01*
X144875000Y-103225000D02*
X145900000Y-103225000D01*
X147375000Y-107550000D02*
X147375000Y-109595000D01*
X147375000Y-109595000D02*
X147370000Y-109600000D01*
X127899999Y-104150000D02*
X127899999Y-102200001D01*
X135825000Y-102750000D02*
X144400000Y-102750000D01*
X133650000Y-100575000D02*
X135825000Y-102750000D01*
X129525000Y-100575000D02*
X133650000Y-100575000D01*
X144400000Y-102750000D02*
X144875000Y-103225000D01*
X140350000Y-112625000D02*
X142125000Y-112625000D01*
X137700000Y-110900000D02*
X138900000Y-110900000D01*
X137500000Y-111100000D02*
X137700000Y-110900000D01*
X132349999Y-111100000D02*
X137500000Y-111100000D01*
X138100000Y-112100000D02*
X132349999Y-112100000D01*
X138850000Y-117625000D02*
X142125000Y-117625000D01*
X137800000Y-111500000D02*
X137700000Y-111600000D01*
X139600000Y-115125000D02*
X142125000Y-115125000D01*
X138500000Y-111500000D02*
X137800000Y-111500000D01*
X137700000Y-111600000D02*
X132349999Y-111600000D01*
X132349999Y-107100000D02*
X134750000Y-107100000D01*
X135750000Y-106100000D02*
X142100000Y-106100000D01*
X134750000Y-107100000D02*
X135750000Y-106100000D01*
D64*
X129999999Y-94975000D02*
X129970000Y-95004999D01*
X131620000Y-94975000D02*
X129999999Y-94975000D01*
X134672500Y-94975000D02*
X134690000Y-94992500D01*
X133100000Y-94975000D02*
X134672500Y-94975000D01*
D67*
X123050000Y-100625002D02*
X123050000Y-99750000D01*
X123899999Y-101475001D02*
X123050000Y-100625002D01*
X121820000Y-98520000D02*
X123050000Y-99750000D01*
X123899999Y-101475001D02*
X123899999Y-104150000D01*
X113790000Y-98520000D02*
X121820000Y-98520000D01*
X122445000Y-100970002D02*
X122445000Y-100170000D01*
X121800000Y-99525000D02*
X113525000Y-99525000D01*
X123399999Y-101925001D02*
X122445000Y-100970002D01*
X113525000Y-99525000D02*
X112520000Y-98520000D01*
X123399999Y-104150000D02*
X123399999Y-101925001D01*
X122445000Y-100170000D02*
X121800000Y-99525000D01*
X124899999Y-100799999D02*
X124899999Y-104150000D01*
X124118244Y-100018244D02*
X124899999Y-100799999D01*
X124118244Y-98843244D02*
X124118244Y-100018244D01*
X123800000Y-98525000D02*
X124118244Y-98843244D01*
X123500000Y-98525000D02*
X123800000Y-98525000D01*
X123543733Y-99293733D02*
X123543733Y-100243733D01*
X124399999Y-101099999D02*
X124399999Y-104150000D01*
X123543733Y-100243733D02*
X124399999Y-101099999D01*
X145150000Y-104450000D02*
X151925000Y-104450000D01*
X156925000Y-106575000D02*
X158190000Y-107840000D01*
X128399999Y-104150000D02*
X128399999Y-102625001D01*
X128399999Y-102625001D02*
X129900000Y-101125000D01*
X154050000Y-106575000D02*
X156925000Y-106575000D01*
X144250000Y-103550000D02*
X145150000Y-104450000D01*
X129900000Y-101125000D02*
X133225000Y-101125000D01*
X135650000Y-103550000D02*
X144250000Y-103550000D01*
X151925000Y-104450000D02*
X154050000Y-106575000D01*
X133225000Y-101125000D02*
X135650000Y-103550000D01*
X128899999Y-104150000D02*
X128899999Y-103075001D01*
X135400000Y-104200000D02*
X143975000Y-104200000D01*
X151500000Y-105200000D02*
X154140000Y-107840000D01*
X128899999Y-103075001D02*
X130275000Y-101700000D01*
X154140000Y-107840000D02*
X155650000Y-107840000D01*
X130275000Y-101700000D02*
X132900000Y-101700000D01*
X143975000Y-104200000D02*
X144975000Y-105200000D01*
X144975000Y-105200000D02*
X151500000Y-105200000D01*
X132900000Y-101700000D02*
X135400000Y-104200000D01*
X156600000Y-124175000D02*
X155950000Y-124825000D01*
X127125000Y-124825000D02*
X125399999Y-123099999D01*
X125399999Y-123099999D02*
X125399999Y-115550000D01*
X155950000Y-124825000D02*
X127125000Y-124825000D01*
X156440000Y-103550000D02*
X158190000Y-105300000D01*
X134750000Y-98800000D02*
X128725000Y-98800000D01*
X153450000Y-103550000D02*
X150675000Y-100775000D01*
X126399999Y-101125001D02*
X126399999Y-104150000D01*
X150675000Y-100775000D02*
X136725000Y-100775000D01*
X128725000Y-98800000D02*
X126399999Y-101125001D01*
X153450000Y-103550000D02*
X156440000Y-103550000D01*
X136725000Y-100775000D02*
X134750000Y-98800000D01*
X129899999Y-104150000D02*
X129899999Y-102950001D01*
X130350000Y-102500000D02*
X130525000Y-102325000D01*
X131620000Y-97570000D02*
X131625000Y-97575000D01*
X131620000Y-96625000D02*
X131620000Y-97570000D01*
X129899999Y-102950001D02*
X130350000Y-102500000D01*
X130525000Y-102325000D02*
X131625000Y-102325000D01*
X133100000Y-103000000D02*
X130725000Y-103000000D01*
X130399999Y-103325001D02*
X130399999Y-104150000D01*
X130725000Y-103000000D02*
X130399999Y-103325001D01*
X133025000Y-96625000D02*
X133100000Y-96625000D01*
X133100000Y-96625000D02*
X133100000Y-97575000D01*
X139475000Y-125825000D02*
X140100000Y-126450000D01*
X124899999Y-115550000D02*
X124899999Y-123774999D01*
X139825000Y-129385000D02*
X139825000Y-129937500D01*
X140100000Y-129110000D02*
X139825000Y-129385000D01*
X140100000Y-126450000D02*
X140100000Y-129110000D01*
X126950000Y-125825000D02*
X139475000Y-125825000D01*
X124899999Y-123774999D02*
X126950000Y-125825000D01*
X139825000Y-129937500D02*
X139650000Y-130112500D01*
D65*
X144975000Y-149800000D02*
X144975000Y-151175000D01*
X130725000Y-149285669D02*
X130725000Y-147910669D01*
X116550000Y-147885669D02*
X116550000Y-149260669D01*
D67*
X149925000Y-101400000D02*
X153825000Y-105300000D01*
X129000000Y-99375000D02*
X134400000Y-99375000D01*
X126899999Y-101475001D02*
X129000000Y-99375000D01*
X134400000Y-99375000D02*
X136425000Y-101400000D01*
X153825000Y-105300000D02*
X155650000Y-105300000D01*
X126899999Y-104150000D02*
X126899999Y-101475001D01*
X136425000Y-101400000D02*
X149925000Y-101400000D01*
X156600000Y-122775000D02*
X148525000Y-122775000D01*
X148525000Y-122775000D02*
X147250000Y-124050000D01*
X147250000Y-124050000D02*
X127400000Y-124050000D01*
X125899999Y-122549999D02*
X125899999Y-115550000D01*
X127400000Y-124050000D02*
X125899999Y-122549999D01*
X132349999Y-106100000D02*
X134175000Y-106100000D01*
X143625000Y-104850000D02*
X144625000Y-105850000D01*
X152925000Y-107750000D02*
X152925000Y-111475000D01*
X151025000Y-105850000D02*
X152925000Y-107750000D01*
X151180000Y-113220000D02*
X151180000Y-114550000D01*
X144625000Y-105850000D02*
X151025000Y-105850000D01*
X135425000Y-104850000D02*
X143625000Y-104850000D01*
X134175000Y-106100000D02*
X135425000Y-104850000D01*
X152925000Y-111475000D02*
X151180000Y-113220000D01*
%TA.AperFunction,Conductor*%
G36*
X99853377Y-112851078D02*
G01*
X99899348Y-112857130D01*
X99972340Y-112866740D01*
X100004111Y-112875253D01*
X100107271Y-112917983D01*
X100135754Y-112934427D01*
X100224344Y-113002405D01*
X100247595Y-113025656D01*
X100315573Y-113114246D01*
X100332017Y-113142729D01*
X100374747Y-113245889D01*
X100383260Y-113277660D01*
X100398922Y-113396621D01*
X100400000Y-113413068D01*
X100400000Y-116475000D01*
X100875000Y-116950000D01*
X101454599Y-116950000D01*
X101466949Y-116950607D01*
X101643527Y-116967999D01*
X101667744Y-116972815D01*
X101831596Y-117022518D01*
X101854416Y-117031971D01*
X102005412Y-117112680D01*
X102025950Y-117126403D01*
X102163114Y-117238971D01*
X102172275Y-117247275D01*
X102202725Y-117277725D01*
X102211029Y-117286886D01*
X102323597Y-117424050D01*
X102337320Y-117444588D01*
X102418029Y-117595584D01*
X102427482Y-117618403D01*
X102477185Y-117782256D01*
X102482002Y-117806476D01*
X102499393Y-117983051D01*
X102500000Y-117995401D01*
X102500000Y-118950000D01*
X103325000Y-119775000D01*
X105095913Y-119775000D01*
X105128525Y-119779294D01*
X105148640Y-119784684D01*
X105205123Y-119817295D01*
X105207705Y-119819877D01*
X105240319Y-119876371D01*
X105241264Y-119879899D01*
X105241264Y-119945101D01*
X105240319Y-119948629D01*
X105207705Y-120005123D01*
X105205123Y-120007705D01*
X105148640Y-120040316D01*
X105128525Y-120045706D01*
X105095913Y-120050000D01*
X103470401Y-120050000D01*
X103458051Y-120049393D01*
X103281473Y-120032001D01*
X103257256Y-120027185D01*
X103093403Y-119977482D01*
X103070584Y-119968029D01*
X102919588Y-119887320D01*
X102899050Y-119873597D01*
X102761886Y-119761029D01*
X102752725Y-119752725D01*
X102397275Y-119397275D01*
X102388971Y-119388114D01*
X102276403Y-119250950D01*
X102262680Y-119230412D01*
X102181971Y-119079416D01*
X102172518Y-119056596D01*
X102128823Y-118912552D01*
X102122815Y-118892744D01*
X102117998Y-118868524D01*
X102100607Y-118691949D01*
X102100000Y-118679599D01*
X102100000Y-118000000D01*
X101600000Y-117500000D01*
X99226457Y-117500000D01*
X99210010Y-117498922D01*
X99035820Y-117475989D01*
X99004049Y-117467476D01*
X98849426Y-117403429D01*
X98820940Y-117386982D01*
X98688161Y-117285097D01*
X98664903Y-117261839D01*
X98563018Y-117129060D01*
X98546571Y-117100574D01*
X98482524Y-116945951D01*
X98474011Y-116914180D01*
X98451078Y-116739990D01*
X98450000Y-116723543D01*
X98450000Y-113413068D01*
X98451078Y-113396621D01*
X98466740Y-113277660D01*
X98475253Y-113245889D01*
X98517983Y-113142729D01*
X98534427Y-113114246D01*
X98602405Y-113025656D01*
X98625656Y-113002405D01*
X98714246Y-112934427D01*
X98742729Y-112917983D01*
X98845889Y-112875253D01*
X98877660Y-112866740D01*
X98950652Y-112857130D01*
X98996623Y-112851078D01*
X99013068Y-112850000D01*
X99836932Y-112850000D01*
X99853377Y-112851078D01*
G37*
%TD.AperFunction*%
%TA.AperFunction,Conductor*%
G36*
X101767121Y-118045002D02*
G01*
X101813614Y-118098658D01*
X101825000Y-118151000D01*
X101825000Y-119150000D01*
X102950000Y-120275000D01*
X105124000Y-120275000D01*
X105192121Y-120295002D01*
X105238614Y-120348658D01*
X105250000Y-120401000D01*
X105250000Y-120424000D01*
X105229998Y-120492121D01*
X105176342Y-120538614D01*
X105124000Y-120550000D01*
X102027938Y-120550000D01*
X101959817Y-120529998D01*
X101937947Y-120512191D01*
X100750000Y-119300000D01*
X96277190Y-119300000D01*
X96209069Y-119279998D01*
X96188095Y-119263095D01*
X96036905Y-119111905D01*
X96002879Y-119049593D01*
X96000000Y-119022810D01*
X96000000Y-118277190D01*
X96020002Y-118209069D01*
X96036905Y-118188095D01*
X96163095Y-118061905D01*
X96225407Y-118027879D01*
X96252190Y-118025000D01*
X101699000Y-118025000D01*
X101767121Y-118045002D01*
G37*
%TD.AperFunction*%
%TA.AperFunction,Conductor*%
G36*
X96517183Y-133043907D02*
G01*
X96528996Y-133053996D01*
X97221004Y-133746004D01*
X97248781Y-133800521D01*
X97250000Y-133816008D01*
X97250000Y-148258992D01*
X97231093Y-148317183D01*
X97221004Y-148328996D01*
X96528996Y-149021004D01*
X96474479Y-149048781D01*
X96458992Y-149050000D01*
X94299000Y-149050000D01*
X94240809Y-149031093D01*
X94204845Y-148981593D01*
X94200000Y-148951000D01*
X94200000Y-133124000D01*
X94218907Y-133065809D01*
X94268407Y-133029845D01*
X94299000Y-133025000D01*
X96458992Y-133025000D01*
X96517183Y-133043907D01*
G37*
%TD.AperFunction*%
%TA.AperFunction,Conductor*%
G36*
X129303527Y-148562842D02*
G01*
X129449427Y-148583685D01*
X129487955Y-148595721D01*
X129609505Y-148656497D01*
X129628755Y-148668394D01*
X129706869Y-148726979D01*
X129729657Y-148749066D01*
X129739665Y-148761576D01*
X129805626Y-148844027D01*
X129826771Y-148882894D01*
X129866538Y-149002195D01*
X129871290Y-149021326D01*
X129892924Y-149151130D01*
X129894638Y-149172165D01*
X129869696Y-158973357D01*
X129867249Y-158997747D01*
X129846203Y-159102977D01*
X129842184Y-159118111D01*
X129825000Y-159169663D01*
X129810307Y-159199706D01*
X129776581Y-159250296D01*
X129760842Y-159269492D01*
X129684125Y-159346209D01*
X129651379Y-159369812D01*
X129577673Y-159406665D01*
X129561169Y-159413501D01*
X129431498Y-159456725D01*
X129407288Y-159462216D01*
X129233377Y-159483955D01*
X129227449Y-159484696D01*
X129211821Y-159485669D01*
X118055095Y-159485669D01*
X118034381Y-159483955D01*
X117901699Y-159461841D01*
X117887801Y-159458708D01*
X117730926Y-159413886D01*
X117709193Y-159405432D01*
X117637952Y-159369812D01*
X117605205Y-159346209D01*
X117490699Y-159231703D01*
X117460260Y-159182453D01*
X117401131Y-159005067D01*
X117394665Y-158965222D01*
X117394665Y-152870533D01*
X117395931Y-152852714D01*
X117417529Y-152701526D01*
X117425273Y-152672555D01*
X117463476Y-152577049D01*
X117479664Y-152548246D01*
X117539295Y-152468737D01*
X117551000Y-152455241D01*
X117610842Y-152395399D01*
X117630045Y-152379656D01*
X117683748Y-152343854D01*
X117706841Y-152331706D01*
X117805644Y-152292184D01*
X117834613Y-152284441D01*
X117985803Y-152262842D01*
X118003622Y-152261576D01*
X120810708Y-152261576D01*
X120828527Y-152262842D01*
X120979717Y-152284441D01*
X121008686Y-152292184D01*
X121085092Y-152322747D01*
X121104192Y-152330387D01*
X121132995Y-152346575D01*
X121212504Y-152406206D01*
X121226000Y-152417911D01*
X121285842Y-152477753D01*
X121301585Y-152496956D01*
X121337387Y-152550659D01*
X121349535Y-152573752D01*
X121389057Y-152672555D01*
X121396801Y-152701526D01*
X121418399Y-152852714D01*
X121419665Y-152870533D01*
X121419665Y-152886576D01*
X121432357Y-153011576D01*
X121433410Y-153015853D01*
X121433411Y-153015860D01*
X121442991Y-153054777D01*
X121444665Y-153061576D01*
X121469665Y-153136576D01*
X121544665Y-153261576D01*
X121644665Y-153361576D01*
X121719665Y-153411576D01*
X121844665Y-153461576D01*
X122019665Y-153486576D01*
X122619614Y-153486469D01*
X123403002Y-153486329D01*
X123403006Y-153486329D01*
X123407125Y-153486328D01*
X123411207Y-153485789D01*
X123411211Y-153485789D01*
X123591524Y-153461991D01*
X123591533Y-153461989D01*
X123594665Y-153461576D01*
X123819664Y-153408481D01*
X123827665Y-153403849D01*
X123993840Y-153307643D01*
X123993843Y-153307641D01*
X124000054Y-153304045D01*
X124148797Y-153164797D01*
X124169370Y-153130036D01*
X124239171Y-153012096D01*
X124239173Y-153012092D01*
X124240574Y-153009725D01*
X124313363Y-152857817D01*
X124314891Y-152851898D01*
X124314893Y-152851893D01*
X124343326Y-152741762D01*
X124344665Y-152736576D01*
X124358150Y-152573755D01*
X124360627Y-152543847D01*
X124360627Y-152543840D01*
X124360834Y-152541344D01*
X124369638Y-149146834D01*
X124371352Y-149126452D01*
X124392426Y-149000009D01*
X124399723Y-148973932D01*
X124438476Y-148877049D01*
X124454664Y-148848245D01*
X124510068Y-148774373D01*
X124532156Y-148751584D01*
X124634240Y-148669916D01*
X124656603Y-148655607D01*
X124776379Y-148595719D01*
X124814903Y-148583685D01*
X124960803Y-148562842D01*
X124978622Y-148561576D01*
X129285708Y-148561576D01*
X129303527Y-148562842D01*
G37*
%TD.AperFunction*%
%TA.AperFunction,Conductor*%
G36*
X112817121Y-144321850D02*
G01*
X112863614Y-144375506D01*
X112875000Y-144427848D01*
X112875000Y-145501848D01*
X113425000Y-145501848D01*
X113425000Y-144427848D01*
X113445002Y-144359727D01*
X113498658Y-144313234D01*
X113551000Y-144301848D01*
X113649000Y-144301848D01*
X113717121Y-144321850D01*
X113763614Y-144375506D01*
X113775000Y-144427848D01*
X113775000Y-145501848D01*
X114075000Y-145501848D01*
X114075000Y-144427848D01*
X114095002Y-144359727D01*
X114148658Y-144313234D01*
X114201000Y-144301848D01*
X114966043Y-144301848D01*
X114983862Y-144303114D01*
X115135052Y-144324713D01*
X115164021Y-144332456D01*
X115240427Y-144363019D01*
X115259527Y-144370659D01*
X115288330Y-144386847D01*
X115367839Y-144446478D01*
X115381335Y-144458183D01*
X115441177Y-144518025D01*
X115456920Y-144537228D01*
X115492722Y-144590931D01*
X115504870Y-144614024D01*
X115544392Y-144712827D01*
X115552135Y-144741796D01*
X115573734Y-144892986D01*
X115575000Y-144910805D01*
X115575000Y-146992891D01*
X115573734Y-147010710D01*
X115552432Y-147159828D01*
X115552136Y-147161898D01*
X115544392Y-147190869D01*
X115520000Y-147251848D01*
X115506671Y-147285171D01*
X115488936Y-147315995D01*
X115428198Y-147393661D01*
X115421478Y-147401561D01*
X115388125Y-147437648D01*
X115385814Y-147440148D01*
X115361616Y-147460487D01*
X115297539Y-147501848D01*
X115281501Y-147512200D01*
X115268029Y-147519767D01*
X115167641Y-147568317D01*
X115130607Y-147579618D01*
X114983862Y-147600582D01*
X114966043Y-147601848D01*
X112183957Y-147601848D01*
X112166138Y-147600582D01*
X112020238Y-147579739D01*
X111981714Y-147567705D01*
X111860157Y-147506926D01*
X111840914Y-147495033D01*
X111764400Y-147437648D01*
X111739200Y-147412448D01*
X111681055Y-147334921D01*
X111670307Y-147317914D01*
X111639949Y-147260119D01*
X111632530Y-147243032D01*
X111603501Y-147159828D01*
X111598229Y-147139315D01*
X111576761Y-147012268D01*
X111575000Y-146991275D01*
X111575000Y-144910805D01*
X111576266Y-144892986D01*
X111597735Y-144742705D01*
X111606161Y-144712062D01*
X111646023Y-144616394D01*
X111655483Y-144598077D01*
X111692397Y-144539014D01*
X111710150Y-144516698D01*
X111791177Y-144435671D01*
X111810380Y-144419928D01*
X111864083Y-144384126D01*
X111887176Y-144371978D01*
X111985979Y-144332456D01*
X112014948Y-144324713D01*
X112166138Y-144303114D01*
X112183957Y-144301848D01*
X112749000Y-144301848D01*
X112817121Y-144321850D01*
G37*
%TD.AperFunction*%
%TA.AperFunction,Conductor*%
G36*
X106382784Y-141806715D02*
G01*
X106553583Y-141828065D01*
X106594304Y-141840394D01*
X106663062Y-141874773D01*
X106685425Y-141889082D01*
X106794555Y-141976386D01*
X106804938Y-141985680D01*
X108170954Y-143351696D01*
X108178655Y-143360128D01*
X108287222Y-143490408D01*
X108307414Y-143524276D01*
X108344390Y-143616716D01*
X108352136Y-143645692D01*
X108373734Y-143796880D01*
X108375000Y-143814699D01*
X108375000Y-150896785D01*
X108373734Y-150914604D01*
X108353572Y-151055742D01*
X108352136Y-151065792D01*
X108344392Y-151094763D01*
X108314872Y-151168562D01*
X108306189Y-151190269D01*
X108290001Y-151219072D01*
X108234597Y-151292945D01*
X108212510Y-151315734D01*
X108110424Y-151397403D01*
X108088062Y-151411711D01*
X107968286Y-151471599D01*
X107929762Y-151483633D01*
X107783862Y-151504476D01*
X107766043Y-151505742D01*
X103983957Y-151505742D01*
X103966138Y-151504476D01*
X103814948Y-151482877D01*
X103785977Y-151475133D01*
X103692336Y-151437676D01*
X103660420Y-151419078D01*
X103565274Y-151342961D01*
X103539148Y-151314464D01*
X103457278Y-151191659D01*
X103445128Y-151168562D01*
X103405059Y-151068390D01*
X103397761Y-151042309D01*
X103376714Y-150916026D01*
X103375000Y-150895312D01*
X103375000Y-145405742D01*
X103350000Y-145205742D01*
X103345210Y-145196162D01*
X103345209Y-145196159D01*
X103278456Y-145062655D01*
X103275000Y-145055742D01*
X103269972Y-145049876D01*
X103269970Y-145049873D01*
X103126577Y-144882582D01*
X103125000Y-144880742D01*
X102779938Y-144535680D01*
X102770644Y-144525297D01*
X102683340Y-144416167D01*
X102669031Y-144393805D01*
X102634142Y-144324027D01*
X102622108Y-144285501D01*
X102601266Y-144139604D01*
X102600000Y-144121785D01*
X102600000Y-142414699D01*
X102601266Y-142396879D01*
X102623394Y-142241987D01*
X102628594Y-142219963D01*
X102645627Y-142168863D01*
X102657117Y-142143881D01*
X102717020Y-142044042D01*
X102735969Y-142019773D01*
X102835540Y-141920202D01*
X102868286Y-141896599D01*
X102980696Y-141840394D01*
X103021417Y-141828065D01*
X103192216Y-141806715D01*
X103207844Y-141805742D01*
X106367156Y-141805742D01*
X106382784Y-141806715D01*
G37*
%TD.AperFunction*%
%TA.AperFunction,Conductor*%
G36*
X101392280Y-115250465D02*
G01*
X101414370Y-115252614D01*
X101548909Y-115265700D01*
X101567718Y-115269394D01*
X101713849Y-115313142D01*
X101731594Y-115320391D01*
X101866561Y-115391483D01*
X101882575Y-115402016D01*
X102005060Y-115500807D01*
X102012228Y-115507185D01*
X102746700Y-116227532D01*
X102753359Y-116234747D01*
X102834948Y-116332458D01*
X102871077Y-116375727D01*
X102882110Y-116391983D01*
X102967303Y-116549068D01*
X102974910Y-116567182D01*
X103027410Y-116738009D01*
X103031289Y-116757269D01*
X103049511Y-116940008D01*
X103050000Y-116949831D01*
X103050000Y-118650000D01*
X103675000Y-119275000D01*
X105099468Y-119275000D01*
X105125092Y-119278374D01*
X105155626Y-119286556D01*
X105200006Y-119312178D01*
X105212822Y-119324994D01*
X105238444Y-119369373D01*
X105241686Y-119381470D01*
X105243134Y-119386875D01*
X105243134Y-119438125D01*
X105238444Y-119455627D01*
X105212822Y-119500006D01*
X105200006Y-119512822D01*
X105155626Y-119538444D01*
X105125092Y-119546626D01*
X105099468Y-119550000D01*
X104019075Y-119550000D01*
X104009371Y-119549523D01*
X104008718Y-119549459D01*
X103828825Y-119531741D01*
X103809795Y-119527955D01*
X103655826Y-119481250D01*
X103640860Y-119476710D01*
X103622930Y-119469283D01*
X103467244Y-119386067D01*
X103451107Y-119375285D01*
X103310871Y-119260196D01*
X103303672Y-119253672D01*
X103096328Y-119046328D01*
X103089804Y-119039129D01*
X102974715Y-118898893D01*
X102963933Y-118882756D01*
X102880717Y-118727070D01*
X102873290Y-118709140D01*
X102822045Y-118540207D01*
X102818259Y-118521173D01*
X102800477Y-118340629D01*
X102800000Y-118330925D01*
X102800000Y-117200000D01*
X102300000Y-116700000D01*
X101343620Y-116700000D01*
X101330698Y-116699153D01*
X101217506Y-116684251D01*
X101192542Y-116677562D01*
X101093106Y-116636374D01*
X101070730Y-116623456D01*
X100985332Y-116557928D01*
X100967072Y-116539668D01*
X100901544Y-116454270D01*
X100888626Y-116431894D01*
X100847438Y-116332458D01*
X100840749Y-116307494D01*
X100825847Y-116194302D01*
X100825000Y-116181380D01*
X100825000Y-115601173D01*
X100826902Y-115581860D01*
X100847147Y-115480079D01*
X100861930Y-115444390D01*
X100914060Y-115366373D01*
X100941373Y-115339060D01*
X100980162Y-115313142D01*
X101019392Y-115286929D01*
X101055078Y-115272147D01*
X101107727Y-115261675D01*
X101156860Y-115251902D01*
X101176173Y-115250000D01*
X101382697Y-115250000D01*
X101392280Y-115250465D01*
G37*
%TD.AperFunction*%
%TA.AperFunction,Conductor*%
G36*
X104159931Y-102875607D02*
G01*
X104202902Y-102879839D01*
X104316266Y-102891005D01*
X104340486Y-102895822D01*
X104484875Y-102939622D01*
X104507685Y-102949071D01*
X104640743Y-103020192D01*
X104661281Y-103033915D01*
X104777907Y-103129628D01*
X104795372Y-103147093D01*
X104891085Y-103263719D01*
X104904808Y-103284257D01*
X104975929Y-103417315D01*
X104985378Y-103440125D01*
X105029178Y-103584514D01*
X105033995Y-103608734D01*
X105049393Y-103765067D01*
X105050000Y-103777418D01*
X105050000Y-108947582D01*
X105049393Y-108959933D01*
X105033995Y-109116266D01*
X105029178Y-109140486D01*
X104985378Y-109284875D01*
X104975929Y-109307685D01*
X104904808Y-109440743D01*
X104891085Y-109461281D01*
X104795372Y-109577907D01*
X104777907Y-109595372D01*
X104661281Y-109691085D01*
X104640743Y-109704808D01*
X104507685Y-109775929D01*
X104484875Y-109785378D01*
X104340486Y-109829178D01*
X104316266Y-109833995D01*
X104202902Y-109845161D01*
X104159931Y-109849393D01*
X104147582Y-109850000D01*
X103470401Y-109850000D01*
X103458051Y-109849393D01*
X103281473Y-109832001D01*
X103257256Y-109827185D01*
X103093403Y-109777482D01*
X103070584Y-109768029D01*
X102919588Y-109687320D01*
X102899050Y-109673597D01*
X102761886Y-109561029D01*
X102752725Y-109552725D01*
X102397275Y-109197275D01*
X102388971Y-109188114D01*
X102276403Y-109050950D01*
X102262680Y-109030412D01*
X102181971Y-108879416D01*
X102172518Y-108856596D01*
X102122815Y-108692744D01*
X102117998Y-108668524D01*
X102100607Y-108491949D01*
X102100000Y-108479599D01*
X102100000Y-104245401D01*
X102100607Y-104233051D01*
X102117998Y-104056476D01*
X102122815Y-104032256D01*
X102172518Y-103868403D01*
X102181971Y-103845584D01*
X102262680Y-103694588D01*
X102276403Y-103674050D01*
X102388971Y-103536886D01*
X102397275Y-103527725D01*
X102752725Y-103172275D01*
X102761886Y-103163971D01*
X102899050Y-103051403D01*
X102919588Y-103037680D01*
X103070584Y-102956971D01*
X103093404Y-102947518D01*
X103257256Y-102897815D01*
X103281473Y-102892999D01*
X103458051Y-102875607D01*
X103470401Y-102875000D01*
X104147582Y-102875000D01*
X104159931Y-102875607D01*
G37*
%TD.AperFunction*%
%TA.AperFunction,Conductor*%
G36*
X143533862Y-148557100D02*
G01*
X143679762Y-148577943D01*
X143718290Y-148589979D01*
X143839840Y-148650755D01*
X143859090Y-148662652D01*
X143937204Y-148721237D01*
X143959992Y-148743324D01*
X143970000Y-148755834D01*
X144035961Y-148838285D01*
X144057106Y-148877152D01*
X144087451Y-148968185D01*
X144094555Y-148989498D01*
X144100863Y-149023031D01*
X144107366Y-149152684D01*
X144107524Y-149158996D01*
X144107524Y-158951087D01*
X144104225Y-158979729D01*
X144076326Y-159099248D01*
X144073163Y-159110439D01*
X144055335Y-159163922D01*
X144040642Y-159193964D01*
X144006916Y-159244554D01*
X143991177Y-159263750D01*
X143914460Y-159340467D01*
X143881714Y-159364070D01*
X143808008Y-159400923D01*
X143791504Y-159407759D01*
X143661833Y-159450983D01*
X143637623Y-159456474D01*
X143463712Y-159478213D01*
X143457784Y-159478954D01*
X143442156Y-159479927D01*
X132285430Y-159479927D01*
X132264716Y-159478213D01*
X132132034Y-159456099D01*
X132118136Y-159452966D01*
X131961261Y-159408144D01*
X131939528Y-159399690D01*
X131868287Y-159364070D01*
X131835540Y-159340467D01*
X131721034Y-159225961D01*
X131690595Y-159176711D01*
X131631466Y-158999325D01*
X131625000Y-158959480D01*
X131625000Y-152864791D01*
X131626266Y-152846972D01*
X131647864Y-152695784D01*
X131655608Y-152666813D01*
X131693811Y-152571307D01*
X131709999Y-152542504D01*
X131769630Y-152462995D01*
X131781335Y-152449499D01*
X131841177Y-152389657D01*
X131860380Y-152373914D01*
X131914083Y-152338112D01*
X131937176Y-152325964D01*
X132035979Y-152286442D01*
X132064948Y-152278699D01*
X132216138Y-152257100D01*
X132233957Y-152255834D01*
X135041043Y-152255834D01*
X135058862Y-152257100D01*
X135210052Y-152278699D01*
X135239021Y-152286442D01*
X135315427Y-152317005D01*
X135334527Y-152324645D01*
X135363330Y-152340833D01*
X135442839Y-152400464D01*
X135456335Y-152412169D01*
X135516177Y-152472011D01*
X135531920Y-152491214D01*
X135567722Y-152544917D01*
X135579870Y-152568010D01*
X135619392Y-152666813D01*
X135627136Y-152695784D01*
X135648734Y-152846972D01*
X135650000Y-152864791D01*
X135650000Y-152880834D01*
X135662692Y-153005834D01*
X135663745Y-153010111D01*
X135663746Y-153010118D01*
X135673326Y-153049035D01*
X135675000Y-153055834D01*
X135700000Y-153130834D01*
X135775000Y-153255834D01*
X135875000Y-153355834D01*
X135950000Y-153405834D01*
X136075000Y-153455834D01*
X136250000Y-153480834D01*
X136849949Y-153480727D01*
X137633337Y-153480587D01*
X137633341Y-153480587D01*
X137637460Y-153480586D01*
X137641542Y-153480047D01*
X137641546Y-153480047D01*
X137821859Y-153456249D01*
X137821868Y-153456247D01*
X137825000Y-153455834D01*
X138049999Y-153402739D01*
X138058000Y-153398107D01*
X138224175Y-153301901D01*
X138224178Y-153301899D01*
X138230389Y-153298303D01*
X138379132Y-153159055D01*
X138399705Y-153124294D01*
X138469506Y-153006354D01*
X138469508Y-153006350D01*
X138470909Y-153003983D01*
X138543698Y-152852075D01*
X138545226Y-152846156D01*
X138545228Y-152846151D01*
X138573661Y-152736020D01*
X138575000Y-152730834D01*
X138588485Y-152568013D01*
X138590962Y-152538105D01*
X138590962Y-152538098D01*
X138591169Y-152535602D01*
X138599973Y-149141092D01*
X138601687Y-149120710D01*
X138622761Y-148994267D01*
X138630058Y-148968190D01*
X138668811Y-148871307D01*
X138684999Y-148842503D01*
X138740403Y-148768631D01*
X138762491Y-148745842D01*
X138864575Y-148664174D01*
X138886938Y-148649865D01*
X139006714Y-148589977D01*
X139045238Y-148577943D01*
X139191138Y-148557100D01*
X139208957Y-148555834D01*
X143516043Y-148555834D01*
X143533862Y-148557100D01*
G37*
%TD.AperFunction*%
%TA.AperFunction,Conductor*%
G36*
X103921056Y-113701078D02*
G01*
X104028968Y-113715285D01*
X104060740Y-113723798D01*
X104153608Y-113762265D01*
X104182094Y-113778712D01*
X104261839Y-113839903D01*
X104285097Y-113863161D01*
X104346288Y-113942906D01*
X104362735Y-113971392D01*
X104401202Y-114064260D01*
X104409715Y-114096032D01*
X104423922Y-114203944D01*
X104425000Y-114220390D01*
X104425000Y-116208899D01*
X104423922Y-116225345D01*
X104403898Y-116377443D01*
X104395385Y-116409215D01*
X104339865Y-116543252D01*
X104323420Y-116571737D01*
X104225000Y-116700000D01*
X104025000Y-116900000D01*
X104025000Y-118525000D01*
X104275000Y-118775000D01*
X105045913Y-118775000D01*
X105078525Y-118779294D01*
X105098640Y-118784684D01*
X105155123Y-118817295D01*
X105157705Y-118819877D01*
X105190319Y-118876371D01*
X105191264Y-118879899D01*
X105191264Y-118945101D01*
X105190319Y-118948629D01*
X105157705Y-119005123D01*
X105155123Y-119007705D01*
X105098640Y-119040316D01*
X105078525Y-119045706D01*
X105045913Y-119050000D01*
X104362773Y-119050000D01*
X104350423Y-119049393D01*
X104177438Y-119032355D01*
X104153217Y-119027538D01*
X103992817Y-118978881D01*
X103970007Y-118969432D01*
X103822191Y-118890423D01*
X103801653Y-118876700D01*
X103672093Y-118770372D01*
X103654628Y-118752907D01*
X103548300Y-118623347D01*
X103534577Y-118602809D01*
X103455568Y-118454993D01*
X103446119Y-118432183D01*
X103397462Y-118271783D01*
X103392645Y-118247562D01*
X103375607Y-118074577D01*
X103375000Y-118062227D01*
X103375000Y-116400000D01*
X102922275Y-115947275D01*
X102913971Y-115938114D01*
X102801403Y-115800950D01*
X102787680Y-115780412D01*
X102706971Y-115629416D01*
X102697518Y-115606596D01*
X102647815Y-115442744D01*
X102642998Y-115418524D01*
X102625607Y-115241949D01*
X102625000Y-115229599D01*
X102625000Y-114348423D01*
X102626078Y-114331976D01*
X102644648Y-114190925D01*
X102653161Y-114159154D01*
X102704417Y-114035410D01*
X102720864Y-114006924D01*
X102802403Y-113900661D01*
X102825661Y-113877403D01*
X102931924Y-113795864D01*
X102960408Y-113779418D01*
X103004439Y-113761180D01*
X103084154Y-113728161D01*
X103115925Y-113719648D01*
X103220489Y-113705882D01*
X103256977Y-113701078D01*
X103273423Y-113700000D01*
X103904610Y-113700000D01*
X103921056Y-113701078D01*
G37*
%TD.AperFunction*%
%TA.AperFunction,Conductor*%
G36*
X154791949Y-140950607D02*
G01*
X154968527Y-140967999D01*
X154992744Y-140972815D01*
X155156596Y-141022518D01*
X155179416Y-141031971D01*
X155330412Y-141112680D01*
X155350950Y-141126403D01*
X155488114Y-141238971D01*
X155497275Y-141247275D01*
X155952415Y-141702415D01*
X155960727Y-141711586D01*
X156073387Y-141848889D01*
X156087118Y-141869448D01*
X156167861Y-142020608D01*
X156177314Y-142043453D01*
X156226986Y-142207472D01*
X156231796Y-142231723D01*
X156249089Y-142408479D01*
X156249688Y-142420841D01*
X156249545Y-142614214D01*
X156247522Y-145342893D01*
X156246339Y-146940204D01*
X156246312Y-146976136D01*
X156245701Y-146988434D01*
X156234721Y-147099460D01*
X156228298Y-147164400D01*
X156223495Y-147188541D01*
X156174010Y-147351836D01*
X156164604Y-147374583D01*
X156084320Y-147525133D01*
X156070671Y-147545617D01*
X155958722Y-147682485D01*
X155950464Y-147691630D01*
X155517509Y-148126307D01*
X155508340Y-148134649D01*
X155371036Y-148247731D01*
X155350467Y-148261519D01*
X155199187Y-148342621D01*
X155176322Y-148352119D01*
X155012099Y-148402069D01*
X154987821Y-148406910D01*
X154843016Y-148421209D01*
X154810801Y-148424390D01*
X154798420Y-148425000D01*
X153752014Y-148425000D01*
X153683893Y-148404998D01*
X153637400Y-148351342D01*
X153627296Y-148281068D01*
X153656790Y-148216488D01*
X153674088Y-148200942D01*
X153673852Y-148200666D01*
X153754528Y-148131518D01*
X153828155Y-148068412D01*
X153952712Y-147907834D01*
X154042437Y-147725489D01*
X154053639Y-147682485D01*
X154092054Y-147535009D01*
X154092054Y-147535006D01*
X154093664Y-147528827D01*
X154104300Y-147325882D01*
X154073910Y-147124942D01*
X154003737Y-146934218D01*
X154000379Y-146928802D01*
X154000377Y-146928798D01*
X153900010Y-146766922D01*
X153900007Y-146766918D01*
X153896647Y-146761499D01*
X153757014Y-146613841D01*
X153590543Y-146497277D01*
X153404033Y-146416567D01*
X153358214Y-146406995D01*
X153209848Y-146375999D01*
X153209844Y-146375999D01*
X153205103Y-146375008D01*
X153200266Y-146374755D01*
X153200262Y-146374754D01*
X153199012Y-146374689D01*
X153195409Y-146374500D01*
X151850776Y-146374500D01*
X151836019Y-146375999D01*
X151704165Y-146389392D01*
X151704164Y-146389392D01*
X151697816Y-146390037D01*
X151503891Y-146450809D01*
X151326148Y-146549334D01*
X151171845Y-146681588D01*
X151047288Y-146842166D01*
X150957563Y-147024511D01*
X150955954Y-147030689D01*
X150955953Y-147030691D01*
X150915824Y-147184750D01*
X150906336Y-147221173D01*
X150895700Y-147424118D01*
X150926090Y-147625058D01*
X150996263Y-147815782D01*
X150999621Y-147821198D01*
X150999623Y-147821202D01*
X151099990Y-147983078D01*
X151099993Y-147983082D01*
X151103353Y-147988501D01*
X151242986Y-148136159D01*
X151248218Y-148139823D01*
X151248221Y-148139825D01*
X151328143Y-148195787D01*
X151372472Y-148251244D01*
X151379781Y-148321863D01*
X151347751Y-148385224D01*
X151286549Y-148421209D01*
X151255873Y-148425000D01*
X148270401Y-148425000D01*
X148258051Y-148424393D01*
X148258021Y-148424390D01*
X148081473Y-148407001D01*
X148057256Y-148402185D01*
X147893403Y-148352482D01*
X147870584Y-148343029D01*
X147719588Y-148262320D01*
X147699050Y-148248597D01*
X147561886Y-148136029D01*
X147552725Y-148127725D01*
X144772275Y-145347275D01*
X144763971Y-145338114D01*
X144651403Y-145200950D01*
X144637680Y-145180412D01*
X144556971Y-145029416D01*
X144547518Y-145006596D01*
X144497815Y-144842744D01*
X144492998Y-144818524D01*
X144475607Y-144641949D01*
X144475000Y-144629599D01*
X144475000Y-142620401D01*
X144475607Y-142608051D01*
X144492998Y-142431476D01*
X144497815Y-142407256D01*
X144547518Y-142243403D01*
X144556971Y-142220584D01*
X144637680Y-142069588D01*
X144651403Y-142049050D01*
X144763971Y-141911886D01*
X144772275Y-141902725D01*
X145427725Y-141247275D01*
X145436886Y-141238971D01*
X145574050Y-141126403D01*
X145594588Y-141112680D01*
X145745584Y-141031971D01*
X145768404Y-141022518D01*
X145932256Y-140972815D01*
X145956473Y-140967999D01*
X146133051Y-140950607D01*
X146145401Y-140950000D01*
X154779599Y-140950000D01*
X154791949Y-140950607D01*
G37*
%TD.AperFunction*%
%TA.AperFunction,Conductor*%
G36*
X107933188Y-106751078D02*
G01*
X108037963Y-106764872D01*
X108069735Y-106773385D01*
X108159674Y-106810639D01*
X108188160Y-106827086D01*
X108265393Y-106886349D01*
X108288651Y-106909607D01*
X108347914Y-106986840D01*
X108364361Y-107015326D01*
X108401615Y-107105265D01*
X108410128Y-107137037D01*
X108423922Y-107241812D01*
X108425000Y-107258258D01*
X108425000Y-107959635D01*
X108423922Y-107976081D01*
X108410128Y-108080856D01*
X108401615Y-108112628D01*
X108364360Y-108202569D01*
X108347916Y-108231052D01*
X108283572Y-108314906D01*
X108272712Y-108327288D01*
X107577288Y-109022712D01*
X107564906Y-109033572D01*
X107481052Y-109097916D01*
X107452569Y-109114360D01*
X107362628Y-109151615D01*
X107330856Y-109160128D01*
X107226081Y-109173922D01*
X107209635Y-109175000D01*
X105858258Y-109175000D01*
X105841812Y-109173922D01*
X105737037Y-109160128D01*
X105705265Y-109151615D01*
X105615326Y-109114361D01*
X105586840Y-109097914D01*
X105509607Y-109038651D01*
X105486349Y-109015393D01*
X105427086Y-108938160D01*
X105410639Y-108909674D01*
X105373385Y-108819735D01*
X105364872Y-108787963D01*
X105351078Y-108683188D01*
X105350000Y-108666742D01*
X105350000Y-107258258D01*
X105351078Y-107241812D01*
X105364872Y-107137037D01*
X105373385Y-107105265D01*
X105410639Y-107015326D01*
X105427086Y-106986840D01*
X105486349Y-106909607D01*
X105509607Y-106886349D01*
X105586840Y-106827086D01*
X105615326Y-106810639D01*
X105705265Y-106773385D01*
X105737037Y-106764872D01*
X105841812Y-106751078D01*
X105858258Y-106750000D01*
X107916742Y-106750000D01*
X107933188Y-106751078D01*
G37*
%TD.AperFunction*%
%TA.AperFunction,Conductor*%
G36*
X148750000Y-140000000D02*
G01*
X143088068Y-140000000D01*
X143071623Y-139998922D01*
X142993326Y-139988614D01*
X142952660Y-139983260D01*
X142920889Y-139974747D01*
X142817729Y-139932017D01*
X142789243Y-139915570D01*
X142687500Y-139837500D01*
X142525000Y-139675000D01*
X141475000Y-139675000D01*
X141312500Y-139837500D01*
X141210757Y-139915570D01*
X141182271Y-139932017D01*
X141079111Y-139974747D01*
X141047340Y-139983260D01*
X141006674Y-139988614D01*
X140928377Y-139998922D01*
X140911932Y-140000000D01*
X128885035Y-140000000D01*
X128868589Y-139998922D01*
X128834375Y-139994418D01*
X128782765Y-139987623D01*
X128750994Y-139979110D01*
X128678712Y-139949170D01*
X128650226Y-139932723D01*
X128575000Y-139875000D01*
X128450000Y-139750000D01*
X127275000Y-139750000D01*
X127150000Y-139875000D01*
X127074774Y-139932723D01*
X127046288Y-139949170D01*
X126974006Y-139979110D01*
X126942235Y-139987623D01*
X126890625Y-139994418D01*
X126856411Y-139998922D01*
X126839965Y-140000000D01*
X114652712Y-140000000D01*
X114636266Y-139998922D01*
X114539398Y-139986169D01*
X114507626Y-139977656D01*
X114425051Y-139943452D01*
X114396568Y-139927008D01*
X114312500Y-139862500D01*
X114175000Y-139725000D01*
X113025000Y-139725000D01*
X112887500Y-139862500D01*
X112803432Y-139927008D01*
X112774949Y-139943452D01*
X112692374Y-139977656D01*
X112660602Y-139986169D01*
X112563734Y-139998922D01*
X112547288Y-140000000D01*
X102525000Y-140000000D01*
X101250000Y-141275000D01*
X101250000Y-147054599D01*
X101249393Y-147066949D01*
X101232002Y-147243524D01*
X101227185Y-147267744D01*
X101177482Y-147431596D01*
X101168029Y-147454416D01*
X101087320Y-147605412D01*
X101073597Y-147625950D01*
X100961029Y-147763114D01*
X100952725Y-147772275D01*
X99972275Y-148752725D01*
X99963114Y-148761029D01*
X99825950Y-148873597D01*
X99805412Y-148887320D01*
X99654416Y-148968029D01*
X99631597Y-148977482D01*
X99467744Y-149027185D01*
X99443527Y-149032001D01*
X99268827Y-149049208D01*
X99266949Y-149049393D01*
X99254599Y-149050000D01*
X98869578Y-149050000D01*
X98855472Y-149049208D01*
X98813325Y-149044459D01*
X98695807Y-149031218D01*
X98668300Y-149024939D01*
X98523370Y-148974226D01*
X98497949Y-148961984D01*
X98367934Y-148880290D01*
X98345875Y-148862698D01*
X98237302Y-148754125D01*
X98219710Y-148732066D01*
X98138016Y-148602051D01*
X98125774Y-148576630D01*
X98075061Y-148431700D01*
X98068782Y-148404193D01*
X98050792Y-148244530D01*
X98050000Y-148230422D01*
X98050000Y-134006186D01*
X98050607Y-133993836D01*
X98067998Y-133817262D01*
X98072815Y-133793042D01*
X98122518Y-133629189D01*
X98131971Y-133606370D01*
X98212681Y-133455371D01*
X98226399Y-133434841D01*
X98335026Y-133302478D01*
X98352479Y-133285025D01*
X98484842Y-133176398D01*
X98505369Y-133162682D01*
X98656371Y-133081970D01*
X98679191Y-133072517D01*
X98843043Y-133022814D01*
X98867260Y-133017998D01*
X99043837Y-133000606D01*
X99056187Y-132999999D01*
X148750000Y-132999999D01*
X148750000Y-140000000D01*
G37*
%TD.AperFunction*%
%TA.AperFunction,Conductor*%
G36*
X115033862Y-148552173D02*
G01*
X115179762Y-148573016D01*
X115218290Y-148585052D01*
X115339840Y-148645828D01*
X115359090Y-148657725D01*
X115437204Y-148716310D01*
X115459992Y-148738397D01*
X115470000Y-148750907D01*
X115535961Y-148833358D01*
X115557106Y-148872225D01*
X115596873Y-148991526D01*
X115601625Y-149010657D01*
X115623259Y-149140461D01*
X115624973Y-149161496D01*
X115600031Y-158962688D01*
X115597584Y-158987077D01*
X115576539Y-159092306D01*
X115572523Y-159107432D01*
X115555335Y-159158995D01*
X115540642Y-159189037D01*
X115506916Y-159239627D01*
X115491177Y-159258823D01*
X115414460Y-159335540D01*
X115381714Y-159359143D01*
X115308008Y-159395996D01*
X115291504Y-159402832D01*
X115161833Y-159446056D01*
X115137623Y-159451547D01*
X114963712Y-159473286D01*
X114957784Y-159474027D01*
X114942156Y-159475000D01*
X103785430Y-159475000D01*
X103764716Y-159473286D01*
X103632034Y-159451172D01*
X103618136Y-159448039D01*
X103461261Y-159403217D01*
X103439528Y-159394763D01*
X103368287Y-159359143D01*
X103335540Y-159335540D01*
X103221033Y-159221033D01*
X103190594Y-159171782D01*
X103131466Y-158994397D01*
X103125000Y-158954553D01*
X103125000Y-152859864D01*
X103126266Y-152842045D01*
X103147864Y-152690857D01*
X103155608Y-152661886D01*
X103193811Y-152566380D01*
X103209999Y-152537577D01*
X103269630Y-152458068D01*
X103281335Y-152444572D01*
X103341177Y-152384730D01*
X103360380Y-152368987D01*
X103414083Y-152333185D01*
X103437176Y-152321037D01*
X103535979Y-152281515D01*
X103564948Y-152273772D01*
X103716138Y-152252173D01*
X103733957Y-152250907D01*
X106541043Y-152250907D01*
X106558862Y-152252173D01*
X106710052Y-152273772D01*
X106739021Y-152281515D01*
X106815427Y-152312078D01*
X106834527Y-152319718D01*
X106863330Y-152335906D01*
X106942839Y-152395537D01*
X106956335Y-152407242D01*
X107016177Y-152467084D01*
X107031920Y-152486287D01*
X107067722Y-152539990D01*
X107079870Y-152563083D01*
X107119392Y-152661886D01*
X107127136Y-152690857D01*
X107148734Y-152842045D01*
X107150000Y-152859864D01*
X107150000Y-152875907D01*
X107162692Y-153000907D01*
X107163745Y-153005184D01*
X107163746Y-153005191D01*
X107173326Y-153044108D01*
X107175000Y-153050907D01*
X107200000Y-153125907D01*
X107275000Y-153250907D01*
X107375000Y-153350907D01*
X107450000Y-153400907D01*
X107575000Y-153450907D01*
X107750000Y-153475907D01*
X108349949Y-153475800D01*
X109133337Y-153475660D01*
X109133341Y-153475660D01*
X109137460Y-153475659D01*
X109141542Y-153475120D01*
X109141546Y-153475120D01*
X109321859Y-153451322D01*
X109321868Y-153451320D01*
X109325000Y-153450907D01*
X109549999Y-153397812D01*
X109558000Y-153393180D01*
X109724175Y-153296974D01*
X109724178Y-153296972D01*
X109730389Y-153293376D01*
X109879132Y-153154128D01*
X109899705Y-153119367D01*
X109969506Y-153001427D01*
X109969508Y-153001423D01*
X109970909Y-152999056D01*
X110043698Y-152847148D01*
X110045226Y-152841229D01*
X110045228Y-152841224D01*
X110073661Y-152731093D01*
X110075000Y-152725907D01*
X110088485Y-152563086D01*
X110090962Y-152533178D01*
X110090962Y-152533171D01*
X110091169Y-152530675D01*
X110099973Y-149136165D01*
X110101687Y-149115783D01*
X110122761Y-148989340D01*
X110130058Y-148963263D01*
X110168811Y-148866380D01*
X110184999Y-148837576D01*
X110240403Y-148763704D01*
X110262491Y-148740915D01*
X110364575Y-148659247D01*
X110386938Y-148644938D01*
X110506714Y-148585050D01*
X110545238Y-148573016D01*
X110691138Y-148552173D01*
X110708957Y-148550907D01*
X115016043Y-148550907D01*
X115033862Y-148552173D01*
G37*
%TD.AperFunction*%
%TA.AperFunction,Conductor*%
G36*
X151316107Y-132845002D02*
G01*
X151362600Y-132898658D01*
X151372704Y-132968932D01*
X151343210Y-133033512D01*
X151325912Y-133049058D01*
X151326148Y-133049334D01*
X151171845Y-133181588D01*
X151047288Y-133342166D01*
X150957563Y-133524511D01*
X150955954Y-133530689D01*
X150955953Y-133530691D01*
X150926891Y-133642263D01*
X150906336Y-133721173D01*
X150895700Y-133924118D01*
X150926090Y-134125058D01*
X150996263Y-134315782D01*
X150999621Y-134321198D01*
X150999623Y-134321202D01*
X151099990Y-134483078D01*
X151099993Y-134483082D01*
X151103353Y-134488501D01*
X151242986Y-134636159D01*
X151409457Y-134752723D01*
X151595967Y-134833433D01*
X151602215Y-134834738D01*
X151602214Y-134834738D01*
X151790152Y-134874001D01*
X151790156Y-134874001D01*
X151794897Y-134874992D01*
X151799734Y-134875245D01*
X151799738Y-134875246D01*
X151800988Y-134875311D01*
X151804591Y-134875500D01*
X153149224Y-134875500D01*
X153222048Y-134868103D01*
X153295835Y-134860608D01*
X153295836Y-134860608D01*
X153302184Y-134859963D01*
X153496109Y-134799191D01*
X153673852Y-134700666D01*
X153828155Y-134568412D01*
X153952712Y-134407834D01*
X154042437Y-134225489D01*
X154044047Y-134219309D01*
X154092054Y-134035009D01*
X154092054Y-134035006D01*
X154093664Y-134028827D01*
X154104300Y-133825882D01*
X154073910Y-133624942D01*
X154003737Y-133434218D01*
X154000379Y-133428802D01*
X154000377Y-133428798D01*
X153900010Y-133266922D01*
X153900007Y-133266918D01*
X153896647Y-133261499D01*
X153757014Y-133113841D01*
X153751782Y-133110177D01*
X153751779Y-133110175D01*
X153671857Y-133054213D01*
X153627528Y-132998756D01*
X153620219Y-132928137D01*
X153652249Y-132864776D01*
X153713451Y-132828791D01*
X153744127Y-132825000D01*
X158793813Y-132825000D01*
X158806163Y-132825607D01*
X158982740Y-132842999D01*
X159006957Y-132847815D01*
X159170809Y-132897518D01*
X159193629Y-132906971D01*
X159203973Y-132912500D01*
X159344631Y-132987683D01*
X159365158Y-133001399D01*
X159497521Y-133110026D01*
X159514974Y-133127479D01*
X159623601Y-133259842D01*
X159637319Y-133280372D01*
X159718029Y-133431371D01*
X159727482Y-133454190D01*
X159777185Y-133618043D01*
X159782002Y-133642263D01*
X159799393Y-133818837D01*
X159800000Y-133831187D01*
X159800000Y-147568813D01*
X159799393Y-147581163D01*
X159782002Y-147757737D01*
X159777185Y-147781957D01*
X159727482Y-147945809D01*
X159718029Y-147968629D01*
X159637319Y-148119628D01*
X159623601Y-148140158D01*
X159514974Y-148272521D01*
X159497521Y-148289974D01*
X159365158Y-148398601D01*
X159344631Y-148412317D01*
X159252417Y-148461607D01*
X159193629Y-148493029D01*
X159170810Y-148502482D01*
X159006957Y-148552185D01*
X158982740Y-148557001D01*
X158806163Y-148574393D01*
X158793813Y-148575000D01*
X158656187Y-148575000D01*
X158643837Y-148574393D01*
X158467260Y-148557001D01*
X158443043Y-148552185D01*
X158279190Y-148502482D01*
X158256371Y-148493029D01*
X158197583Y-148461607D01*
X158105369Y-148412317D01*
X158084842Y-148398601D01*
X157952479Y-148289974D01*
X157935026Y-148272521D01*
X157826399Y-148140158D01*
X157812681Y-148119628D01*
X157731971Y-147968629D01*
X157722518Y-147945809D01*
X157672815Y-147781957D01*
X157667998Y-147757737D01*
X157650607Y-147581163D01*
X157650000Y-147568813D01*
X157650000Y-140775000D01*
X156875000Y-140000000D01*
X148750000Y-140000000D01*
X148750000Y-132999999D01*
X148500001Y-132999999D01*
X148587498Y-132912502D01*
X148587501Y-132912500D01*
X148663581Y-132861664D01*
X148709000Y-132842851D01*
X148786572Y-132827421D01*
X148811153Y-132825000D01*
X151247986Y-132825000D01*
X151316107Y-132845002D01*
G37*
%TD.AperFunction*%
%TA.AperFunction,Conductor*%
G36*
X141317121Y-144326777D02*
G01*
X141363614Y-144380433D01*
X141375000Y-144432775D01*
X141375000Y-145506775D01*
X141775000Y-145506775D01*
X141775000Y-144432775D01*
X141795002Y-144364654D01*
X141848658Y-144318161D01*
X141901000Y-144306775D01*
X142049000Y-144306775D01*
X142117121Y-144326777D01*
X142163614Y-144380433D01*
X142175000Y-144432775D01*
X142175000Y-145506775D01*
X142575000Y-145506775D01*
X142575000Y-144432775D01*
X142595002Y-144364654D01*
X142648658Y-144318161D01*
X142701000Y-144306775D01*
X143466043Y-144306775D01*
X143483862Y-144308041D01*
X143635052Y-144329640D01*
X143664021Y-144337383D01*
X143740427Y-144367946D01*
X143759527Y-144375586D01*
X143788330Y-144391774D01*
X143867839Y-144451405D01*
X143881335Y-144463110D01*
X143941177Y-144522952D01*
X143956920Y-144542155D01*
X143992722Y-144595858D01*
X144004870Y-144618951D01*
X144044392Y-144717754D01*
X144052135Y-144746723D01*
X144073734Y-144897913D01*
X144075000Y-144915732D01*
X144075000Y-146997818D01*
X144073734Y-147015637D01*
X144052432Y-147164755D01*
X144052136Y-147166825D01*
X144044392Y-147195796D01*
X144020000Y-147256775D01*
X144006671Y-147290098D01*
X143988936Y-147320922D01*
X143928198Y-147398588D01*
X143921478Y-147406488D01*
X143888125Y-147442575D01*
X143885814Y-147445075D01*
X143861616Y-147465414D01*
X143797539Y-147506775D01*
X143781501Y-147517127D01*
X143768029Y-147524694D01*
X143667641Y-147573244D01*
X143630607Y-147584545D01*
X143483862Y-147605509D01*
X143466043Y-147606775D01*
X140683957Y-147606775D01*
X140666138Y-147605509D01*
X140520238Y-147584666D01*
X140481710Y-147572630D01*
X140360160Y-147511854D01*
X140340910Y-147499957D01*
X140264400Y-147442575D01*
X140239200Y-147417375D01*
X140181055Y-147339848D01*
X140170307Y-147322841D01*
X140139949Y-147265046D01*
X140132530Y-147247959D01*
X140103501Y-147164755D01*
X140098229Y-147144242D01*
X140076761Y-147017195D01*
X140075000Y-146996202D01*
X140075000Y-144915732D01*
X140076266Y-144897913D01*
X140097735Y-144747632D01*
X140106161Y-144716989D01*
X140146023Y-144621321D01*
X140155483Y-144603004D01*
X140192397Y-144543941D01*
X140210150Y-144521625D01*
X140291177Y-144440598D01*
X140310380Y-144424855D01*
X140364083Y-144389053D01*
X140387176Y-144376905D01*
X140485979Y-144337383D01*
X140514948Y-144329640D01*
X140666138Y-144308041D01*
X140683957Y-144306775D01*
X141249000Y-144306775D01*
X141317121Y-144326777D01*
G37*
%TD.AperFunction*%
%TA.AperFunction,Conductor*%
G36*
X107226081Y-103701078D02*
G01*
X107330856Y-103714872D01*
X107362628Y-103723385D01*
X107452569Y-103760640D01*
X107481052Y-103777084D01*
X107564906Y-103841428D01*
X107577288Y-103852288D01*
X108272712Y-104547712D01*
X108283572Y-104560094D01*
X108347916Y-104643948D01*
X108364360Y-104672431D01*
X108401615Y-104762372D01*
X108410128Y-104794144D01*
X108423922Y-104898919D01*
X108425000Y-104915365D01*
X108425000Y-105591742D01*
X108423922Y-105608188D01*
X108410128Y-105712963D01*
X108401615Y-105744735D01*
X108364361Y-105834674D01*
X108347914Y-105863160D01*
X108288651Y-105940393D01*
X108265393Y-105963651D01*
X108188160Y-106022914D01*
X108159674Y-106039361D01*
X108069735Y-106076615D01*
X108037963Y-106085128D01*
X107933188Y-106098922D01*
X107916742Y-106100000D01*
X105858258Y-106100000D01*
X105841812Y-106098922D01*
X105737037Y-106085128D01*
X105705265Y-106076615D01*
X105615326Y-106039361D01*
X105586840Y-106022914D01*
X105509607Y-105963651D01*
X105486349Y-105940393D01*
X105427086Y-105863160D01*
X105410639Y-105834674D01*
X105373385Y-105744735D01*
X105364872Y-105712963D01*
X105351078Y-105608188D01*
X105350000Y-105591742D01*
X105350000Y-104208258D01*
X105351078Y-104191812D01*
X105364872Y-104087037D01*
X105373385Y-104055265D01*
X105410639Y-103965326D01*
X105427086Y-103936840D01*
X105486349Y-103859607D01*
X105509607Y-103836349D01*
X105586840Y-103777086D01*
X105615326Y-103760639D01*
X105705265Y-103723385D01*
X105737037Y-103714872D01*
X105841812Y-103701078D01*
X105858258Y-103700000D01*
X107209635Y-103700000D01*
X107226081Y-103701078D01*
G37*
%TD.AperFunction*%
%TA.AperFunction,Conductor*%
G36*
X96203377Y-112851078D02*
G01*
X96249348Y-112857130D01*
X96322340Y-112866740D01*
X96354111Y-112875253D01*
X96457271Y-112917983D01*
X96485754Y-112934427D01*
X96574344Y-113002405D01*
X96597595Y-113025656D01*
X96665573Y-113114246D01*
X96682017Y-113142729D01*
X96724747Y-113245889D01*
X96733260Y-113277660D01*
X96748922Y-113396621D01*
X96750000Y-113413068D01*
X96750000Y-116454599D01*
X96749393Y-116466949D01*
X96732002Y-116643524D01*
X96727185Y-116667744D01*
X96677482Y-116831596D01*
X96668029Y-116854416D01*
X96587320Y-117005412D01*
X96573597Y-117025950D01*
X96461029Y-117163114D01*
X96452725Y-117172275D01*
X95750000Y-117875000D01*
X95750000Y-119650000D01*
X96050000Y-119950000D01*
X100654599Y-119950000D01*
X100666949Y-119950607D01*
X100843527Y-119967999D01*
X100867744Y-119972815D01*
X101031596Y-120022518D01*
X101054416Y-120031971D01*
X101205412Y-120112680D01*
X101225950Y-120126403D01*
X101363114Y-120238971D01*
X101372275Y-120247275D01*
X101900000Y-120775000D01*
X105095913Y-120775000D01*
X105128525Y-120779294D01*
X105148640Y-120784684D01*
X105205123Y-120817295D01*
X105207705Y-120819877D01*
X105240319Y-120876371D01*
X105241264Y-120879899D01*
X105241264Y-120945101D01*
X105240319Y-120948629D01*
X105207705Y-121005123D01*
X105205123Y-121007705D01*
X105148640Y-121040316D01*
X105128525Y-121045706D01*
X105095913Y-121050000D01*
X94933780Y-121050000D01*
X94917333Y-121048922D01*
X94754188Y-121027443D01*
X94722417Y-121018930D01*
X94689084Y-121005123D01*
X94578080Y-120959144D01*
X94549606Y-120942704D01*
X94425658Y-120847597D01*
X94402404Y-120824343D01*
X94364310Y-120774697D01*
X94307297Y-120700397D01*
X94290852Y-120671912D01*
X94231069Y-120527582D01*
X94222556Y-120495811D01*
X94201077Y-120332666D01*
X94199999Y-120316219D01*
X94199999Y-113455747D01*
X94201077Y-113439300D01*
X94218193Y-113309294D01*
X94226706Y-113277523D01*
X94273700Y-113164069D01*
X94290147Y-113135583D01*
X94364902Y-113038161D01*
X94388160Y-113014903D01*
X94485582Y-112940148D01*
X94514068Y-112923701D01*
X94627522Y-112876707D01*
X94659293Y-112868194D01*
X94738584Y-112857755D01*
X94789301Y-112851078D01*
X94805746Y-112850000D01*
X96186932Y-112850000D01*
X96203377Y-112851078D01*
G37*
%TD.AperFunction*%
%TA.AperFunction,Conductor*%
G36*
X127086786Y-144332519D02*
G01*
X127133279Y-144386175D01*
X127144665Y-144438517D01*
X127144665Y-145512517D01*
X127694665Y-145512517D01*
X127694665Y-144438517D01*
X127714667Y-144370396D01*
X127768323Y-144323903D01*
X127820665Y-144312517D01*
X127918665Y-144312517D01*
X127986786Y-144332519D01*
X128033279Y-144386175D01*
X128044665Y-144438517D01*
X128044665Y-145512517D01*
X128344665Y-145512517D01*
X128344665Y-144438517D01*
X128364667Y-144370396D01*
X128418323Y-144323903D01*
X128470665Y-144312517D01*
X129235708Y-144312517D01*
X129253527Y-144313783D01*
X129404717Y-144335382D01*
X129433686Y-144343125D01*
X129510092Y-144373688D01*
X129529192Y-144381328D01*
X129557995Y-144397516D01*
X129637504Y-144457147D01*
X129651000Y-144468852D01*
X129710842Y-144528694D01*
X129726585Y-144547897D01*
X129762387Y-144601600D01*
X129774535Y-144624693D01*
X129814057Y-144723496D01*
X129821800Y-144752465D01*
X129843399Y-144903655D01*
X129844665Y-144921474D01*
X129844665Y-147003560D01*
X129843399Y-147021379D01*
X129822097Y-147170497D01*
X129821801Y-147172567D01*
X129814057Y-147201538D01*
X129789665Y-147262517D01*
X129776336Y-147295840D01*
X129758601Y-147326664D01*
X129697863Y-147404330D01*
X129691143Y-147412230D01*
X129657790Y-147448317D01*
X129655479Y-147450817D01*
X129631281Y-147471156D01*
X129567204Y-147512517D01*
X129551166Y-147522869D01*
X129537694Y-147530436D01*
X129437306Y-147578986D01*
X129400272Y-147590287D01*
X129253527Y-147611251D01*
X129235708Y-147612517D01*
X126453622Y-147612517D01*
X126435803Y-147611251D01*
X126289903Y-147590408D01*
X126251375Y-147578372D01*
X126129825Y-147517596D01*
X126110575Y-147505699D01*
X126034065Y-147448317D01*
X126008865Y-147423117D01*
X125950720Y-147345590D01*
X125939972Y-147328583D01*
X125909614Y-147270788D01*
X125902195Y-147253701D01*
X125873166Y-147170497D01*
X125867894Y-147149984D01*
X125846426Y-147022937D01*
X125844665Y-147001944D01*
X125844665Y-144921474D01*
X125845931Y-144903655D01*
X125867400Y-144753374D01*
X125875826Y-144722731D01*
X125915688Y-144627063D01*
X125925148Y-144608746D01*
X125962062Y-144549683D01*
X125979815Y-144527367D01*
X126060842Y-144446340D01*
X126080045Y-144430597D01*
X126133748Y-144394795D01*
X126156841Y-144382647D01*
X126255644Y-144343125D01*
X126284613Y-144335382D01*
X126435803Y-144313783D01*
X126453622Y-144312517D01*
X127018665Y-144312517D01*
X127086786Y-144332519D01*
G37*
%TD.AperFunction*%
%TA.AperFunction,Conductor*%
G36*
X134882784Y-141811642D02*
G01*
X135053583Y-141832992D01*
X135094304Y-141845321D01*
X135163062Y-141879700D01*
X135185425Y-141894009D01*
X135294555Y-141981313D01*
X135304938Y-141990607D01*
X136670954Y-143356623D01*
X136678655Y-143365055D01*
X136787222Y-143495335D01*
X136807414Y-143529203D01*
X136844390Y-143621643D01*
X136852136Y-143650619D01*
X136873734Y-143801807D01*
X136875000Y-143819626D01*
X136875000Y-150901712D01*
X136873734Y-150919531D01*
X136853572Y-151060669D01*
X136852136Y-151070719D01*
X136844392Y-151099690D01*
X136814872Y-151173489D01*
X136806189Y-151195196D01*
X136790001Y-151223999D01*
X136734597Y-151297872D01*
X136712510Y-151320661D01*
X136610424Y-151402330D01*
X136588062Y-151416638D01*
X136468286Y-151476526D01*
X136429762Y-151488560D01*
X136283862Y-151509403D01*
X136266043Y-151510669D01*
X132483957Y-151510669D01*
X132466138Y-151509403D01*
X132314948Y-151487804D01*
X132285977Y-151480060D01*
X132192336Y-151442603D01*
X132160420Y-151424005D01*
X132065274Y-151347888D01*
X132039148Y-151319391D01*
X131957278Y-151196586D01*
X131945128Y-151173489D01*
X131905059Y-151073317D01*
X131897761Y-151047236D01*
X131876714Y-150920953D01*
X131875000Y-150900239D01*
X131875000Y-145410669D01*
X131850000Y-145210669D01*
X131845210Y-145201089D01*
X131845209Y-145201086D01*
X131778456Y-145067582D01*
X131775000Y-145060669D01*
X131769972Y-145054803D01*
X131769970Y-145054800D01*
X131626577Y-144887509D01*
X131625000Y-144885669D01*
X131279938Y-144540607D01*
X131270644Y-144530224D01*
X131183340Y-144421094D01*
X131169031Y-144398732D01*
X131134142Y-144328954D01*
X131122108Y-144290428D01*
X131101266Y-144144531D01*
X131100000Y-144126712D01*
X131100000Y-142419626D01*
X131101266Y-142401807D01*
X131123394Y-142246914D01*
X131128594Y-142224888D01*
X131145627Y-142173789D01*
X131157117Y-142148808D01*
X131217020Y-142048969D01*
X131235969Y-142024700D01*
X131335540Y-141925129D01*
X131368286Y-141901526D01*
X131480696Y-141845321D01*
X131521417Y-141832992D01*
X131692216Y-141811642D01*
X131707844Y-141810669D01*
X134867156Y-141810669D01*
X134882784Y-141811642D01*
G37*
%TD.AperFunction*%
%TA.AperFunction,Conductor*%
G36*
X120652449Y-141817384D02*
G01*
X120823248Y-141838734D01*
X120863969Y-141851063D01*
X120932727Y-141885442D01*
X120955090Y-141899751D01*
X121064220Y-141987055D01*
X121074603Y-141996349D01*
X122440619Y-143362365D01*
X122448320Y-143370797D01*
X122556887Y-143501077D01*
X122577079Y-143534945D01*
X122614055Y-143627385D01*
X122621801Y-143656361D01*
X122643399Y-143807549D01*
X122644665Y-143825368D01*
X122644665Y-150907454D01*
X122643399Y-150925273D01*
X122623237Y-151066411D01*
X122621801Y-151076461D01*
X122614057Y-151105432D01*
X122584537Y-151179231D01*
X122575854Y-151200938D01*
X122559666Y-151229741D01*
X122504262Y-151303614D01*
X122482175Y-151326403D01*
X122380089Y-151408072D01*
X122357727Y-151422380D01*
X122237951Y-151482268D01*
X122199427Y-151494302D01*
X122053527Y-151515145D01*
X122035708Y-151516411D01*
X118253622Y-151516411D01*
X118235803Y-151515145D01*
X118084613Y-151493546D01*
X118055642Y-151485802D01*
X117962001Y-151448345D01*
X117930085Y-151429747D01*
X117834939Y-151353630D01*
X117808813Y-151325133D01*
X117726943Y-151202328D01*
X117714793Y-151179231D01*
X117674724Y-151079059D01*
X117667426Y-151052978D01*
X117646379Y-150926695D01*
X117644665Y-150905981D01*
X117644665Y-145416411D01*
X117619665Y-145216411D01*
X117614875Y-145206831D01*
X117614874Y-145206828D01*
X117548121Y-145073324D01*
X117544665Y-145066411D01*
X117539637Y-145060545D01*
X117539635Y-145060542D01*
X117396242Y-144893251D01*
X117394665Y-144891411D01*
X117049603Y-144546349D01*
X117040309Y-144535966D01*
X116953005Y-144426836D01*
X116938696Y-144404474D01*
X116903807Y-144334696D01*
X116891773Y-144296170D01*
X116870931Y-144150273D01*
X116869665Y-144132454D01*
X116869665Y-142425368D01*
X116870931Y-142407549D01*
X116893059Y-142252656D01*
X116898259Y-142230630D01*
X116915292Y-142179531D01*
X116926782Y-142154550D01*
X116986685Y-142054711D01*
X117005634Y-142030442D01*
X117105205Y-141930871D01*
X117137951Y-141907268D01*
X117250361Y-141851063D01*
X117291082Y-141838734D01*
X117461881Y-141817384D01*
X117477509Y-141816411D01*
X120636821Y-141816411D01*
X120652449Y-141817384D01*
G37*
%TD.AperFunction*%
M02*
